{
.appVersion = "3134";
.formatVersion = 3;
DisplayStrings = (
aubd
);
customParameters = (
{
name = vendorID;
value = ITFO;
},
{
name = panose;
value = (
0,
0,
5,
0,
0,
0,
0,
0,
0,
0
);
},
{
name = unicodeRanges;
value = (
0,
1,
2,
15
);
},
{
name = codePageRanges;
value = (
"1252",
"1250",
"1254",
"1257",
"bit 29"
);
},
{
name = fsType;
value = (
);
},
{
name = glyphOrder;
value = (
.notdef,
NULL,
CR,
space,
dvA,
dvAA,
dvI,
dvII,
dvU,
dvUU,
dvvR,
dvvRR,
dvvL,
dvvLL,
dvE,
dvAI,
dvO,
dvAU,
dvEcandra,
dvAcandra,
dvOcandra,
dvmAA,
dvmI,
dvmII,
dvmU,
dvmUU,
dvmvR,
dvmvRR,
dvmvL,
dvmvLL,
dvmE,
dvmAI,
dvmO,
dvmAU,
dvmEcandra,
dvmOcandra,
dvKA,
dvKHA,
dvGA,
dvGHA,
dvNGA,
dvCA,
dvCHA,
dvJA,
dvJHA,
dvNYA,
dvTTA,
dvTTHA,
dvDDA,
dvDDHA,
dvNNA,
dvTA,
dvTHA,
dvDA,
dvDHA,
dvNA,
dvPA,
dvPHA,
dvBA,
dvBHA,
dvMA,
dvYA,
dvRA,
dvLA,
dvVA,
dvSHA,
dvSSA,
dvSA,
dvHA,
dvLLA,
dvK_SSA,
dvJ_NYA,
dvKxA,
dvKHxA,
dvGxA,
dvJxA,
dvDDxA,
dvDDHxA,
dvPHxA,
dvRxA,
dvK,
dvKH,
dvG,
dvGH,
dvNG,
dvC,
dvCH,
dvJ,
dvJH,
dvNY,
dvTT,
dvTTH,
dvDD,
dvDDH,
dvNN,
dvT,
dvTH,
dvD,
dvDH,
dvN,
dvP,
dvPH,
dvB,
dvBH,
dvM,
dvY,
dvR,
dvL,
dvV,
dvSH,
dvSS,
dvS,
dvH,
dvLL,
dvK_SS,
dvJ_NY,
dvKx,
dvKHx,
dvGx,
dvJx,
dvPHx,
dvAnusvara,
dvCandrabindu,
dvVisarga,
dvAvagraha,
dvVirama,
dvNukta,
dvZero,
dvOne,
dvTwo,
dvThree,
dvFour,
dvFive,
dvSix,
dvSeven,
dvEight,
dvNine,
dvOm,
dvAbbreviationsign,
danda,
doubledanda,
rupee,
indianrupee,
zerowidthnonjoiner,
zerowidthjoiner,
dottedcircle,
dvReph,
dvEyelash,
dvRashtrasign,
dvK_RA,
dvKH_RA,
dvG_RA,
dvGH_RA,
dvNG_RA,
dvC_RA,
dvCH_RA,
dvJ_RA,
dvJH_RA,
dvNY_RA,
dvTT_RA,
dvTTH_RA,
dvDD_RA,
dvDDH_RA,
dvNN_RA,
dvT_RA,
dvTH_RA,
dvD_RA,
dvDH_RA,
dvN_RA,
dvP_RA,
dvPH_RA,
dvB_RA,
dvBH_RA,
dvM_RA,
dvY_RA,
dvL_RA,
dvV_RA,
dvSH_RA,
dvSS_RA,
dvS_RA,
dvH_RA,
dvLL_RA,
dvKx_RA,
dvKHx_RA,
dvGx_RA,
dvJx_RA,
dvPHx_RA,
dvK_R,
dvKH_R,
dvG_R,
dvGH_R,
dvNG_R,
dvC_R,
dvCH_R,
dvJ_R,
dvJH_R,
dvNY_R,
dvTT_R,
dvTTH_R,
dvDD_R,
dvDDH_R,
dvNN_R,
dvT_R,
dvTH_R,
dvD_R,
dvDH_R,
dvN_R,
dvP_R,
dvPH_R,
dvB_R,
dvBH_R,

glyphs = (
{
glyphname = .notdef;
layers = (
{
layerId = m01;
shapes = (
{
closed = 1;
nodes = (
(0,0,l),
(500,0,l),
(500,700,l),
(0,700,l)
);
},
{
closed = 1;
nodes = (
(250,395,l),
(80,650,l),
(420,650,l)
);
},
{
closed = 1;
nodes = (
(280,350,l),
(450,605,l),
(450,95,l)
);
},
{
closed = 1;
nodes = (
(80,50,l),
(250,305,l),
(420,50,l)
);
},
{
closed = 1;
nodes = (
(50,605,l),
(220,350,l),
(50,95,l)
);
}
);
width = 500;
}
);
note = ".notdef";
},
{
glyphname = exclam;
lastChange = "2022-10-19 09:13:23 +0000";
layers = (
{
layerId = m01;
shapes = (
{
closed = 1;
nodes = (
(108,207,ls),
(108,202,o),
(113,197,o),
(118,197,cs),
(174,197,ls),
(179,197,o),
(184,202,o),
(184,207,cs),
(195,687,ls),
(195,693,o),
(190,697,o),
(184,697,cs),
(108,697,ls),
(102,697,o),
(97,693,o),
(97,687,cs)
);
},
{
closed = 1;
nodes = (
(210,91,o),
(183,118,o),
(150,118,cs),
(115,118,o),
(88,91,o),
(88,56,cs),
(88,21,o),
(115,-6,o),
(150,-6,cs),
(183,-6,o),
(210,21,o),
(210,56,cs)
);
}
);
width = 298;
}
);
note = exclam;
unicode = 33;
},
{
glyphname = quotedbl;
lastChange = "2022-10-19 09:13:29 +0000";
layers = (
{
layerId = m01;
shapes = (
{
closed = 1;
nodes = (
(46,606,ls),
(46,601,o),
(51,597,o),
(56,597,cs),
(100,597,ls),
(105,597,o),
(111,601,o),
(111,606,cs),
(120,785,ls),
(120,792,o),
(116,796,o),
(110,796,cs),
(46,796,ls),
(40,796,o),
(36,792,o),
(36,785,cs)
);
},
{
closed = 1;
nodes = (
(181,606,ls),
(181,601,o),
(186,597,o),
(191,597,cs),
(235,597,ls),
(240,597,o),
(246,601,o),
(246,606,cs),
(255,785,ls),
(255,792,o),
(251,796,o),
(245,796,cs),
(181,796,ls),
(175,796,o),
(171,792,o),
(171,785,cs)
);
}
);
width = 292;
}
);
note = quotedbl;
unicode = 34;
},
{
glyphname = numbersign;
lastChange = "2022-10-19 09:13:59 +0000";
layers = (
{
layerId = m01;
shapes = (
{
closed = 1;
nodes = (
(506,288,ls),
(505,284,o),
(500,280,o),
(496,280,cs),
(307,280,ls),
(300,280,o),
(296,286,o),
(297,293,cs),
(330,452,ls),
(331,456,o),
(336,460,o),
(340,460,cs),
(528,460,ls),
(535,460,o),
(540,454,o),
(539,447,cs)
);
},
{
closed = 1;
nodes = (
(445,7,ls),
(444,4,o),
(448,0,o),
(451,0,cs),
(527,0,ls),
(529,0,o),
(532,2,o),
(532,4,cs),
(572,192,ls),
(573,196,o),
(578,200,o),
(582,200,cs),
(724,200,ls),
(727,200,o),
(729,202,o),
(729,205,cs),
(729,275,ls),
(729,278,o),
(727,280,o),
(724,280,cs),
(604,280,ls),
(597,280,o),
(593,286,o),
(594,293,cs),
(627,452,ls),
(628,456,o),
(633,460,o),
(637,460,cs),
(780,460,ls),
(783,460,o),
(785,462,o),
(785,465,cs),
(785,535,ls),
(785,538,o),
(783,540,o),
(780,540,cs),
(660,540,ls),
(653,540,o),
(648,546,o),
(649,553,cs),
(688,733,ls),
(689,736,o),
(685,740,o),
(682,740,cs),
(606,740,ls),
(604,740,o),
(601,738,o),
(601,736,cs),
(561,548,ls),
(560,544,o),
(555,540,o),
(551,540,cs),
(363,540,ls),
(356,540,o),
(351,546,o),
(352,553,cs),
(391,733,ls),
(392,736,o),
(388,740,o),
(385,740,cs),
(309,740,ls),
(307,740,o),
(304,738,o),
(304,736,cs),
(264,548,ls),
(263,544,o),
(258,540,o),
(254,540,cs),
(95,540,ls),
(92,540,o),
(90,538,o),
(90,535,cs),
(90,465,ls),
(90,462,o),
(92,460,o),
(95,460,cs),
(232,460,ls),
(239,460,o),
(243,454,o),
(242,447,cs),
(209,288,ls),
(208,284,o),
(203,280,o),
(199,280,cs),
(38,280,ls),
(35,280,o),
(33,278,o),
(33,275,cs),
(33,205,ls),
(33,202,o),
(35,200,o),
(38,200,cs),
(176,200,ls),
(183,200,o),
(188,194,o),
(187,187,cs),
(148,7,ls),
(147,4,o),
(151,0,o),
(154,0,cs),
(230,0,ls),
(232,0,o),
(235,2,o),
(235,4,cs),
(275,192,ls),
(276,196,o),
(281,200,o),
(285,200,cs),
(473,200,ls),
(480,200,o),
(485,194,o),
(484,187,cs)
);
}
);
width = 840;
}
);
note = numbersign;
unicode = 35;
},
{
glyphname = dollar;
lastChange = "2022-10-19 09:14:10 +0000";
layers = (
{
layerId = m01;
shapes = (
{
closed = 1;
nodes = (
(267,-82,ls),
(267,-85,o),
(269,-87,o),
(272,-87,cs),
(316,-87,ls),
(319,-87,o),
(321,-85,o),
(321,-82,cs),
(321,-6,l),
(457,3,o),
(527,98,o),
(527,191,cs),
(527,330,o),
(420,359,o),
(321,384,c),
(321,628,l),
(380,615,o),
(413,573,o),
(420,531,cs),
(421,529,o),
(423,527,o),
(425,527,cs),
(512,527,ls),
(515,527,o),
(518,530,o),
(517,533,cs),
(505,631,o),
(433,695,o),
(321,705,c),
(321,783,ls),
(321,786,o),
(319,788,o),
(316,788,cs),
(272,788,ls),
(269,788,o),
(267,786,o),
(267,783,cs),
(267,705,l),
(142,697,o),
(60,620,o),
(60,512,cs),
(60,374,o),
(167,345,o),
(267,319,c),
(267,69,l),
(198,80,o),
(165,126,o),
(158,177,cs),
(158,179,o),
(156,181,o),
(154,181,cs),
(66,181,ls),
(63,181,o),
(61,179,o),
(61,176,cs),
(66,73,o),
(149,5,o),
(267,-6,c)
);
},
{
closed = 1;
nodes = (
(436,126,o),
(395,76,o),
(321,68,c),
(321,304,l),
(385,285,o),
(436,257,o),
(436,186,cs)
);
},
{
closed = 1;
nodes = (
(153,588,o),
(200,624,o),
(267,630,c),
(267,399,l),
(203,419,o),
(153,446,o),
(153,517,cs)
);
}
);
width = 622;
}
);
note = dollar;
unicode = 36;
},
{
glyphname = percent;
lastChange = "2022-10-19 09:14:17 +0000";
layers = (
{
layerId = m01;
shapes = (
{
closed = 1;
nodes = (
(42,466,o),
(105,410,o),
(188,410,cs),
(272,410,o),
(334,466,o),
(334,560,cs),
(334,653,o),
(272,709,o),
(188,709,cs),
(105,709,o),
(42,653,o),
(42,560,cs)
);
},
{
closed = 1;
nodes = (
(232,653,o),
(262,623,o),
(262,560,cs),
(262,498,o),
(232,466,o),
(188,466,cs),
(144,466,o),
(115,498,o),
(115,560,cs),
(115,623,o),
(144,653,o),
(188,653,cs)
);
},
{
closed = 1;
nodes = (
(136,9,ls),
(134,5,o),
(137,0,o),
(142,0,cs),
(218,0,ls),
(219,0,o),
(221,0,o),
(222,2,cs),
(621,689,ls),
(623,693,o),
(620,698,o),
(615,698,cs),
(539,698,ls),
(538,698,o),
(536,698,o),
(535,696,cs)
);
},
{
closed = 1;
nodes = (
(425,45,o),
(487,-12,o),
(571,-12,cs),
(654,-12,o),
(716,45,o),
(716,138,cs),
(716,232,o),
(654,288,o),
(571,288,cs),
(487,288,o),
(425,232,o),
(425,138,cs)
);
},
{
closed = 1;
nodes = (
(614,231,o),
(644,201,o),
(644,138,cs),
(644,76,o),
(614,46,o),
(570,46,cs),
(526,46,o),
(496,76,o),
(496,138,cs),
(496,201,o),
(526,231,o),
(570,231,cs)
);
}
);
width = 759;
}
);
note = percent;
unicode = 37;
},
{
glyphname = ampersand;
lastChange = "2022-10-19 09:14:34 +0000";
layers = (
{
layerId = m01;
shapes = (
{
closed = 1;
nodes = (
(487,548,ls),
(492,548,o),
(497,552,o),
(497,558,cs),
(497,646,o),
(431,711,o),
(325,711,cs),
(212,711,o),
(141,645,o),
(141,556,cs),
(141,505,o),
(158,466,o),
(201,416,c),
(92,373,o),
(37,296,o),
(37,200,cs),
(37,71,o),
(136,-12,o),
(281,-12,cs),
(379,-12,o),
(454,22,o),
(521,92,c),
(610,2,ls),
(611,1,o),
(613,0,o),
(615,0,cs),
(696,0,ls),
(710,0,o),
(716,15,o),
(706,25,cs),
(574,157,l),
(588,177,o),
(601,197,o),
(614,220,cs),
(685,343,ls),
(690,352,o),
(684,362,o),
(674,362,cs),
(603,362,ls),
(600,362,o),
(596,360,o),
(595,358,cs),
(530,248,ls),
(524,238,o),
(518,229,o),
(512,220,c),
(304,429,ls),
(255,481,o),
(232,515,o),
(232,556,cs),
(232,602,o),
(267,636,o),
(321,636,cs),
(367,636,o),
(403,609,o),
(406,558,cs),
(406,552,o),
(411,548,o),
(416,548,cs)
);
},
{
closed = 1;
nodes = (
(190,66,o),
(128,125,o),
(128,203,cs),
(128,273,o),
(169,325,o),
(256,358,c),
(461,152,l),
(409,94,o),
(353,66,o),
(281,66,cs)
);
}
);
width = 739;
}
);
note = ampersand;
unicode = 38;
},
{
glyphname = quotesingle;
lastChange = "2022-10-19 09:14:41 +0000";
layers = (
{
layerId = m01;
shapes = (
{
closed = 1;
nodes = (
(47,606,ls),
(47,601,o),
(52,597,o),
(57,597,cs),
(102,597,ls),
(107,597,o),
(112,601,o),
(112,606,cs),
(122,785,ls),
(122,792,o),
(118,796,o),
(112,796,cs),
(46,796,ls),
(40,796,o),
(36,792,o),
(36,785,cs)
);
}
);
width = 159;
}
);
note = quotesingle;
unicode = 39;
},
{
glyphname = parenleft;
lastChange = "2022-10-19 09:14:49 +0000";
layers = (
{
layerId = m01;
shapes = (
{
closed = 1;
nodes = (
(396,-186,ls),
(402,-186,o),
(406,-183,o),
(406,-180,cs),
(406,-178,o),
(405,-176,o),
(404,-175,cs),
(266,-32,o),
(196,164,o),
(196,366,cs),
(196,569,o),
(266,778,o),
(418,923,cs),
(420,924,o),
(421,927,o),
(421,929,cs),
(421,930,ls),
(421,932,o),
(417,934,o),
(411,934,cs),
(329,934,ls),
(327,934,o),
(325,933,o),
(324,932,cs),
(183,801,o),
(108,591,o),
(108,366,cs),
(108,142,o),
(183,-58,o),
(309,-184,cs),
(310,-185,o),
(312,-186,o),
(314,-186,cs)
);
}
);
width = 454;
}
);
note = parenleft;
unicode = 40;
},
{
glyphname = parenright;
lastChange = "2022-10-19 09:14:57 +0000";
layers = (
{
layerId = m01;
shapes = (
{
closed = 1;
nodes = (
(58,-186,ls),
(52,-186,o),
(48,-183,o),
(48,-180,cs),
(48,-178,o),
(49,-176,o),
(50,-175,cs),
(188,-32,o),
(258,164,o),
(258,366,cs),
(258,569,o),
(188,778,o),
(36,923,cs),
(34,924,o),
(33,927,o),
(33,929,cs),
(33,930,ls),
(33,932,o),
(37,934,o),
(43,934,cs),
(125,934,ls),
(127,934,o),
(129,933,o),
(130,932,cs),
(271,801,o),
(346,591,o),
(346,366,cs),
(346,142,o),
(271,-58,o),
(145,-184,cs),
(144,-185,o),
(142,-186,o),
(140,-186,cs)
);
}
);
width = 454;
}
);
note = parenright;
unicode = 41;
},
{
glyphname = asterisk;
lastChange = "2022-10-19 09:15:16 +0000";
layers = (
{
layerId = m01;
shapes = (
{
closed = 1;
nodes = (
(281,728,ls),
(281,732,o),
(279,734,o),
(276,734,cs),
(212,734,ls),
(209,734,o),
(207,732,o),
(207,728,cs),
(219,613,ls),
(220,599,o),
(207,593,o),
(197,600,cs),
(103,668,ls),
(101,670,o),
(96,669,o),
(95,666,cs),
(64,609,ls),
(63,606,o),
(64,603,o),
(67,602,cs),
(167,561,ls),
(180,556,o),
(181,540,o),
(167,534,cs),
(67,492,ls),
(64,491,o),
(63,488,o),
(64,485,cs),
(97,427,ls),
(98,424,o),
(103,423,o),
(105,425,cs),
(196,492,ls),
(206,500,o),
(219,494,o),
(218,480,cs),
(207,366,ls),
(207,362,o),
(209,360,o),
(212,360,cs),
(275,360,ls),
(278,360,o),
(280,362,o),
(280,366,cs),
(268,480,ls),
(267,494,o),
(280,501,o),
(290,493,cs),
(381,427,ls),
(383,425,o),
(388,425,o),
(389,428,cs),
(421,485,ls),
(422,488,o),
(421,491,o),
(418,492,cs),
(316,534,ls),
(302,540,o),
(303,555,o),
(316,561,cs),
(418,603,ls),
(421,604,o),
(421,607,o),
(420,610,cs),
(390,665,ls),
(389,668,o),
(384,668,o),
(382,666,cs),
(291,600,ls),
(280,592,o),
(268,600,o),
(269,613,cs)
);
}
);
width = 486;
}
);
note = asterisk;
unicode = 42;
},
{
glyphname = plus;
lastChange = "2022-10-19 09:15:31 +0000";
layers = (
{
layerId = m01;
shapes = (
{
closed = 1;
nodes = (
(304,621,ls),
(301,621,o),
(299,619,o),
(299,616,cs),
(299,414,ls),
(299,408,o),
(295,404,o),
(289,404,cs),
(92,404,ls),
(89,404,o),
(87,402,o),
(87,399,cs),
(87,332,ls),
(87,329,o),
(89,327,o),
(92,327,cs),
(289,327,ls),
(295,327,o),
(299,323,o),
(299,317,cs),
(299,116,ls),
(299,113,o),
(301,111,o),
(304,111,cs),
(379,111,ls),
(382,111,o),
(384,113,o),
(384,116,cs),
(384,317,ls),
(384,323,o),
(388,327,o),
(394,327,cs),
(592,327,ls),
(595,327,o),
(597,329,o),
(597,332,cs),
(597,399,ls),
(597,402,o),
(595,404,o),
(592,404,cs),
(394,404,ls),
(388,404,o),
(384,408,o),
(384,414,cs),
(384,616,ls),
(384,619,o),
(382,621,o),
(379,621,cs)
);
}
);
width = 683;
}
);
note = plus;
unicode = 43;
},
{
glyphname = comma;
lastChange = "2022-10-19 09:15:42 +0000";
layers = (
{
layerId = m01;
shapes = (
{
closed = 1;
nodes = (
(2,-129,ls),
(0,-136,o),
(6,-143,o),
(13,-143,cs),
(53,-143,ls),
(56,-143,o),
(60,-141,o),
(61,-137,cs),
(164,110,ls),
(167,118,o),
(162,126,o),
(153,126,cs),
(78,126,ls),
(74,126,o),
(70,124,o),
(69,119,cs)
);
}
);
width = 198;
}
);
note = comma;
unicode = 44;
},
{
glyphname = hyphen;
lastChange = "2022-10-19 09:15:49 +0000";
layers = (
{
layerId = m01;
shapes = (
{
closed = 1;
nodes = (
(58,291,ls),
(58,285,o),
(62,281,o),
(68,281,cs),
(447,281,ls),
(453,281,o),
(457,285,o),
(457,291,cs),
(457,348,ls),
(457,354,o),
(453,358,o),
(447,358,cs),
(68,358,ls),
(62,358,o),
(58,354,o),
(58,348,cs)
);
}
);
width = 551;
}
);
note = hyphen;
unicode = 45;
},
{
glyphname = period;
layers = (
{
layerId = m01;
shapes = (
{
closed = 1;
nodes = (
(166,91,o),
(139,118,o),
(106,118,cs),
(71,118,o),
(44,91,o),
(44,56,cs),
(44,21,o),
(71,-6,o),
(106,-6,cs),
(139,-6,o),
(166,21,o),
(166,56,cs)
);
}
);
width = 210;
}
);
note = period;
unicode = 46;
},
{
glyphname = slash;
lastChange = "2022-10-19 09:15:56 +0000";
layers = (
{
layerId = m01;
shapes = (
{
closed = 1;
nodes = (
(56,-156,ls),
(54,-164,o),
(60,-170,o),
(67,-170,cs),
(136,-170,ls),
(140,-170,o),
(144,-168,o),
(145,-163,cs),
(414,928,ls),
(416,936,o),
(410,942,o),
(403,942,cs),
(333,942,ls),
(329,942,o),
(325,940,o),
(324,935,cs)
);
}
);
width = 476;
}
);
note = slash;
unicode = 47;
},
{
glyphname = zero;
layers = (
{
layerId = m01;
shapes = (
{
closed = 1;
nodes = (
(62,159,o),
(114,0,o),
(314,0,cs),
(513,0,o),
(565,159,o),
(565,369,cs),
(565,576,o),
(513,734,o),
(314,734,cs),
(114,734,o),
(62,576,o),
(62,369,cs)
);
},
{
closed = 1;
nodes = (
(475,213,o),
(456,83,o),
(314,83,cs),
(171,83,o),
(152,213,o),
(152,369,cs),
(152,519,o),
(171,651,o),
(314,651,cs),
(456,651,o),
(475,519,o),
(475,369,cs)
);
}
);
width = 628;
}
);
note = zero;
unicode = 48;
},
{
glyphname = one;
lastChange = "2022-10-17 09:27:12 +0000";
layers = (
{
layerId = m01;
shapes = (
{
closed = 1;
nodes = (
(134,10,ls),
(134,4,o),
(138,0,o),
(144,0,cs),
(216,0,ls),
(222,0,o),
(226,4,o),
(226,10,cs),
(226,688,ls),
(226,710,o),
(213,723,o),
(191,723,cs),
(72,723,l),
(38,640,l),
(99,640,ls),
(121,640,o),
(134,627,o),
(134,605,cs)
);
}
);
width = 320;
}
);
note = one;
unicode = 49;
},
{
glyphname = two;
lastChange = "2022-10-17 09:27:12 +0000";
layers = (
{
layerId = m01;
shapes = (
{
closed = 1;
nodes = (
(51,18,ls),
(51,12,o),
(55,8,o),
(61,8,cs),
(522,8,ls),
(528,8,o),
(532,12,o),
(532,18,cs),
(532,49,ls),
(532,71,o),
(519,84,o),
(497,84,cs),
(207,84,ls),
(198,84,o),
(196,90,o),
(203,96,cs),
(332,201,o),
(511,349,o),
(511,522,cs),
(511,656,o),
(423,736,o),
(287,736,cs),
(160,736,o),
(64,660,o),
(55,512,cs),
(54,506,o),
(58,502,o),
(64,502,cs),
(109,502,ls),
(131,502,o),
(142,513,o),
(146,535,cs),
(159,608,o),
(206,658,o),
(288,658,cs),
(386,658,o),
(421,598,o),
(421,518,cs),
(421,372,o),
(245,229,o),
(57,78,cs),
(53,74,o),
(51,70,o),
(51,65,cs)
);
}
);
width = 575;
}
);
note = two;
unicode = 50;
},
{
glyphname = three;
lastChange = "2022-10-17 09:27:12 +0000";
layers = (
{
layerId = m01;
shapes = (
{
closed = 1;
nodes = (
(118,541,ls),
(139,541,o),
(149,551,o),
(156,572,cs),
(174,625,o),
(222,659,o),
(294,659,cs),
(381,659,o),
(427,611,o),
(427,542,cs),
(427,458,o),
(362,421,o),
(241,420,cs),
(225,420,o),
(217,407,o),
(217,385,cs),
(217,379,ls),
(217,357,o),
(225,344,o),
(240,344,cs),
(370,344,o),
(441,305,o),
(441,203,cs),
(441,129,o),
(395,72,o),
(298,72,cs),
(215,72,o),
(162,116,o),
(143,177,cs),
(137,197,o),
(126,208,o),
(105,208,cs),
(60,208,ls),
(54,208,o),
(49,204,o),
(50,197,cs),
(65,64,o),
(165,-5,o),
(299,-5,cs),
(450,-5,o),
(528,83,o),
(528,195,cs),
(528,299,o),
(471,361,o),
(387,381,c),
(387,384,ls),
(387,385,o),
(397,387,o),
(416,395,cs),
(476,421,o),
(515,479,o),
(515,551,cs),
(515,655,o),
(438,737,o),
(297,737,cs),
(167,737,o),
(74,669,o),
(61,552,cs),
(60,545,o),
(65,541,o),
(71,541,cs)
);
}
);
width = 589;
}
);
note = three;
unicode = 51;
},
{
glyphname = four;
lastChange = "2022-10-17 09:27:12 +0000";
layers = (
{
layerId = m01;
shapes = (
{
closed = 1;
nodes = (
(410,10,ls),
(410,4,o),
(414,0,o),
(420,0,cs),
(490,0,ls),
(496,0,o),
(500,4,o),
(500,10,cs),
(500,151,ls),
(500,157,o),
(504,161,o),
(510,161,cs),
(590,161,ls),
(596,161,o),
(600,165,o),
(600,171,cs),
(600,230,ls),
(600,236,o),
(596,240,o),
(590,240,cs),
(535,240,ls),
(513,240,o),
(500,253,o),
(500,275,cs),
(500,706,ls),
(500,712,o),
(496,716,o),
(490,716,cs),
(399,716,ls),
(394,716,o),
(390,715,o),
(387,710,cs),
(44,236,ls),
(41,232,o),
(40,228,o),
(40,223,cs),
(40,171,ls),
(40,165,o),
(44,161,o),
(50,161,cs),
(400,161,ls),
(406,161,o),
(410,157,o),
(410,151,cs)
);
},
{
closed = 1;
nodes = (
(160,240,ls),
(152,240,o),
(149,246,o),
(154,252,cs),
(402,604,ls),
(407,612,o),
(414,609,o),
(414,600,cs),
(414,250,ls),
(414,244,o),
(410,240,o),
(404,240,cs)
);
}
);
width = 629;
}
);
note = four;
unicode = 52;
},
{
glyphname = five;
lastChange = "2022-10-17 09:27:12 +0000";
layers = (
{
layerId = m01;
shapes = (
{
closed = 1;
nodes = (
(98,724,ls),
(92,724,o),
(88,720,o),
(88,714,cs),
(88,326,ls),
(88,320,o),
(92,316,o),
(98,316,cs),
(166,316,ls),
(171,316,o),
(175,318,o),
(177,324,c),
(203,376,o),
(254,411,o),
(324,411,cs),
(429,411,o),
(482,351,o),
(482,248,cs),
(482,149,o),
(433,75,o),
(323,75,cs),
(241,75,o),
(184,117,o),
(164,187,c),
(163,193,o),
(159,196,o),
(153,196,cs),
(84,196,ls),
(77,196,o),
(74,192,o),
(75,185,cs),
(96,74,o),
(182,-2,o),
(322,-2,cs),
(491,-2,o),
(569,110,o),
(569,250,cs),
(569,362,o),
(513,489,o),
(337,489,cs),
(274,489,o),
(217,464,o),
(184,430,cs),
(177,423,o),
(172,425,o),
(172,434,cs),
(172,634,ls),
(172,640,o),
(176,644,o),
(182,644,cs),
(488,644,ls),
(510,644,o),
(523,657,o),
(523,679,cs),
(523,724,l)
);
}
);
width = 628;
}
);
note = five;
unicode = 53;
},
{
glyphname = six;
lastChange = "2022-10-17 09:27:12 +0000";
layers = (
{
layerId = m01;
shapes = (
{
closed = 1;
nodes = (
(538,551,ls),
(544,551,o),
(549,555,o),
(548,562,cs),
(532,658,o),
(462,738,o),
(329,738,cs),
(146,738,o),
(73,598,o),
(73,371,cs),
(73,152,o),
(124,-2,o),
(338,-2,cs),
(496,-2,o),
(574,106,o),
(574,238,cs),
(574,390,o),
(483,479,o),
(348,479,cs),
(262,479,o),
(183,439,o),
(152,368,c),
(151,583,o),
(213,662,o),
(328,662,cs),
(398,662,o),
(438,633,o),
(457,581,cs),
(464,561,o),
(476,551,o),
(496,551,cs)
);
},
{
closed = 1;
nodes = (
(433,402,o),
(486,337,o),
(486,235,cs),
(486,137,o),
(427,74,o),
(333,74,cs),
(219,74,o),
(163,149,o),
(163,245,cs),
(163,353,o),
(246,402,o),
(329,402,cs)
);
}
);
width = 635;
}
);
note = six;
unicode = 54;
},
{
glyphname = seven;
lastChange = "2022-10-17 09:27:12 +0000";
layers = (
{
layerId = m01;
shapes = (
{
closed = 1;
nodes = (
(43,721,ls),
(37,721,o),
(33,717,o),
(33,711,cs),
(33,678,ls),
(33,656,o),
(46,643,o),
(68,643,cs),
(374,643,ls),
(400,643,o),
(412,627,o),
(401,602,cs),
(142,12,ls),
(139,5,o),
(143,0,o),
(150,0,cs),
(221,0,ls),
(226,0,o),
(230,2,o),
(232,8,cs),
(498,631,ls),
(504,646,o),
(507,658,o),
(507,674,cs),
(507,687,ls),
(507,709,o),
(494,721,o),
(472,721,cs)
);
}
);
width = 546;
}
);
note = seven;
unicode = 55;
},
{
glyphname = eight;
layers = (
{
layerId = m01;
shapes = (
{
closed = 1;
nodes = (
(113,352,o),
(60,286,o),
(60,195,cs),
(60,64,o),
(163,-20,o),
(315,-20,cs),
(468,-20,o),
(572,64,o),
(572,195,cs),
(572,285,o),
(519,351,o),
(437,376,c),
(508,404,o),
(553,464,o),
(553,542,cs),
(553,647,o),
(472,734,o),
(315,734,cs),
(158,734,o),
(78,648,o),
(78,542,cs),
(78,461,o),
(120,405,o),
(194,376,c)
);
},
{
closed = 1;
nodes = (
(227,406,o),
(166,455,o),
(166,530,cs),
(166,615,o),
(226,658,o),
(315,658,cs),
(406,658,o),
(465,614,o),
(465,531,cs),
(465,456,o),
(404,406,o),
(315,406,cs)
);
},
{
closed = 1;
nodes = (
(410,336,o),
(482,291,o),
(482,198,cs),
(482,114,o),
(418,56,o),
(315,56,cs),
(212,56,o),
(147,113,o),
(147,198,cs),
(147,294,o),
(222,336,o),
(315,336,cs)
);
}
);
width = 631;
}
);
note = eight;
unicode = 56;
},
{
glyphname = nine;
lastChange = "2022-10-17 09:27:12 +0000";
layers = (
{
layerId = m01;
shapes = (
{
closed = 1;
nodes = (
(106,194,ls),
(100,194,o),
(95,190,o),
(96,183,cs),
(110,82,o),
(180,-1,o),
(319,-1,cs),
(509,-1,o),
(564,134,o),
(564,375,cs),
(564,599,o),
(507,737,o),
(311,737,cs),
(155,737,o),
(73,637,o),
(73,499,cs),
(73,346,o),
(172,263,o),
(305,263,cs),
(383,263,o),
(455,298,o),
(484,359,c),
(487,147,o),
(430,75,o),
(324,75,cs),
(252,75,o),
(206,107,o),
(187,164,cs),
(180,184,o),
(169,194,o),
(148,194,cs)
);
},
{
closed = 1;
nodes = (
(212,340,o),
(160,408,o),
(160,501,cs),
(160,597,o),
(219,661,o),
(313,661,cs),
(417,661,o),
(473,592,o),
(473,494,cs),
(473,397,o),
(407,340,o),
(320,340,cs)
);
}
);
width = 630;
}
);
note = nine;
unicode = 57;
},
{
glyphname = colon;
layers = (
{
layerId = m01;
shapes = (
{
closed = 1;
nodes = (
(166,91,o),
(139,118,o),
(106,118,cs),
(71,118,o),
(44,91,o),
(44,56,cs),
(44,21,o),
(71,-6,o),
(106,-6,cs),
(139,-6,o),
(166,21,o),
(166,56,cs)
);
},
{
closed = 1;
nodes = (
(166,519,o),
(139,546,o),
(106,546,cs),
(71,546,o),
(44,519,o),
(44,484,cs),
(44,449,o),
(71,422,o),
(106,422,cs),
(139,422,o),
(166,449,o),
(166,484,cs)
);
}
);
width = 213;
}
);
note = colon;
unicode = 58;
},
{
glyphname = semicolon;
lastChange = "2022-10-19 09:16:06 +0000";
layers = (
{
layerId = m01;
shapes = (
{
closed = 1;
nodes = (
(190,520,o),
(163,547,o),
(130,547,cs),
(95,547,o),
(68,520,o),
(68,485,cs),
(68,450,o),
(95,423,o),
(130,423,cs),
(163,423,o),
(190,450,o),
(190,485,cs)
);
},
{
closed = 1;
nodes = (
(27,-129,ls),
(25,-136,o),
(31,-143,o),
(38,-143,cs),
(78,-143,ls),
(81,-143,o),
(85,-141,o),
(86,-137,cs),
(189,110,ls),
(192,118,o),
(187,126,o),
(178,126,cs),
(103,126,ls),
(99,126,o),
(95,124,o),
(94,119,cs)
);
}
);
width = 264;
}
);
note = semicolon;
unicode = 59;
},
{
glyphname = less;
lastChange = "2022-10-19 09:16:23 +0000";
layers = (
{
layerId = m01;
shapes = (
{
closed = 1;
nodes = (
(206,358,ls),
(201,363,o),
(201,369,o),
(206,374,cs),
(427,582,ls),
(432,587,o),
(429,595,o),
(422,595,cs),
(327,595,ls),
(326,595,o),
(325,594,o),
(324,594,cs),
(92,373,ls),
(87,368,o),
(87,363,o),
(92,358,cs),
(324,137,ls),
(325,137,o),
(326,136,o),
(327,136,cs),
(422,136,ls),
(429,136,o),
(432,144,o),
(427,149,cs)
);
}
);
width = 555;
}
);
note = less;
unicode = 60;
},
{
glyphname = equal;
lastChange = "2022-10-19 09:16:29 +0000";
layers = (
{
layerId = m01;
shapes = (
{
closed = 1;
nodes = (
(101,230,ls),
(101,224,o),
(105,220,o),
(111,220,cs),
(611,220,ls),
(617,220,o),
(621,224,o),
(621,230,cs),
(621,287,ls),
(621,293,o),
(617,297,o),
(611,297,cs),
(111,297,ls),
(105,297,o),
(101,293,o),
(101,287,cs)
);
},
{
closed = 1;
nodes = (
(101,445,ls),
(101,439,o),
(105,435,o),
(111,435,cs),
(611,435,ls),
(617,435,o),
(621,439,o),
(621,445,cs),
(621,502,ls),
(621,508,o),
(617,512,o),
(611,512,cs),
(111,512,ls),
(105,512,o),
(101,508,o),
(101,502,cs)
);
}
);
width = 723;
}
);
note = equal;
unicode = 61;
},
{
glyphname = greater;
lastChange = "2022-10-19 09:16:41 +0000";
layers = (
{
layerId = m01;
shapes = (
{
closed = 1;
nodes = (
(107,149,ls),
(102,144,o),
(105,136,o),
(112,136,cs),
(207,136,ls),
(208,136,o),
(210,137,o),
(210,137,cs),
(443,358,ls),
(448,363,o),
(448,369,o),
(443,374,cs),
(210,594,ls),
(210,594,o),
(208,595,o),
(207,595,cs),
(112,595,ls),
(105,595,o),
(102,587,o),
(107,582,cs),
(328,374,ls),
(333,369,o),
(333,363,o),
(328,358,cs)
);
}
);
width = 539;
}
);
note = greater;
unicode = 62;
},
{
glyphname = question;
lastChange = "2022-10-19 09:16:57 +0000";
layers = (
{
layerId = m01;
shapes = (
{
closed = 1;
nodes = (
(113,505,ls),
(118,505,o),
(123,509,o),
(123,515,cs),
(127,587,o),
(178,630,o),
(256,630,cs),
(337,630,o),
(389,580,o),
(389,500,cs),
(389,379,o),
(292,357,o),
(178,357,cs),
(149,357,l),
(153,209,ls),
(153,204,o),
(158,199,o),
(163,199,cs),
(222,199,ls),
(227,199,o),
(232,204,o),
(232,209,cs),
(235,294,l),
(375,294,o),
(476,354,o),
(476,500,cs),
(476,627,o),
(386,706,o),
(255,706,cs),
(128,706,o),
(41,631,o),
(37,515,cs),
(37,509,o),
(41,505,o),
(47,505,cs)
);
},
{
closed = 1;
nodes = (
(252,91,o),
(225,118,o),
(192,118,cs),
(157,118,o),
(130,91,o),
(130,56,cs),
(130,21,o),
(157,-6,o),
(192,-6,cs),
(225,-6,o),
(252,21,o),
(252,56,cs)
);
}
);
width = 524;
}
);
note = question;
unicode = 63;
},
{
glyphname = at;
lastChange = "2022-10-19 09:21:58 +0000";
layers = (
{
layerId = m01;
shapes = (
{
closed = 1;
nodes = (
(866,-12,o),
(945,151,o),
(945,307,cs),
(945,508,o),
(806,646,o),
(577,646,cs),
(280,646,o),
(67,421,o),
(67,133,cs),
(67,-73,o),
(212,-204,o),
(431,-204,cs),
(498,-204,o),
(565,-193,o),
(624,-169,cs),
(627,-168,o),
(629,-165,o),
(630,-162,cs),
(633,-122,o),
(604,-101,o),
(572,-111,cs),
(532,-124,o),
(489,-129,o),
(449,-129,cs),
(263,-129,o),
(152,-35,o),
(153,141,cs),
(153,384,o),
(326,572,o),
(566,572,cs),
(755,572,o),
(861,474,o),
(861,302,cs),
(861,198,o),
(819,60,o),
(737,60,cs),
(690,60,o),
(683,93,o),
(692,149,cs),
(734,394,ls),
(738,421,o),
(720,444,o),
(692,444,cs),
(662,444,ls),
(657,444,o),
(654,440,o),
(653,436,cs),
(645,392,l),
(620,433,o),
(578,454,o),
(519,454,cs),
(370,454,o),
(268,316,o),
(268,165,cs),
(268,59,o),
(330,-12,o),
(436,-12,cs),
(503,-12,o),
(569,20,o),
(612,73,c),
(621,22,o),
(657,-12,o),
(723,-12,cs)
);
},
{
closed = 1;
nodes = (
(616,146,o),
(549,69,o),
(463,69,cs),
(396,69,o),
(363,113,o),
(363,179,cs),
(363,277,o),
(422,374,o),
(519,374,cs),
(594,374,o),
(628,319,o),
(622,247,cs)
);
}
);
width = 1013;
}
);
note = at;
unicode = 64;
},
{
glyphname = A;
lastChange = "2022-10-17 09:27:12 +0000";
layers = (
{
layerId = m01;
shapes = (
{
closed = 1;
nodes = (
(535,28,ls),
(542,9,o),
(555,0,o),
(575,0,cs),
(629,0,ls),
(636,0,o),
(639,4,o),
(637,11,cs),
(400,665,ls),
(393,684,o),
(380,693,o),
(360,693,cs),
(315,693,ls),
(295,693,o),
(282,684,o),
(275,665,cs),
(37,11,ls),
(35,4,o),
(38,0,o),
(45,0,cs),
(99,0,ls),
(119,0,o),
(132,9,o),
(139,28,cs),
(182,147,ls),
(184,153,o),
(189,155,o),
(194,155,cs),
(480,155,ls),
(485,155,o),
(490,153,o),
(492,147,cs)
);
},
{
closed = 1;
nodes = (
(459,240,ls),
(461,233,o),
(458,229,o),
(451,229,cs),
(223,229,ls),
(216,229,o),
(213,233,o),
(215,240,cs),
(330,563,ls),
(333,571,o),
(341,571,o),
(344,563,cs)
);
}
);
width = 674;
}
);
note = A;
unicode = 65;
},
{
glyphname = B;
lastChange = "2022-10-17 09:27:12 +0000";
layers = (
{
layerId = m01;
shapes = (
{
closed = 1;
nodes = (
(473,120,o),
(419,75,o),
(329,75,cs),
(168,75,l),
(168,286,ls),
(168,308,o),
(181,321,o),
(203,321,cs),
(326,321,ls),
(415,321,o),
(473,273,o),
(473,196,cs)
);
},
{
closed = 1;
nodes = (
(455,438,o),
(406,396,o),
(321,396,cs),
(168,396,l),
(168,587,ls),
(168,609,o),
(181,622,o),
(203,622,cs),
(319,622,ls),
(408,622,o),
(455,578,o),
(455,509,cs)
);
},
{
closed = 1;
nodes = (
(564,273,o),
(502,346,o),
(426,359,c),
(493,381,o),
(548,432,o),
(548,520,cs),
(548,617,o),
(474,697,o),
(327,697,cs),
(87,697,ls),
(81,697,o),
(77,693,o),
(77,687,cs),
(77,10,ls),
(77,4,o),
(81,0,o),
(87,0,cs),
(337,0,ls),
(481,0,o),
(564,82,o),
(564,187,cs)
);
}
);
width = 613;
}
);
note = B;
unicode = 66;
},
{
glyphname = C;
lastChange = "2022-10-17 09:27:12 +0000";
layers = (
{
layerId = m01;
shapes = (
{
closed = 1;
nodes = (
(43,140,o),
(196,-6,o),
(391,-6,cs),
(538,-6,o),
(655,65,o),
(709,191,cs),
(712,198,o),
(708,203,o),
(701,203,cs),
(633,203,ls),
(614,203,o),
(602,195,o),
(592,178,cs),
(551,111,o),
(482,73,o),
(391,73,cs),
(245,73,o),
(136,179,o),
(136,349,cs),
(136,520,o),
(245,626,o),
(391,626,cs),
(482,626,o),
(551,588,o),
(592,520,cs),
(602,503,o),
(614,495,o),
(633,495,cs),
(701,495,ls),
(708,495,o),
(712,500,o),
(709,507,cs),
(655,634,o),
(538,706,o),
(391,706,cs),
(196,706,o),
(43,558,o),
(43,349,cs)
);
}
);
width = 772;
}
);
note = C;
unicode = 67;
},
{
glyphname = D;
lastChange = "2022-10-17 09:27:12 +0000";
layers = (
{
layerId = m01;
shapes = (
{
closed = 1;
nodes = (
(112,697,ls),
(90,697,o),
(77,684,o),
(77,662,cs),
(77,10,ls),
(77,4,o),
(81,0,o),
(87,0,cs),
(294,0,ls),
(523,0,o),
(664,131,o),
(664,347,cs),
(664,563,o),
(523,697,o),
(294,697,cs)
);
},
{
closed = 1;
nodes = (
(178,75,ls),
(172,75,o),
(168,79,o),
(168,85,cs),
(168,588,ls),
(168,610,o),
(181,623,o),
(203,623,cs),
(294,623,ls),
(476,623,o),
(571,517,o),
(571,347,cs),
(571,177,o),
(476,75,o),
(294,75,cs)
);
}
);
width = 707;
}
);
note = D;
unicode = 68;
},
{
glyphname = E;
lastChange = "2022-10-17 09:27:12 +0000";
layers = (
{
layerId = m01;
shapes = (
{
closed = 1;
nodes = (
(452,688,ls),
(452,694,o),
(448,698,o),
(442,698,cs),
(87,698,ls),
(81,698,o),
(77,694,o),
(77,688,cs),
(77,10,ls),
(77,4,o),
(81,0,o),
(87,0,cs),
(442,0,ls),
(448,0,o),
(452,4,o),
(452,10,cs),
(452,40,ls),
(452,62,o),
(439,75,o),
(417,75,cs),
(178,75,ls),
(172,75,o),
(168,79,o),
(168,85,cs),
(168,305,ls),
(168,311,o),
(172,315,o),
(178,315,cs),
(412,315,ls),
(418,315,o),
(422,319,o),
(422,325,cs),
(422,380,ls),
(422,386,o),
(418,390,o),
(412,390,cs),
(178,390,ls),
(172,390,o),
(168,394,o),
(168,400,cs),
(168,613,ls),
(168,619,o),
(172,623,o),
(178,623,cs),
(417,623,ls),
(439,623,o),
(452,636,o),
(452,658,cs)
);
}
);
width = 513;
}
);
note = E;
unicode = 69;
},
{
glyphname = F;
lastChange = "2022-10-17 09:27:12 +0000";
layers = (
{
layerId = m01;
shapes = (
{
closed = 1;
nodes = (
(77,10,ls),
(77,4,o),
(81,0,o),
(87,0,cs),
(158,0,ls),
(164,0,o),
(168,4,o),
(168,10,cs),
(168,304,ls),
(168,310,o),
(172,314,o),
(178,314,cs),
(404,314,ls),
(410,314,o),
(414,318,o),
(414,324,cs),
(414,378,ls),
(414,384,o),
(410,388,o),
(404,388,cs),
(178,388,ls),
(172,388,o),
(168,392,o),
(168,398,cs),
(168,588,ls),
(168,610,o),
(181,623,o),
(203,623,cs),
(436,623,ls),
(458,623,o),
(471,636,o),
(471,658,cs),
(471,687,ls),
(471,693,o),
(467,697,o),
(461,697,cs),
(112,697,ls),
(90,697,o),
(77,684,o),
(77,662,cs)
);
}
);
width = 504;
}
);
note = F;
unicode = 70;
},
{
glyphname = G;
lastChange = "2022-10-17 09:27:12 +0000";
layers = (
{
layerId = m01;
shapes = (
{
closed = 1;
nodes = (
(197,705,o),
(43,558,o),
(43,349,cs),
(43,140,o),
(197,-6,o),
(393,-6,cs),
(582,-6,o),
(719,133,o),
(735,306,c),
(735,366,ls),
(735,372,o),
(731,376,o),
(725,376,cs),
(395,376,ls),
(373,376,o),
(360,363,o),
(360,341,cs),
(360,312,ls),
(360,306,o),
(364,302,o),
(370,302,cs),
(627,302,ls),
(633,302,o),
(638,298,o),
(637,291,cs),
(619,159,o),
(526,76,o),
(393,76,cs),
(246,76,o),
(136,182,o),
(136,349,cs),
(136,517,o),
(246,623,o),
(393,623,cs),
(488,623,o),
(562,579,o),
(601,502,cs),
(604,497,o),
(608,495,o),
(613,495,cs),
(701,495,ls),
(708,495,o),
(712,500,o),
(709,507,cs),
(655,633,o),
(536,705,o),
(393,705,cs)
);
}
);
width = 778;
}
);
note = G;
unicode = 71;
},
{
glyphname = H;
lastChange = "2022-10-17 09:27:12 +0000";
layers = (
{
layerId = m01;
shapes = (
{
closed = 1;
nodes = (
(523,25,ls),
(523,9,o),
(532,0,o),
(548,0,cs),
(604,0,ls),
(610,0,o),
(614,4,o),
(614,10,cs),
(614,687,ls),
(614,693,o),
(610,697,o),
(604,697,cs),
(533,697,ls),
(527,697,o),
(523,693,o),
(523,687,cs),
(523,416,ls),
(523,400,o),
(514,391,o),
(498,391,cs),
(178,391,ls),
(172,391,o),
(168,395,o),
(168,401,cs),
(168,672,ls),
(168,688,o),
(159,697,o),
(143,697,cs),
(87,697,ls),
(81,697,o),
(77,693,o),
(77,687,cs),
(77,10,ls),
(77,4,o),
(81,0,o),
(87,0,cs),
(158,0,ls),
(164,0,o),
(168,4,o),
(168,10,cs),
(168,291,ls),
(168,307,o),
(177,316,o),
(193,316,cs),
(513,316,ls),
(519,316,o),
(523,312,o),
(523,306,cs)
);
}
);
width = 691;
}
);
note = H;
unicode = 72;
},
{
glyphname = I;
layers = (
{
layerId = m01;
shapes = (
{
closed = 1;
nodes = (
(77,0,l),
(168,0,l),
(168,697,l),
(77,697,l)
);
}
);
width = 246;
}
);
note = I;
unicode = 73;
},
{
glyphname = J;
lastChange = "2022-10-17 09:27:12 +0000";
layers = (
{
layerId = m01;
shapes = (
{
closed = 1;
nodes = (
(336,182,ls),
(336,124,o),
(307,74,o),
(235,74,cs),
(176,74,o),
(145,108,o),
(135,156,cs),
(131,178,o),
(121,189,o),
(99,189,cs),
(51,189,ls),
(45,189,o),
(41,185,o),
(41,179,cs),
(45,63,o),
(122,-7,o),
(235,-7,cs),
(350,-7,o),
(428,66,o),
(428,182,cs),
(428,687,ls),
(428,693,o),
(424,697,o),
(418,697,cs),
(371,697,ls),
(349,697,o),
(336,684,o),
(336,662,cs)
);
}
);
width = 530;
}
);
note = J;
unicode = 74;
},
{
glyphname = K;
lastChange = "2022-10-17 09:27:12 +0000";
layers = (
{
layerId = m01;
shapes = (
{
closed = 1;
nodes = (
(450,5,ls),
(453,1,o),
(457,0,o),
(462,0,cs),
(557,0,ls),
(565,0,o),
(569,5,o),
(563,12,cs),
(261,341,ls),
(257,346,o),
(257,351,o),
(261,355,cs),
(560,685,ls),
(566,691,o),
(562,697,o),
(554,697,cs),
(482,697,ls),
(464,697,o),
(451,691,o),
(439,678,cs),
(180,388,ls),
(174,381,o),
(168,383,o),
(168,392,cs),
(168,662,ls),
(168,684,o),
(155,697,o),
(133,697,cs),
(87,697,ls),
(81,697,o),
(77,693,o),
(77,687,cs),
(77,35,ls),
(77,13,o),
(90,0,o),
(112,0,cs),
(158,0,ls),
(164,0,o),
(168,4,o),
(168,10,cs),
(168,300,ls),
(168,309,o),
(174,311,o),
(180,304,cs)
);
}
);
width = 599;
}
);
note = K;
unicode = 75;
},
{
glyphname = L;
lastChange = "2022-10-17 09:27:12 +0000";
layers = (
{
layerId = m01;
shapes = (
{
closed = 1;
nodes = (
(87,697,ls),
(81,697,o),
(77,693,o),
(77,687,cs),
(77,10,ls),
(77,4,o),
(81,0,o),
(87,0,cs),
(402,0,ls),
(408,0,o),
(412,4,o),
(412,10,cs),
(412,39,ls),
(412,61,o),
(399,74,o),
(377,74,cs),
(203,74,ls),
(181,74,o),
(168,87,o),
(168,109,cs),
(168,662,ls),
(168,684,o),
(155,697,o),
(133,697,cs)
);
}
);
width = 432;
}
);
note = L;
unicode = 76;
},
{
glyphname = M;
lastChange = "2022-10-17 09:27:12 +0000";
layers = (
{
layerId = m01;
shapes = (
{
closed = 1;
nodes = (
(77,10,ls),
(77,4,o),
(81,0,o),
(87,0,cs),
(133,0,ls),
(155,0,o),
(168,13,o),
(168,35,cs),
(168,517,l),
(387,26,ls),
(395,7,o),
(409,0,o),
(428,0,cs),
(434,0,ls),
(453,0,o),
(467,7,o),
(475,26,cs),
(693,516,l),
(693,35,ls),
(693,13,o),
(706,0,o),
(728,0,cs),
(774,0,ls),
(780,0,o),
(784,4,o),
(784,10,cs),
(784,682,ls),
(784,688,o),
(780,692,o),
(774,692,cs),
(716,692,ls),
(697,692,o),
(683,685,o),
(675,666,cs),
(455,173,ls),
(443,145,o),
(419,145,o),
(407,173,cs),
(187,666,ls),
(179,685,o),
(165,692,o),
(146,692,cs),
(87,692,ls),
(81,692,o),
(77,688,o),
(77,682,cs)
);
}
);
width = 861;
}
);
note = M;
unicode = 77;
},
{
glyphname = N;
lastChange = "2022-10-20 03:47:14 +0000";
layers = (
{
layerId = m01;
shapes = (
{
closed = 1;
nodes = (
(569,698,ls),
(547,698,o),
(534,685,o),
(534,663,cs),
(534,166,ls),
(534,157,o),
(527,154,o),
(522,162,cs),
(183,675,ls),
(173,691,o),
(160,698,o),
(141,698,cs),
(87,698,ls),
(81,698,o),
(77,694,o),
(77,688,cs),
(77,10,ls),
(77,4,o),
(81,0,o),
(87,0,cs),
(133,0,ls),
(155,0,o),
(168,13,o),
(168,35,cs),
(168,533,ls),
(168,542,o),
(175,545,o),
(180,537,cs),
(519,23,ls),
(529,7,o),
(542,0,o),
(561,0,cs),
(615,0,ls),
(621,0,o),
(625,4,o),
(625,10,cs),
(625,688,ls),
(625,694,o),
(621,698,o),
(615,698,cs)
);
}
);
width = 703;
}
);
note = N;
unicode = 78;
},
{
glyphname = O;
layers = (
{
layerId = m01;
shapes = (
{
closed = 1;
nodes = (
(743,558,o),
(590,705,o),
(393,705,cs),
(197,705,o),
(43,558,o),
(43,349,cs),
(43,140,o),
(197,-7,o),
(393,-7,cs),
(590,-7,o),
(743,140,o),
(743,349,cs)
);
},
{
closed = 1;
nodes = (
(136,520,o),
(246,626,o),
(393,626,cs),
(540,626,o),
(650,520,o),
(650,349,cs),
(650,179,o),
(540,72,o),
(393,72,cs),
(246,72,o),
(136,179,o),
(136,349,cs)
);
}
);
width = 786;
}
);
note = O;
unicode = 79;
},
{
glyphname = P;
lastChange = "2022-10-17 09:27:12 +0000";
layers = (
{
layerId = m01;
shapes = (
{
closed = 1;
nodes = (
(168,366,l),
(168,587,ls),
(168,609,o),
(181,622,o),
(203,622,cs),
(302,622,ls),
(406,622,o),
(450,574,o),
(450,493,cs),
(450,415,o),
(406,366,o),
(302,366,cs)
);
},
{
closed = 1;
nodes = (
(543,607,o),
(466,697,o),
(302,697,cs),
(112,697,ls),
(90,697,o),
(77,684,o),
(77,662,cs),
(77,10,ls),
(77,4,o),
(81,0,o),
(87,0,cs),
(133,0,ls),
(155,0,o),
(168,13,o),
(168,35,cs),
(168,291,l),
(302,291,ls),
(475,291,o),
(543,387,o),
(543,493,cs)
);
}
);
width = 579;
}
);
note = P;
unicode = 80;
},
{
glyphname = Q;
lastChange = "2022-10-17 09:29:42 +0000";
layers = (
{
layerId = m01;
shapes = (
{
closed = 1;
nodes = (
(136,520,o),
(246,626,o),
(393,626,cs),
(540,626,o),
(650,520,o),
(650,349,cs),
(650,179,o),
(540,72,o),
(393,72,cs),
(246,72,o),
(136,179,o),
(136,349,cs)
);
},
{
closed = 1;
nodes = (
(743,558,o),
(590,705,o),
(393,705,cs),
(197,705,o),
(43,558,o),
(43,349,cs),
(43,140,o),
(197,-7,o),
(393,-7,cs),
(426,-7,o),
(459,-3,o),
(489,5,cs),
(495,6,o),
(499,5,o),
(503,1,cs),
(618,-114,ls),
(630,-126,o),
(643,-132,o),
(661,-132,cs),
(737,-132,ls),
(746,-132,o),
(749,-127,o),
(742,-120,cs),
(586,35,ls),
(581,40,o),
(582,45,o),
(588,49,cs),
(682,110,o),
(743,217,o),
(743,349,cs)
);
}
);
width = 788;
}
);
note = Q;
unicode = 81;
},
{
glyphname = R;
lastChange = "2022-10-17 09:27:12 +0000";
layers = (
{
layerId = m01;
shapes = (
{
closed = 1;
nodes = (
(450,414,o),
(405,358,o),
(302,358,cs),
(178,358,ls),
(172,358,o),
(168,362,o),
(168,368,cs),
(168,587,ls),
(168,609,o),
(181,622,o),
(203,622,cs),
(302,622,ls),
(406,622,o),
(450,571,o),
(450,492,cs)
);
},
{
closed = 1;
nodes = (
(112,697,ls),
(90,697,o),
(77,684,o),
(77,662,cs),
(77,10,ls),
(77,4,o),
(81,0,o),
(87,0,cs),
(158,0,ls),
(164,0,o),
(168,4,o),
(168,10,cs),
(168,275,ls),
(168,281,o),
(172,285,o),
(178,285,cs),
(270,285,ls),
(275,285,o),
(279,282,o),
(282,278,cs),
(430,24,ls),
(440,8,o),
(453,0,o),
(472,0,cs),
(539,0,ls),
(547,0,o),
(550,5,o),
(546,12,cs),
(384,282,ls),
(380,289,o),
(383,293,o),
(390,295,cs),
(498,324,o),
(544,406,o),
(544,492,cs),
(544,606,o),
(466,697,o),
(302,697,cs)
);
}
);
width = 608;
}
);
note = R;
unicode = 82;
},
{
glyphname = S;
lastChange = "2022-10-17 09:27:12 +0000";
layers = (
{
layerId = m01;
shapes = (
{
closed = 1;
nodes = (
(530,448,o),
(154,336,o),
(154,516,cs),
(154,591,o),
(213,630,o),
(288,628,cs),
(356,627,o),
(397,593,o),
(415,556,cs),
(423,537,o),
(434,527,o),
(454,527,cs),
(512,527,ls),
(518,527,o),
(523,531,o),
(522,538,cs),
(506,638,o),
(421,706,o),
(292,706,cs),
(154,706,o),
(61,628,o),
(61,513,cs),
(61,254,o),
(438,374,o),
(438,186,cs),
(438,120,o),
(386,70,o),
(298,70,cs),
(218,70,o),
(176,109,o),
(161,155,cs),
(154,176,o),
(143,186,o),
(122,186,cs),
(67,186,ls),
(61,186,o),
(57,182,o),
(57,176,cs),
(65,66,o),
(162,-7,o),
(298,-7,cs),
(449,-7,o),
(530,91,o),
(530,190,cs)
);
}
);
width = 587;
}
);
note = S;
unicode = 83;
},
{
glyphname = T;
lastChange = "2022-10-17 09:27:12 +0000";
layers = (
{
layerId = m01;
shapes = (
{
closed = 1;
nodes = (
(34,633,ls),
(34,627,o),
(38,623,o),
(44,623,cs),
(190,623,ls),
(212,623,o),
(225,610,o),
(225,588,cs),
(225,10,ls),
(225,4,o),
(229,0,o),
(235,0,cs),
(306,0,ls),
(312,0,o),
(316,4,o),
(316,10,cs),
(316,588,ls),
(316,610,o),
(329,623,o),
(351,623,cs),
(496,623,ls),
(502,623,o),
(506,627,o),
(506,633,cs),
(506,687,ls),
(506,693,o),
(502,697,o),
(496,697,cs),
(44,697,ls),
(38,697,o),
(34,693,o),
(34,687,cs)
);
}
);
width = 541;
}
);
note = T;
unicode = 84;
},
{
glyphname = U;
lastChange = "2022-10-17 09:27:12 +0000";
layers = (
{
layerId = m01;
shapes = (
{
closed = 1;
nodes = (
(75,257,ls),
(75,76,o),
(193,-7,o),
(337,-7,cs),
(481,-7,o),
(600,76,o),
(600,257,cs),
(600,687,ls),
(600,693,o),
(596,697,o),
(590,697,cs),
(544,697,ls),
(522,697,o),
(509,684,o),
(509,662,cs),
(509,256,ls),
(509,128,o),
(441,73,o),
(338,73,cs),
(235,73,o),
(166,128,o),
(166,256,cs),
(166,662,ls),
(166,684,o),
(153,697,o),
(131,697,cs),
(85,697,ls),
(79,697,o),
(75,693,o),
(75,687,cs)
);
}
);
width = 675;
}
);
note = U;
unicode = 85;
},
{
glyphname = V;
lastChange = "2022-10-17 09:27:12 +0000";
layers = (
{
layerId = m01;
shapes = (
{
closed = 1;
nodes = (
(361,159,ls),
(350,129,o),
(326,129,o),
(315,159,cs),
(127,676,ls),
(122,690,o),
(110,697,o),
(96,697,cs),
(31,697,ls),
(25,697,o),
(23,693,o),
(25,688,cs),
(275,28,ls),
(282,9,o),
(295,0,o),
(315,0,cs),
(360,0,ls),
(380,0,o),
(393,9,o),
(400,28,cs),
(650,688,ls),
(652,693,o),
(650,697,o),
(644,697,cs),
(580,697,ls),
(566,697,o),
(554,690,o),
(549,676,cs)
);
}
);
width = 676;
}
);
note = V;
unicode = 86;
},
{
glyphname = W;
lastChange = "2022-10-17 09:27:12 +0000";
layers = (
{
layerId = m01;
shapes = (
{
closed = 1;
nodes = (
(210,29,ls),
(216,8,o),
(229,-1,o),
(249,-1,cs),
(289,0,ls),
(309,0,o),
(322,10,o),
(328,29,cs),
(464,486,ls),
(474,519,o),
(500,518,o),
(509,485,cs),
(640,29,ls),
(646,9,o),
(660,0,o),
(680,0,cs),
(720,0,ls),
(740,0,o),
(754,9,o),
(760,29,cs),
(950,686,ls),
(952,693,o),
(948,697,o),
(941,697,cs),
(886,697,ls),
(865,697,o),
(852,688,o),
(847,667,cs),
(723,190,ls),
(714,157,o),
(689,157,o),
(680,190,cs),
(550,667,ls),
(545,687,o),
(531,697,o),
(511,697,cs),
(471,697,ls),
(451,697,o),
(438,687,o),
(432,667,cs),
(295,186,ls),
(286,153,o),
(260,154,o),
(251,187,cs),
(128,667,ls),
(123,688,o),
(110,697,o),
(89,697,cs),
(35,697,ls),
(28,697,o),
(24,693,o),
(26,686,cs)
);
}
);
width = 976;
}
);
note = W;
unicode = 87;
},
{
glyphname = X;
lastChange = "2022-10-17 09:27:12 +0000";
layers = (
{
layerId = m01;
shapes = (
{
closed = 1;
nodes = (
(469,7,ls),
(472,3,o),
(476,0,o),
(481,0,cs),
(562,0,ls),
(570,0,o),
(573,5,o),
(569,12,cs),
(377,324,ls),
(367,340,o),
(367,356,o),
(377,372,cs),
(570,685,ls),
(574,692,o),
(571,697,o),
(563,697,cs),
(483,697,ls),
(478,697,o),
(474,694,o),
(471,690,cs),
(339,465,ls),
(325,442,o),
(304,441,o),
(290,464,cs),
(151,690,ls),
(148,694,o),
(144,697,o),
(139,697,cs),
(59,697,ls),
(51,697,o),
(48,692,o),
(52,685,cs),
(244,372,ls),
(254,356,o),
(254,340,o),
(244,324,cs),
(53,12,ls),
(49,5,o),
(52,0,o),
(60,0,cs),
(139,0,ls),
(144,0,o),
(148,3,o),
(151,7,cs),
(282,231,ls),
(296,254,o),
(317,255,o),
(331,232,cs)
);
}
);
width = 621;
}
);
note = X;
unicode = 88;
},
{
glyphname = Y;
lastChange = "2022-10-17 09:27:12 +0000";
layers = (
{
layerId = m01;
shapes = (
{
closed = 1;
nodes = (
(236,283,ls),
(244,269,o),
(247,256,o),
(247,240,cs),
(247,10,ls),
(247,4,o),
(251,0,o),
(257,0,cs),
(328,0,ls),
(334,0,o),
(338,4,o),
(338,10,cs),
(338,240,ls),
(338,256,o),
(341,269,o),
(349,283,cs),
(559,685,ls),
(562,692,o),
(559,697,o),
(552,697,cs),
(472,697,ls),
(467,697,o),
(462,695,o),
(460,690,cs),
(316,393,ls),
(303,367,o),
(281,367,o),
(268,393,cs),
(124,690,ls),
(122,695,o),
(117,697,o),
(112,697,cs),
(32,697,ls),
(25,697,o),
(22,692,o),
(25,685,cs)
);
}
);
width = 584;
}
);
note = Y;
unicode = 89;
},
{
glyphname = Z;
lastChange = "2022-10-17 09:27:12 +0000";
layers = (
{
layerId = m01;
shapes = (
{
closed = 1;
nodes = (
(492,687,ls),
(492,693,o),
(488,697,o),
(482,697,cs),
(60,697,ls),
(54,697,o),
(50,693,o),
(50,687,cs),
(50,653,ls),
(50,631,o),
(63,618,o),
(85,618,cs),
(370,618,ls),
(378,618,o),
(381,613,o),
(377,606,cs),
(50,78,ls),
(48,74,o),
(46,69,o),
(46,65,cs),
(46,10,ls),
(46,4,o),
(50,0,o),
(56,0,cs),
(494,0,l),
(494,44,ls),
(494,66,o),
(481,79,o),
(459,79,cs),
(168,79,ls),
(160,79,o),
(157,84,o),
(161,91,cs),
(488,619,ls),
(490,623,o),
(492,628,o),
(492,632,cs)
);
}
);
width = 541;
}
);
note = Z;
unicode = 90;
},
{
glyphname = bracketleft;
lastChange = "2022-10-19 09:18:48 +0000";
layers = (
{
layerId = m01;
shapes = (
{
closed = 1;
nodes = (
(133,-176,ls),
(133,-182,o),
(137,-186,o),
(143,-186,cs),
(303,-186,ls),
(309,-186,o),
(313,-182,o),
(313,-176,cs),
(313,-120,ls),
(313,-114,o),
(309,-110,o),
(303,-110,cs),
(254,-110,ls),
(234,-110,o),
(218,-94,o),
(218,-74,cs),
(218,823,ls),
(218,843,o),
(234,859,o),
(254,859,cs),
(303,859,ls),
(309,859,o),
(313,863,o),
(313,869,cs),
(313,924,ls),
(313,930,o),
(309,934,o),
(303,934,cs),
(143,934,ls),
(137,934,o),
(133,930,o),
(133,924,cs)
);
}
);
width = 423;
}
);
note = bracketleft;
unicode = 91;
},
{
glyphname = backslash;
layers = (
{
layerId = m01;
shapes = (
{
closed = 1;
nodes = (
(221,942,l),
(131,942,l),
(444,-170,l),
(534,-170,l)
);
}
);
width = 658;
}
);
note = backslash;
unicode = 92;
},
{
glyphname = bracketright;
lastChange = "2022-10-19 09:18:41 +0000";
layers = (
{
layerId = m01;
shapes = (
{
closed = 1;
nodes = (
(290,-176,ls),
(290,-182,o),
(286,-186,o),
(280,-186,cs),
(120,-186,ls),
(114,-186,o),
(110,-182,o),
(110,-176,cs),
(110,-120,ls),
(110,-114,o),
(114,-110,o),
(120,-110,cs),
(169,-110,ls),
(189,-110,o),
(205,-94,o),
(205,-74,cs),
(205,823,ls),
(205,843,o),
(189,859,o),
(169,859,cs),
(120,859,ls),
(114,859,o),
(110,863,o),
(110,869,cs),
(110,924,ls),
(110,930,o),
(114,934,o),
(120,934,cs),
(280,934,ls),
(286,934,o),
(290,930,o),
(290,924,cs)
);
}
);
width = 423;
}
);
note = bracketright;
unicode = 93;
},
{
glyphname = asciicircum;
lastChange = "2022-10-19 09:19:07 +0000";
layers = (
{
layerId = m01;
shapes = (
{
closed = 1;
nodes = (
(496,174,ls),
(497,171,o),
(501,169,o),
(504,169,cs),
(575,169,ls),
(584,169,o),
(589,178,o),
(585,186,cs),
(365,674,ls),
(360,685,o),
(349,693,o),
(337,693,cs),
(293,693,ls),
(281,693,o),
(269,685,o),
(264,674,cs),
(45,186,ls),
(41,178,o),
(46,169,o),
(55,169,cs),
(125,169,ls),
(128,169,o),
(132,171,o),
(133,174,cs),
(271,481,ls),
(290,523,o),
(341,523,o),
(360,481,cs)
);
}
);
width = 629;
}
);
note = asciicircum;
unicode = 94;
},
{
glyphname = underscore;
lastChange = "2022-10-19 09:19:13 +0000";
layers = (
{
layerId = m01;
shapes = (
{
closed = 1;
nodes = (
(105,-112,ls),
(105,-118,o),
(109,-122,o),
(115,-122,cs),
(627,-122,ls),
(633,-122,o),
(637,-118,o),
(637,-112,cs),
(637,-48,ls),
(637,-42,o),
(633,-38,o),
(627,-38,cs),
(115,-38,ls),
(109,-38,o),
(105,-42,o),
(105,-48,cs)
);
}
);
width = 733;
}
);
note = underscore;
unicode = 95;
},
{
glyphname = grave;
lastChange = "2022-10-19 09:19:20 +0000";
layers = (
{
layerId = m01;
shapes = (
{
closed = 1;
nodes = (
(17,708,ls),
(17,705,o),
(19,701,o),
(22,700,cs),
(212,599,ls),
(221,594,o),
(230,600,o),
(230,610,cs),
(230,652,ls),
(230,655,o),
(228,659,o),
(226,660,cs),
(36,771,ls),
(27,777,o),
(17,770,o),
(17,760,cs)
);
}
);
width = 257;
}
);
note = grave;
unicode = 96;
},
{
glyphname = a;
lastChange = "2022-10-17 09:27:12 +0000";
layers = (
{
layerId = m01;
shapes = (
{
closed = 1;
nodes = (
(508,34,ls),
(508,12,o),
(521,-1,o),
(543,-1,cs),
(589,-1,ls),
(595,-1,o),
(599,3,o),
(599,9,cs),
(599,523,ls),
(599,545,o),
(586,558,o),
(564,558,cs),
(518,558,ls),
(512,558,o),
(508,554,o),
(508,548,cs),
(508,446,l),
(474,502,o),
(403,556,o),
(303,556,cs),
(156,556,o),
(43,441,o),
(43,271,cs),
(43,100,o),
(156,-10,o),
(303,-10,cs),
(403,-10,o),
(475,42,o),
(508,100,c)
);
},
{
closed = 1;
nodes = (
(130,395,o),
(212,469,o),
(309,469,cs),
(404,469,o),
(488,396,o),
(488,272,cs),
(488,150,o),
(404,76,o),
(309,76,cs),
(212,76,o),
(130,147,o),
(130,271,cs)
);
}
);
width = 676;
}
);
note = a;
unicode = 97;
},
{
glyphname = b;
lastChange = "2022-10-17 09:27:12 +0000";
layers = (
{
layerId = m01;
shapes = (
{
closed = 1;
nodes = (
(201,42,o),
(273,-10,o),
(373,-10,cs),
(520,-10,o),
(633,100,o),
(633,271,cs),
(633,441,o),
(520,556,o),
(373,556,cs),
(273,556,o),
(202,502,o),
(168,446,c),
(168,730,ls),
(168,736,o),
(164,740,o),
(158,740,cs),
(112,740,ls),
(90,740,o),
(77,727,o),
(77,705,cs),
(77,9,ls),
(77,3,o),
(81,-1,o),
(87,-1,cs),
(133,-1,ls),
(155,-1,o),
(168,12,o),
(168,34,cs),
(168,100,l)
);
},
{
closed = 1;
nodes = (
(546,147,o),
(464,76,o),
(367,76,cs),
(272,76,o),
(188,150,o),
(188,272,cs),
(188,396,o),
(272,469,o),
(367,469,cs),
(464,469,o),
(546,395,o),
(546,271,cs)
);
}
);
width = 676;
}
);
note = b;
unicode = 98;
},
{
glyphname = c;
lastChange = "2022-10-17 09:27:12 +0000";
layers = (
{
layerId = m01;
shapes = (
{
closed = 1;
nodes = (
(43,101,o),
(154,-9,o),
(310,-9,cs),
(441,-9,o),
(529,62,o),
(560,165,cs),
(562,172,o),
(558,176,o),
(551,176,cs),
(495,176,ls),
(475,176,o),
(463,167,o),
(454,148,cs),
(429,97,o),
(379,68,o),
(310,68,cs),
(210,68,o),
(136,139,o),
(136,275,cs),
(136,409,o),
(210,480,o),
(310,480,cs),
(379,480,o),
(429,449,o),
(454,400,cs),
(463,381,o),
(475,372,o),
(495,372,cs),
(551,372,ls),
(558,372,o),
(562,376,o),
(560,383,cs),
(529,492,o),
(442,557,o),
(310,557,cs),
(154,557,o),
(43,447,o),
(43,275,cs)
);
}
);
width = 607;
}
);
note = c;
unicode = 99;
},
{
glyphname = d;
lastChange = "2022-10-17 09:27:12 +0000";
layers = (
{
layerId = m01;
shapes = (
{
closed = 1;
nodes = (
(508,34,ls),
(508,12,o),
(521,-1,o),
(543,-1,cs),
(589,-1,ls),
(595,-1,o),
(599,3,o),
(599,9,cs),
(599,705,ls),
(599,727,o),
(586,740,o),
(564,740,cs),
(518,740,ls),
(512,740,o),
(508,736,o),
(508,730,cs),
(508,446,l),
(474,502,o),
(403,556,o),
(303,556,cs),
(156,556,o),
(43,441,o),
(43,271,cs),
(43,100,o),
(156,-10,o),
(303,-10,cs),
(403,-10,o),
(475,42,o),
(508,100,c)
);
},
{
closed = 1;
nodes = (
(130,395,o),
(212,469,o),
(309,469,cs),
(404,469,o),
(488,396,o),
(488,272,cs),
(488,150,o),
(404,76,o),
(309,76,cs),
(212,76,o),
(130,147,o),
(130,271,cs)
);
}
);
width = 676;
}
);
note = d;
unicode = 100;
},
{
glyphname = e;
lastChange = "2022-10-17 09:27:12 +0000";
layers = (
{
layerId = m01;
shapes = (
{
closed = 1;
nodes = (
(401,480,o),
(478,425,o),
(483,325,cs),
(483,318,o),
(479,314,o),
(473,314,cs),
(148,314,ls),
(142,314,o),
(137,318,o),
(138,325,cs),
(152,425,o),
(224,480,o),
(310,480,cs)
);
},
{
closed = 1;
nodes = (
(497,169,ls),
(477,169,o),
(466,160,o),
(456,143,cs),
(431,98,o),
(383,68,o),
(314,68,cs),
(224,68,o),
(148,125,o),
(137,229,cs),
(136,236,o),
(140,240,o),
(146,240,cs),
(564,240,ls),
(570,240,o),
(574,243,o),
(575,249,cs),
(576,265,o),
(577,278,o),
(577,295,cs),
(577,445,o),
(473,557,o),
(314,557,cs),
(154,557,o),
(43,448,o),
(43,275,cs),
(43,101,o),
(158,-9,o),
(314,-9,cs),
(450,-9,o),
(538,69,o),
(566,169,c)
);
}
);
width = 620;
}
);
note = e;
unicode = 101;
},
{
glyphname = f;
lastChange = "2022-10-17 09:27:12 +0000";
layers = (
{
layerId = m01;
shapes = (
{
closed = 1;
nodes = (
(94,10,ls),
(94,4,o),
(98,0,o),
(104,0,cs),
(175,0,ls),
(181,0,o),
(185,4,o),
(185,10,cs),
(185,463,ls),
(185,469,o),
(189,473,o),
(195,473,cs),
(290,473,ls),
(296,473,o),
(300,477,o),
(300,483,cs),
(300,538,ls),
(300,544,o),
(296,548,o),
(290,548,cs),
(195,548,ls),
(189,548,o),
(185,552,o),
(185,558,cs),
(185,587,ls),
(185,647,o),
(204,678,o),
(259,686,cs),
(282,689,o),
(294,700,o),
(294,722,cs),
(294,754,ls),
(294,760,o),
(290,764,o),
(284,764,cs),
(151,761,o),
(94,706,o),
(94,587,cs),
(94,558,ls),
(94,552,o),
(90,548,o),
(84,548,cs),
(33,548,ls),
(27,548,o),
(23,544,o),
(23,538,cs),
(23,483,ls),
(23,477,o),
(27,473,o),
(33,473,cs),
(59,473,ls),
(81,473,o),
(94,460,o),
(94,438,cs)
);
}
);
width = 329;
}
);
note = f;
unicode = 102;
},
{
glyphname = g;
lastChange = "2022-10-17 09:27:12 +0000";
layers = (
{
layerId = m01;
shapes = (
{
closed = 1;
nodes = (
(599,-151,o),
(499,-258,o),
(338,-258,cs),
(194,-258,o),
(91,-185,o),
(73,-68,c),
(154,-68,ls),
(159,-68,o),
(164,-71,o),
(166,-76,cs),
(188,-138,o),
(252,-179,o),
(338,-179,cs),
(435,-179,o),
(508,-117,o),
(508,0,c),
(599,0,l)
);
},
{
closed = 1;
nodes = (
(508,513,ls),
(508,535,o),
(521,548,o),
(543,548,cs),
(589,548,ls),
(595,548,o),
(599,544,o),
(599,538,cs),
(599,0,ls),
(599,-17,o),
(508,-17,o),
(508,0,cs),
(508,101,l),
(474,45,o),
(403,-9,o),
(303,-9,cs),
(156,-9,o),
(43,106,o),
(43,276,cs),
(43,447,o),
(156,557,o),
(303,557,cs),
(403,557,o),
(475,505,o),
(508,447,c)
);
},
{
closed = 1;
nodes = (
(130,152,o),
(212,78,o),
(309,78,cs),
(404,78,o),
(488,151,o),
(488,275,cs),
(488,397,o),
(404,471,o),
(309,471,cs),
(212,471,o),
(130,400,o),
(130,276,cs)
);
}
);
width = 676;
}
);
note = g;
unicode = 103;
},
{
glyphname = h;
lastChange = "2022-10-17 09:27:12 +0000";
layers = (
{
layerId = m01;
shapes = (
{
closed = 1;
nodes = (
(478,25,ls),
(478,9,o),
(487,0,o),
(503,0,cs),
(558,0,ls),
(564,0,o),
(568,4,o),
(568,10,cs),
(568,323,ls),
(568,480,o),
(471,558,o),
(344,558,cs),
(270,558,o),
(204,527,o),
(168,470,c),
(168,715,ls),
(168,731,o),
(159,740,o),
(143,740,cs),
(87,740,ls),
(81,740,o),
(77,736,o),
(77,730,cs),
(77,10,ls),
(77,4,o),
(81,0,o),
(87,0,cs),
(158,0,ls),
(164,0,o),
(168,4,o),
(168,10,cs),
(168,303,ls),
(168,421,o),
(232,479,o),
(325,479,cs),
(417,479,o),
(478,422,o),
(478,310,cs)
);
}
);
width = 640;
}
);
note = h;
unicode = 104;
},
{
glyphname = i;
lastChange = "2022-10-17 09:27:12 +0000";
layers = (
{
layerId = m01;
shapes = (
{
closed = 1;
nodes = (
(77,25,ls),
(77,9,o),
(86,0,o),
(102,0,cs),
(158,0,ls),
(164,0,o),
(168,4,o),
(168,10,cs),
(168,523,ls),
(168,539,o),
(159,548,o),
(143,548,cs),
(87,548,ls),
(81,548,o),
(77,544,o),
(77,538,cs)
);
},
{
closed = 1;
nodes = (
(154,623,o),
(178,647,o),
(178,679,cs),
(178,711,o),
(154,735,o),
(124,735,cs),
(92,735,o),
(68,711,o),
(68,679,cs),
(68,647,o),
(92,623,o),
(124,623,cs)
);
}
);
width = 246;
}
);
note = i;
unicode = 105;
},
{
glyphname = j;
lastChange = "2022-10-17 09:27:12 +0000";
layers = (
{
layerId = m01;
shapes = (
{
closed = 1;
nodes = (
(90,548,ls),
(84,548,o),
(80,544,o),
(80,538,cs),
(80,-117,ls),
(80,-172,o),
(56,-188,o),
(-11,-182,cs),
(-21,-181,o),
(-27,-186,o),
(-27,-196,cs),
(-27,-260,l),
(26,-260,ls),
(119,-260,o),
(171,-218,o),
(171,-119,cs),
(171,513,ls),
(171,535,o),
(158,548,o),
(136,548,cs)
);
},
{
closed = 1;
nodes = (
(157,622,o),
(181,646,o),
(181,678,cs),
(181,710,o),
(157,734,o),
(127,734,cs),
(95,734,o),
(71,710,o),
(71,678,cs),
(71,646,o),
(95,622,o),
(127,622,cs)
);
}
);
width = 248;
}
);
note = j;
unicode = 106;
},
{
glyphname = k;
lastChange = "2022-10-17 09:27:12 +0000";
layers = (
{
layerId = m01;
shapes = (
{
closed = 1;
nodes = (
(77,35,ls),
(77,13,o),
(90,0,o),
(112,0,cs),
(158,0,ls),
(164,0,o),
(168,4,o),
(168,10,cs),
(168,223,ls),
(168,232,o),
(174,235,o),
(180,228,cs),
(378,6,ls),
(381,2,o),
(385,0,o),
(390,0,cs),
(490,0,ls),
(498,0,o),
(501,5,o),
(495,12,cs),
(255,268,ls),
(251,273,o),
(251,277,o),
(255,282,cs),
(488,536,ls),
(492,541,o),
(489,548,o),
(483,548,cs),
(405,548,ls),
(387,548,o),
(374,542,o),
(362,528,cs),
(180,319,ls),
(174,312,o),
(168,315,o),
(168,324,cs),
(168,705,ls),
(168,727,o),
(155,740,o),
(133,740,cs),
(87,740,ls),
(81,740,o),
(77,736,o),
(77,730,cs)
);
}
);
width = 515;
}
);
note = k;
unicode = 107;
},
{
glyphname = l;
lastChange = "2022-10-17 09:27:12 +0000";
layers = (
{
layerId = m01;
shapes = (
{
closed = 1;
nodes = (
(80,35,ls),
(80,13,o),
(93,0,o),
(115,0,cs),
(158,0,ls),
(164,0,o),
(168,4,o),
(168,10,cs),
(168,730,ls),
(168,736,o),
(164,740,o),
(158,740,cs),
(90,740,ls),
(84,740,o),
(80,736,o),
(80,730,cs)
);
}
);
width = 246;
}
);
note = l;
unicode = 108;
},
{
glyphname = m;
lastChange = "2022-10-17 09:27:12 +0000";
layers = (
{
layerId = m01;
shapes = (
{
closed = 1;
nodes = (
(478,25,ls),
(478,9,o),
(487,0,o),
(503,0,cs),
(558,0,ls),
(564,0,o),
(568,4,o),
(568,10,cs),
(568,323,ls),
(568,480,o),
(471,558,o),
(344,558,cs),
(270,558,o),
(204,527,o),
(168,470,c),
(168,513,ls),
(168,535,o),
(155,548,o),
(133,548,cs),
(87,548,ls),
(81,548,o),
(77,544,o),
(77,538,cs),
(77,10,ls),
(77,4,o),
(81,0,o),
(87,0,cs),
(158,0,ls),
(164,0,o),
(168,4,o),
(168,10,cs),
(168,303,ls),
(168,421,o),
(232,479,o),
(325,479,cs),
(417,479,o),
(478,422,o),
(478,310,cs)
);
},
{
closed = 1;
nodes = (
(869,25,ls),
(869,9,o),
(878,0,o),
(894,0,cs),
(949,0,ls),
(955,0,o),
(959,4,o),
(959,10,cs),
(959,323,ls),
(959,480,o),
(862,558,o),
(735,558,cs),
(661,558,o),
(599,548,o),
(532,466,c),
(568,297,l),
(568,415,o),
(623,479,o),
(716,479,cs),
(808,479,o),
(869,422,o),
(869,310,cs)
);
}
);
width = 1030;
}
);
note = m;
unicode = 109;
},
{
glyphname = n;
lastChange = "2022-10-17 09:27:12 +0000";
layers = (
{
layerId = m01;
shapes = (
{
closed = 1;
nodes = (
(478,36,ls),
(478,16,o),
(494,0,o),
(514,0,cs),
(558,0,ls),
(564,0,o),
(568,4,o),
(568,10,cs),
(568,323,ls),
(568,480,o),
(471,558,o),
(344,558,cs),
(270,558,o),
(204,527,o),
(168,470,c),
(168,512,ls),
(168,532,o),
(152,548,o),
(132,548,cs),
(87,548,ls),
(81,548,o),
(77,544,o),
(77,538,cs),
(77,10,ls),
(77,4,o),
(81,0,o),
(87,0,cs),
(158,0,ls),
(164,0,o),
(168,4,o),
(168,10,cs),
(168,303,ls),
(168,421,o),
(232,479,o),
(325,479,cs),
(417,479,o),
(478,422,o),
(478,310,cs)
);
}
);
width = 640;
}
);
note = n;
unicode = 110;
},
{
glyphname = o;
layers = (
{
layerId = m01;
shapes = (
{
closed = 1;
nodes = (
(597,448,o),
(476,557,o),
(320,557,cs),
(165,557,o),
(43,448,o),
(43,275,cs),
(43,101,o),
(161,-9,o),
(316,-9,cs),
(472,-9,o),
(597,101,o),
(597,275,cs)
);
},
{
closed = 1;
nodes = (
(136,413,o),
(223,478,o),
(319,478,cs),
(413,478,o),
(504,413,o),
(504,275,cs),
(504,136,o),
(411,71,o),
(316,71,cs),
(221,71,o),
(136,136,o),
(136,275,cs)
);
}
);
width = 640;
}
);
note = o;
unicode = 111;
},
{
glyphname = p;
lastChange = "2022-10-17 09:27:12 +0000";
layers = (
{
layerId = m01;
shapes = (
{
closed = 1;
nodes = (
(168,513,ls),
(168,535,o),
(155,548,o),
(133,548,cs),
(87,548,ls),
(81,548,o),
(77,544,o),
(77,538,cs),
(77,-225,ls),
(77,-247,o),
(90,-260,o),
(112,-260,cs),
(158,-260,ls),
(164,-260,o),
(168,-256,o),
(168,-250,cs),
(168,101,l),
(202,45,o),
(273,-9,o),
(373,-9,cs),
(520,-9,o),
(633,106,o),
(633,276,cs),
(633,447,o),
(520,557,o),
(373,557,cs),
(273,557,o),
(201,505,o),
(168,447,c)
);
},
{
closed = 1;
nodes = (
(546,152,o),
(464,78,o),
(367,78,cs),
(272,78,o),
(188,151,o),
(188,275,cs),
(188,397,o),
(272,471,o),
(367,471,cs),
(464,471,o),
(546,400,o),
(546,276,cs)
);
}
);
width = 676;
}
);
note = p;
unicode = 112;
},
{
glyphname = q;
lastChange = "2022-10-17 09:27:12 +0000";
layers = (
{
layerId = m01;
shapes = (
{
closed = 1;
nodes = (
(475,505,o),
(403,557,o),
(303,557,cs),
(156,557,o),
(43,447,o),
(43,276,cs),
(43,106,o),
(156,-9,o),
(303,-9,cs),
(403,-9,o),
(474,45,o),
(508,101,c),
(508,-250,ls),
(508,-256,o),
(512,-260,o),
(518,-260,cs),
(564,-260,ls),
(586,-260,o),
(599,-247,o),
(599,-225,cs),
(599,538,ls),
(599,544,o),
(595,548,o),
(589,548,cs),
(543,548,ls),
(521,548,o),
(508,535,o),
(508,513,cs),
(508,447,l)
);
},
{
closed = 1;
nodes = (
(130,400,o),
(212,471,o),
(309,471,cs),
(404,471,o),
(488,397,o),
(488,275,cs),
(488,151,o),
(404,78,o),
(309,78,cs),
(212,78,o),
(130,152,o),
(130,276,cs)
);
}
);
width = 676;
}
);
note = q;
unicode = 113;
},
{
glyphname = r;
lastChange = "2022-10-17 09:27:12 +0000";
layers = (
{
layerId = m01;
shapes = (
{
closed = 1;
nodes = (
(351,547,ls),
(352,554,o),
(349,558,o),
(342,558,cs),
(271,555,o),
(202,524,o),
(168,470,c),
(168,523,ls),
(168,539,o),
(159,548,o),
(143,548,cs),
(87,548,ls),
(81,548,o),
(77,544,o),
(77,538,cs),
(77,10,ls),
(77,4,o),
(81,0,o),
(87,0,cs),
(158,0,ls),
(164,0,o),
(168,4,o),
(168,10,cs),
(168,303,ls),
(168,408,o),
(227,458,o),
(305,468,cs),
(326,471,o),
(338,481,o),
(342,501,cs)
);
}
);
width = 373;
}
);
note = r;
unicode = 114;
},
{
glyphname = s;
lastChange = "2022-10-17 09:27:12 +0000";
layers = (
{
layerId = m01;
shapes = (
{
closed = 1;
nodes = (
(467,345,o),
(149,274,o),
(149,404,cs),
(149,448,o),
(189,480,o),
(256,480,cs),
(315,480,o),
(353,454,o),
(368,416,cs),
(376,396,o),
(385,385,o),
(406,385,cs),
(456,385,ls),
(462,385,o),
(466,389,o),
(465,395,cs),
(455,496,o),
(376,557,o),
(259,557,cs),
(137,557,o),
(58,488,o),
(58,404,cs),
(58,200,o),
(382,271,o),
(382,149,cs),
(382,104,o),
(342,68,o),
(270,68,cs),
(208,68,o),
(166,94,o),
(149,131,cs),
(140,151,o),
(130,161,o),
(110,161,cs),
(57,161,ls),
(51,161,o),
(47,157,o),
(48,151,cs),
(59,56,o),
(147,-9,o),
(271,-9,cs),
(392,-9,o),
(471,59,o),
(471,149,cs)
);
}
);
width = 522;
}
);
note = s;
unicode = 115;
},
{
glyphname = t;
lastChange = "2022-10-17 09:27:12 +0000";
layers = (
{
layerId = m01;
shapes = (
{
closed = 1;
nodes = (
(97,150,ls),
(97,40,o),
(152,0,o),
(249,0,cs),
(331,0,l),
(331,42,ls),
(331,64,o),
(318,77,o),
(296,77,cs),
(264,77,ls),
(208,77,o),
(188,96,o),
(188,150,cs),
(188,463,ls),
(188,469,o),
(192,473,o),
(198,473,cs),
(321,473,ls),
(327,473,o),
(331,477,o),
(331,483,cs),
(331,538,ls),
(331,544,o),
(327,548,o),
(321,548,cs),
(198,548,ls),
(192,548,o),
(188,552,o),
(188,558,cs),
(188,676,ls),
(188,682,o),
(184,686,o),
(178,686,cs),
(107,686,ls),
(101,686,o),
(97,682,o),
(97,676,cs),
(97,583,ls),
(97,561,o),
(84,548,o),
(62,548,cs),
(31,548,ls),
(28,548,o),
(26,546,o),
(26,543,cs),
(26,483,ls),
(26,477,o),
(30,473,o),
(36,473,cs),
(87,473,ls),
(93,473,o),
(97,469,o),
(97,463,cs)
);
}
);
width = 364;
}
);
note = t;
unicode = 116;
},
{
glyphname = u;
lastChange = "2023-01-11 15:37:24 +0000";
layers = (
{
layerId = m01;
shapes = (
{
closed = 1;
nodes = (
(167,534,ls),
(167,550,o),
(158,559,o),
(142,559,cs),
(87,559,ls),
(81,559,o),
(77,555,o),
(77,549,cs),
(77,236,ls),
(77,79,o),
(174,1,o),
(301,1,cs),
(375,1,o),
(441,32,o),
(477,89,c),
(477,35,ls),
(477,13,o),
(490,0,o),
(512,0,cs),
(558,0,ls),
(564,0,o),
(568,4,o),
(568,10,cs),
(568,549,ls),
(568,555,o),
(564,559,o),
(558,559,cs),
(487,559,ls),
(481,559,o),
(477,555,o),
(477,549,cs),
(477,256,ls),
(477,138,o),
(413,80,o),
(320,80,cs),
(228,80,o),
(167,137,o),
(167,249,cs)
);
}
);
width = 640;
}
);
note = u;
unicode = 117;
},
{
glyphname = v;
lastChange = "2022-10-17 09:27:12 +0000";
layers = (
{
layerId = m01;
shapes = (
{
closed = 1;
nodes = (
(24,548,ls),
(17,548,o),
(14,543,o),
(17,536,cs),
(216,27,ls),
(223,8,o),
(237,0,o),
(257,0,cs),
(303,0,ls),
(323,0,o),
(337,8,o),
(344,27,cs),
(543,536,ls),
(546,543,o),
(543,548,o),
(536,548,cs),
(481,548,ls),
(461,548,o),
(448,539,o),
(441,520,cs),
(304,146,ls),
(293,116,o),
(269,116,o),
(258,146,cs),
(120,520,ls),
(113,539,o),
(100,548,o),
(80,548,cs)
);
}
);
width = 561;
}
);
note = v;
unicode = 118;
},
{
glyphname = w;
lastChange = "2022-10-20 03:15:12 +0000";
layers = (
{
layerId = m01;
shapes = (
{
closed = 1;
nodes = (
(22,549,ls),
(14,549,o),
(8,546,o),
(11,536,cs),
(171,27,ls),
(177,9,o),
(190,-1,o),
(209,-1,cs),
(246,-1,ls),
(265,-1,o),
(279,9,o),
(284,27,cs),
(403,404,ls),
(405,412,o),
(417,412,o),
(419,404,cs),
(537,27,ls),
(543,9,o),
(556,-1,o),
(575,-1,cs),
(612,-1,ls),
(631,-1,o),
(645,9,o),
(650,27,cs),
(810,536,ls),
(814,547,o),
(806,549,o),
(800,549,cs),
(755,549,ls),
(736,549,o),
(724,538,o),
(718,520,cs),
(608,146,ls),
(599,117,o),
(590,117,o),
(581,146,cs),
(470,520,ls),
(465,537,o),
(454,548,o),
(437,549,cs),
(434,549,l),
(388,549,l),
(383,549,l),
(367,546,o),
(357,536,o),
(352,520,cs),
(242,146,ls),
(233,117,o),
(224,117,o),
(215,146,cs),
(104,520,ls),
(99,538,o),
(86,549,o),
(67,549,cs)
);
}
);
width = 820;
}
);
note = w;
unicode = 119;
},
{
glyphname = x;
lastChange = "2022-10-17 09:27:12 +0000";
layers = (
{
layerId = m01;
shapes = (
{
closed = 1;
nodes = (
(359,7,ls),
(362,3,o),
(366,0,o),
(371,0,cs),
(452,0,ls),
(460,0,o),
(462,5,o),
(458,12,cs),
(305,253,ls),
(295,269,o),
(294,285,o),
(305,301,cs),
(457,536,ls),
(461,543,o),
(459,548,o),
(451,548,cs),
(378,548,ls),
(373,548,o),
(369,545,o),
(366,541,cs),
(270,384,ls),
(256,361,o),
(235,362,o),
(221,384,cs),
(120,541,ls),
(117,545,o),
(113,548,o),
(108,548,cs),
(27,548,ls),
(19,548,o),
(17,543,o),
(21,536,cs),
(174,296,ls),
(185,280,o),
(185,264,o),
(174,248,cs),
(21,12,ls),
(17,5,o),
(19,0,o),
(27,0,cs),
(100,0,ls),
(105,0,o),
(109,3,o),
(112,7,cs),
(209,165,ls),
(223,188,o),
(244,188,o),
(258,165,cs)
);
}
);
width = 479;
}
);
note = x;
unicode = 120;
},
{
glyphname = y;
lastChange = "2022-10-17 09:27:12 +0000";
layers = (
{
layerId = m01;
shapes = (
{
closed = 1;
nodes = (
(299,140,ls),
(294,126,o),
(276,126,o),
(271,140,cs),
(115,542,ls),
(114,546,o),
(111,548,o),
(107,548,cs),
(29,548,ls),
(20,548,o),
(16,540,o),
(19,532,cs),
(233,6,l),
(132,-242,ls),
(129,-250,o),
(134,-258,o),
(143,-258,cs),
(213,-258,ls),
(216,-258,o),
(220,-256,o),
(221,-252,cs),
(542,532,ls),
(545,540,o),
(540,548,o),
(531,548,cs),
(461,548,ls),
(457,548,o),
(454,546,o),
(453,542,cs)
);
}
);
width = 563;
}
);
note = y;
unicode = 121;
},
{
glyphname = z;
lastChange = "2022-10-17 09:27:12 +0000";
layers = (
{
layerId = m01;
shapes = (
{
closed = 1;
nodes = (
(412,538,ls),
(412,544,o),
(408,548,o),
(402,548,cs),
(53,548,ls),
(47,548,o),
(43,544,o),
(43,538,cs),
(43,509,ls),
(43,487,o),
(56,474,o),
(78,474,cs),
(292,474,ls),
(300,474,o),
(303,468,o),
(299,462,cs),
(45,81,l),
(43,77,o),
(41,72,o),
(41,68,cs),
(41,10,ls),
(41,4,o),
(45,0,o),
(51,0,cs),
(414,0,l),
(414,40,ls),
(414,62,o),
(401,75,o),
(379,75,cs),
(160,75,ls),
(152,75,o),
(149,81,o),
(153,87,cs),
(408,468,l),
(410,472,o),
(412,477,o),
(412,481,cs)
);
}
);
width = 455;
}
);
note = z;
unicode = 122;
},
{
glyphname = braceleft;
lastChange = "2022-10-19 09:19:48 +0000";
layers = (
{
layerId = m01;
shapes = (
{
closed = 1;
nodes = (
(207,155,o),
(187,46,o),
(187,-39,cs),
(187,-137,o),
(248,-187,o),
(336,-187,cs),
(384,-187,ls),
(390,-187,o),
(394,-183,o),
(394,-177,cs),
(394,-118,ls),
(394,-112,o),
(390,-108,o),
(384,-108,cs),
(353,-108,ls),
(303,-108,o),
(276,-87,o),
(276,-33,cs),
(276,43,o),
(295,153,o),
(295,236,cs),
(295,304,o),
(263,356,o),
(187,373,c),
(187,374,l),
(187,374,o),
(197,377,o),
(211,382,cs),
(270,403,o),
(295,451,o),
(295,511,cs),
(295,594,o),
(276,704,o),
(276,780,cs),
(276,834,o),
(303,855,o),
(353,855,cs),
(394,855,l),
(394,934,l),
(336,934,ls),
(248,934,o),
(187,884,o),
(187,786,cs),
(187,701,o),
(207,592,o),
(207,514,cs),
(207,470,o),
(186,433,o),
(130,415,cs),
(115,410,o),
(105,398,o),
(105,383,cs),
(105,364,ls),
(105,349,o),
(115,337,o),
(130,332,cs),
(186,314,o),
(207,277,o),
(207,233,cs)
);
}
);
width = 462;
}
);
note = braceleft;
unicode = 123;
},
{
glyphname = bar;
layers = (
{
layerId = m01;
shapes = (
{
closed = 1;
nodes = (
(100,795,l),
(100,-106,l),
(191,-106,l),
(191,795,l)
);
}
);
width = 291;
}
);
note = bar;
unicode = 124;
},
{
glyphname = braceright;
lastChange = "2022-10-19 09:20:09 +0000";
layers = (
{
layerId = m01;
shapes = (
{
closed = 1;
nodes = (
(255,155,o),
(275,46,o),
(275,-39,cs),
(275,-137,o),
(214,-187,o),
(126,-187,cs),
(78,-187,ls),
(72,-187,o),
(68,-183,o),
(68,-177,cs),
(68,-118,ls),
(68,-112,o),
(72,-108,o),
(78,-108,cs),
(109,-108,ls),
(159,-108,o),
(186,-87,o),
(186,-33,cs),
(186,43,o),
(167,153,o),
(167,236,cs),
(167,304,o),
(199,356,o),
(275,373,c),
(275,374,l),
(275,374,o),
(265,377,o),
(251,382,cs),
(192,403,o),
(167,451,o),
(167,511,cs),
(167,594,o),
(186,704,o),
(186,780,cs),
(186,834,o),
(159,855,o),
(109,855,cs),
(78,855,ls),
(72,855,o),
(68,859,o),
(68,865,cs),
(68,924,ls),
(68,930,o),
(72,934,o),
(78,934,cs),
(126,934,ls),
(214,934,o),
(275,884,o),
(275,786,cs),
(275,701,o),
(255,592,o),
(255,514,cs),
(255,470,o),
(276,433,o),
(332,415,cs),
(347,410,o),
(357,398,o),
(357,383,cs),
(357,364,ls),
(357,349,o),
(347,337,o),
(332,332,cs),
(276,314,o),
(255,277,o),
(255,233,cs)
);
}
);
width = 462;
}
);
note = braceright;
unicode = 125;
},
{
glyphname = asciitilde;
lastChange = "2022-10-19 09:20:17 +0000";
layers = (
{
layerId = m01;
shapes = (
{
closed = 1;
nodes = (
(96,248,ls),
(100,248,o),
(104,251,o),
(105,256,cs),
(114,291,o),
(139,313,o),
(172,313,cs),
(231,313,o),
(265,247,o),
(340,247,cs),
(411,247,o),
(460,288,o),
(480,380,cs),
(481,387,o),
(476,393,o),
(469,393,cs),
(422,393,ls),
(418,393,o),
(414,390,o),
(413,385,cs),
(404,349,o),
(379,328,o),
(347,328,cs),
(290,328,o),
(254,394,o),
(178,394,cs),
(108,394,o),
(60,352,o),
(40,261,cs),
(38,254,o),
(43,248,o),
(50,248,cs)
);
}
);
width = 519;
}
);
note = asciitilde;
unicode = 126;
},
{
glyphname = exclamdown;
layers = (
{
layerId = m01;
shapes = (
{
closed = 1;
nodes = (
(108,361,l),
(184,361,l),
(195,-139,l),
(97,-139,l)
);
},
{
closed = 1;
nodes = (
(210,467,o),
(183,440,o),
(150,440,cs),
(115,440,o),
(88,467,o),
(88,502,cs),
(88,537,o),
(115,564,o),
(150,564,cs),
(183,564,o),
(210,537,o),
(210,502,cs)
);
}
);
width = 298;
}
);
note = exclamdown;
unicode = 161;
},
{
glyphname = cent;
layers = (
{
layerId = m01;
shapes = (
{
closed = 1;
nodes = (
(471,184,l),
(456,120,o),
(405,80,o),
(322,80,cs),
(223,80,o),
(151,144,o),
(151,262,cs),
(151,380,o),
(223,445,o),
(322,445,cs),
(405,445,o),
(456,404,o),
(471,341,c),
(556,341,l),
(544,437,o),
(465,510,o),
(347,519,c),
(347,611,l),
(293,611,l),
(293,519,l),
(145,507,o),
(65,400,o),
(65,262,cs),
(65,124,o),
(145,17,o),
(293,5,c),
(293,-89,l),
(347,-89,l),
(347,5,l),
(465,14,o),
(544,87,o),
(556,184,c)
);
}
);
width = 665;
}
);
note = cent;
unicode = 162;
},
{
glyphname = sterling;
layers = (
{
layerId = m01;
shapes = (
{
closed = 1;
nodes = (
(108,452,o),
(121,410,o),
(135,372,c),
(44,372,l),
(44,308,l),
(157,308,l),
(162,288,o),
(166,268,o),
(166,246,cs),
(166,155,o),
(133,105,o),
(83,50,c),
(99,-2,l),
(545,-2,l),
(545,74,l),
(181,74,l),
(228,125,o),
(252,180,o),
(252,246,cs),
(252,267,o),
(248,288,o),
(243,308,c),
(417,308,l),
(417,372,l),
(223,372,l),
(209,413,o),
(195,455,o),
(195,504,cs),
(195,602,o),
(255,642,o),
(326,642,cs),
(414,642,o),
(456,586,o),
(458,511,c),
(542,511,l),
(537,623,o),
(470,719,o),
(326,719,cs),
(197,719,o),
(108,637,o),
(108,508,cs)
);
}
);
width = 620;
}
);
note = sterling;
unicode = 163;
},
{
glyphname = currency;
layers = (
{
layerId = m01;
shapes = (
{
closed = 1;
nodes = (
(369,300,o),
(319,259,o),
(267,259,cs),
(212,259,o),
(168,300,o),
(168,377,cs),
(168,454,o),
(213,496,o),
(267,496,cs),
(321,496,o),
(369,454,o),
(369,377,cs)
);
},
{
closed = 1;
nodes = (
(432,170,l),
(473,212,l),
(414,271,l),
(434,300,o),
(446,336,o),
(446,377,cs),
(446,419,o),
(434,456,o),
(413,484,c),
(473,544,l),
(432,586,l),
(371,525,l),
(342,544,o),
(307,554,o),
(268,554,cs),
(229,554,o),
(194,544,o),
(166,525,c),
(105,586,l),
(63,544,l),
(124,484,l),
(104,456,o),
(92,419,o),
(92,377,cs),
(92,335,o),
(103,300,o),
(122,271,c),
(63,212,l),
(105,170,l),
(164,229,l),
(192,210,o),
(227,200,o),
(267,200,cs),
(306,200,o),
(342,211,o),
(372,230,c)
);
}
);
width = 537;
}
);
note = currency;
unicode = 164;
},
{
glyphname = yen;
layers = (
{
layerId = m01;
shapes = (
{
closed = 1;
nodes = (
(253,263,l),
(253,224,l),
(53,224,l),
(53,157,l),
(253,157,l),
(253,0,l),
(344,0,l),
(344,157,l),
(544,157,l),
(544,224,l),
(344,224,l),
(344,263,l),
(371,315,l),
(544,317,l),
(544,383,l),
(407,383,l),
(571,697,l),
(469,697,l),
(298,345,l),
(127,697,l),
(25,697,l),
(190,383,l),
(53,383,l),
(53,317,l),
(225,315,l)
);
}
);
width = 595;
}
);
note = yen;
unicode = 165;
},
{
glyphname = brokenbar;
layers = (
{
layerId = m01;
shapes = (
{
closed = 1;
nodes = (
(100,273,l),
(100,-106,l),
(191,-106,l),
(191,273,l)
);
},
{
closed = 1;
nodes = (
(191,417,l),
(191,795,l),
(100,795,l),
(100,417,l)
);
}
);
width = 291;
}
);
note = brokenbar;
unicode = 166;
},
{
glyphname = section;
layers = (
{
layerId = m01;
shapes = (
{
closed = 1;
nodes = (
(76,487,o),
(124,449,o),
(184,420,c),
(93,394,o),
(46,331,o),
(46,258,cs),
(46,158,o),
(123,111,o),
(247,70,cs),
(372,29,o),
(408,4,o),
(408,-46,cs),
(408,-104,o),
(365,-132,o),
(295,-132,cs),
(215,-132,o),
(180,-87,o),
(175,-31,c),
(84,-31,l),
(87,-137,o),
(175,-196,o),
(295,-196,cs),
(423,-196,o),
(499,-125,o),
(499,-39,cs),
(499,29,o),
(452,67,o),
(391,95,c),
(483,124,o),
(529,185,o),
(529,258,cs),
(529,357,o),
(452,405,o),
(328,445,cs),
(203,486,o),
(167,512,o),
(167,563,cs),
(167,619,o),
(211,647,o),
(281,647,cs),
(361,647,o),
(396,600,o),
(400,546,c),
(491,546,l),
(488,652,o),
(401,712,o),
(281,712,cs),
(152,712,o),
(76,641,o),
(76,555,cs)
);
},
{
closed = 1;
nodes = (
(436,197,o),
(383,143,o),
(290,143,cs),
(196,143,o),
(139,194,o),
(139,258,cs),
(139,319,o),
(192,372,o),
(286,372,cs),
(379,372,o),
(436,323,o),
(436,258,cs)
);
}
);
width = 575;
}
);
note = section;
unicode = 167;
},
{
glyphname = dieresis;
layers = (
{
layerId = m01;
shapes = (
{
closed = 1;
nodes = (
(104,622,o),
(128,645,o),
(128,674,cs),
(128,703,o),
(104,727,o),
(76,727,cs),
(46,727,o),
(23,703,o),
(23,674,cs),
(23,645,o),
(46,622,o),
(76,622,cs)
);
},
{
closed = 1;
nodes = (
(267,622,o),
(291,645,o),
(291,674,cs),
(291,703,o),
(267,727,o),
(238,727,cs),
(208,727,o),
(186,703,o),
(186,674,cs),
(186,645,o),
(208,622,o),
(238,622,cs)
);
}
);
width = 314;
}
);
note = dieresis;
unicode = 168;
},
{
glyphname = copyright;
layers = (
{
layerId = m01;
shapes = (
{
closed = 1;
nodes = (
(49,141,o),
(191,-6,o),
(397,-6,cs),
(602,-6,o),
(743,141,o),
(743,349,cs),
(743,557,o),
(602,704,o),
(397,704,cs),
(191,704,o),
(49,557,o),
(49,349,cs)
);
},
{
closed = 1;
nodes = (
(700,162,o),
(583,33,o),
(397,33,cs),
(209,33,o),
(92,162,o),
(92,349,cs),
(92,537,o),
(209,664,o),
(397,664,cs),
(583,664,o),
(700,537,o),
(700,349,cs)
);
},
{
closed = 1;
nodes = (
(516,432,l),
(499,486,o),
(452,515,o),
(395,515,cs),
(319,515,o),
(259,459,o),
(259,349,cs),
(259,240,o),
(319,184,o),
(395,184,cs),
(457,184,o),
(497,214,o),
(516,267,c),
(600,267,l),
(574,177,o),
(496,118,o),
(395,118,cs),
(275,118,o),
(178,206,o),
(178,350,cs),
(178,494,o),
(275,581,o),
(395,581,cs),
(496,581,o),
(574,527,o),
(600,432,c)
);
}
);
width = 792;
}
);
note = copyright;
unicode = 169;
},
{
glyphname = ordfeminine;
layers = (
{
layerId = m01;
shapes = (
{
closed = 1;
nodes = (
(266,347,o),
(311,376,o),
(331,413,c),
(331,353,l),
(403,353,l),
(403,703,l),
(331,703,l),
(331,642,l),
(310,679,o),
(266,709,o),
(200,709,cs),
(106,709,o),
(33,636,o),
(33,530,cs),
(33,423,o),
(106,347,o),
(202,347,cs)
);
},
{
closed = 1;
nodes = (
(280,652,o),
(331,607,o),
(331,528,cs),
(331,449,o),
(280,404,o),
(219,404,cs),
(159,404,o),
(108,450,o),
(108,529,cs),
(108,608,o),
(159,652,o),
(219,652,cs)
);
}
);
width = 450;
}
);
note = ordfeminine;
unicode = 170;
},
{
glyphname = guillemotleft;
layers = (
{
layerId = m01;
shapes = (
{
closed = 1;
nodes = (
(131,295,l),
(230,470,l),
(141,470,l),
(45,295,l),
(141,120,l),
(230,120,l)
);
},
{
closed = 1;
nodes = (
(312,295,l),
(411,470,l),
(321,470,l),
(226,295,l),
(321,120,l),
(411,120,l)
);
}
);
width = 461;
}
);
note = guillemotleft;
unicode = 171;
},
{
glyphname = logicalnot;
layers = (
{
layerId = m01;
shapes = (
{
closed = 1;
nodes = (
(41,360,l),
(515,360,l),
(515,220,l),
(606,220,l),
(606,432,l),
(41,432,l)
);
}
);
width = 650;
}
);
note = logicalnot;
unicode = 172;
},
{
glyphname = uni00AD;
layers = (
{
layerId = m01;
shapes = (
{
closed = 1;
nodes = (
(58,328,l),
(457,328,l),
(457,405,l),
(58,405,l)
);
}
);
width = 551;
}
);
note = uni00AD;
unicode = 173;
},
{
glyphname = registered;
layers = (
{
layerId = m01;
shapes = (
{
closed = 1;
nodes = (
(352,667,o),
(416,599,o),
(416,502,cs),
(416,405,o),
(352,337,o),
(255,337,cs),
(157,337,o),
(95,405,o),
(95,502,cs),
(95,599,o),
(157,667,o),
(255,667,cs)
);
},
{
closed = 1;
nodes = (
(373,297,o),
(457,384,o),
(457,502,cs),
(457,620,o),
(373,706,o),
(255,706,cs),
(136,706,o),
(52,620,o),
(52,502,cs),
(52,384,o),
(136,297,o),
(255,297,cs)
);
},
{
closed = 1;
nodes = (
(345,585,o),
(315,611,o),
(270,611,cs),
(174,611,l),
(174,396,l),
(226,396,l),
(226,476,l),
(243,476,l),
(291,396,l),
(354,397,l),
(298,480,l),
(327,489,o),
(345,512,o),
(345,544,cs)
);
},
{
closed = 1;
nodes = (
(267,564,ls),
(281,564,o),
(293,558,o),
(293,542,cs),
(293,526,o),
(281,519,o),
(267,519,cs),
(226,519,l),
(226,564,l)
);
}
);
width = 509;
}
);
note = registered;
unicode = 174;
},
{
glyphname = macron;
layers = (
{
layerId = m01;
shapes = (
{
closed = 1;
nodes = (
(17,641,l),
(369,641,l),
(369,709,l),
(17,709,l)
);
}
);
width = 387;
}
);
note = macron;
unicode = 175;
},
{
glyphname = degree;
layers = (
{
layerId = m01;
shapes = (
{
closed = 1;
nodes = (
(28,417,o),
(100,347,o),
(203,347,cs),
(306,347,o),
(381,417,o),
(381,524,cs),
(381,631,o),
(307,699,o),
(205,699,cs),
(103,699,o),
(28,631,o),
(28,524,cs)
);
},
{
closed = 1;
nodes = (
(308,443,o),
(259,402,o),
(203,402,cs),
(146,402,o),
(101,443,o),
(101,524,cs),
(101,603,o),
(148,646,o),
(204,646,cs),
(261,646,o),
(308,603,o),
(308,524,cs)
);
}
);
width = 410;
}
);
note = degree;
unicode = 176;
},
{
glyphname = plusminus;
layers = (
{
layerId = m01;
shapes = (
{
closed = 1;
nodes = (
(301,624,l),
(301,454,l),
(88,454,l),
(88,377,l),
(301,377,l),
(301,195,l),
(88,195,l),
(88,118,l),
(597,118,l),
(597,195,l),
(386,195,l),
(386,377,l),
(597,377,l),
(597,454,l),
(386,454,l),
(386,624,l)
);
}
);
width = 686;
}
);
note = plusminus;
unicode = 177;
},
{
glyphname = twosuperior;
layers = (
{
layerId = m01;
shapes = (
{
closed = 1;
nodes = (
(103,603,l),
(107,635,o),
(125,654,o),
(157,654,cs),
(186,654,o),
(209,634,o),
(209,597,cs),
(209,555,o),
(180,524,o),
(141,492,cs),
(32,404,l),
(32,352,l),
(289,352,l),
(289,411,l),
(113,411,l),
(192,467,ls),
(254,512,o),
(285,547,o),
(285,600,cs),
(285,660,o),
(237,710,o),
(159,710,cs),
(78,710,o),
(33,664,o),
(30,603,c)
);
}
);
width = 330;
}
);
note = twosuperior;
unicode = 178;
},
{
glyphname = threesuperior;
layers = (
{
layerId = m01;
shapes = (
{
closed = 1;
nodes = (
(96,611,l),
(102,637,o),
(122,655,o),
(158,655,cs),
(195,655,o),
(218,634,o),
(218,603,cs),
(218,570,o),
(192,553,o),
(155,553,cs),
(114,553,l),
(114,505,l),
(157,505,ls),
(194,505,o),
(220,486,o),
(220,453,cs),
(220,421,o),
(196,401,o),
(159,401,cs),
(125,401,o),
(100,417,o),
(95,454,c),
(23,454,l),
(28,386,o),
(80,347,o),
(160,347,cs),
(243,347,o),
(298,391,o),
(298,444,cs),
(298,487,o),
(268,515,o),
(233,527,c),
(233,529,l),
(269,539,o),
(295,566,o),
(295,607,cs),
(295,665,o),
(237,710,o),
(163,710,cs),
(84,710,o),
(33,669,o),
(27,611,c)
);
}
);
width = 332;
}
);
note = threesuperior;
unicode = 179;
},
{
glyphname = acute;
layers = (
{
layerId = m01;
shapes = (
{
closed = 1;
nodes = (
(17,657,l),
(17,589,l),
(230,703,l),
(230,782,l)
);
}
);
width = 247;
}
);
note = acute;
unicode = 180;
},
{
glyphname = uni00B5;
layers = (
{
layerId = m01;
shapes = (
{
closed = 1;
nodes = (
(568,548,l),
(477,548,l),
(477,245,ls),
(477,128,o),
(415,69,o),
(323,69,cs),
(231,69,o),
(167,129,o),
(167,248,cs),
(167,548,l),
(77,548,l),
(77,-260,l),
(167,-260,l),
(167,54,l),
(196,8,o),
(245,-9,o),
(295,-9,cs),
(374,-9,o),
(442,27,o),
(477,100,c),
(477,0,l),
(568,0,l)
);
}
);
width = 645;
}
);
note = uni00B5;
unicode = 181;
},
{
glyphname = paragraph;
layers = (
{
layerId = m01;
shapes = (
{
closed = 1;
nodes = (
(268,692,ls),
(106,692,o),
(31,602,o),
(31,488,cs),
(31,375,o),
(105,286,o),
(268,286,cs),
(279,286,l),
(279,0,l),
(360,0,l),
(360,621,l),
(437,621,l),
(437,0,l),
(518,0,l),
(518,692,l)
);
}
);
width = 596;
}
);
note = paragraph;
unicode = 182;
},
{
glyphname = periodcentered;
layers = (
{
layerId = m01;
shapes = (
{
closed = 1;
nodes = (
(169,376,o),
(142,403,o),
(109,403,cs),
(74,403,o),
(47,376,o),
(47,341,cs),
(47,306,o),
(74,279,o),
(109,279,cs),
(142,279,o),
(169,306,o),
(169,341,cs)
);
}
);
width = 212;
}
);
note = periodcentered;
unicode = 183;
},
{
glyphname = cedilla;
layers = (
{
layerId = m01;
shapes = (
{
closed = 1;
nodes = (
(125,7,l),
(64,7,l),
(64,-114,l),
(114,-114,ls),
(157,-114,o),
(178,-126,o),
(178,-157,cs),
(178,-189,o),
(157,-201,o),
(114,-201,cs),
(17,-201,l),
(17,-260,l),
(132,-260,ls),
(203,-260,o),
(254,-220,o),
(254,-157,cs),
(254,-91,o),
(202,-57,o),
(125,-58,c)
);
}
);
width = 272;
}
);
note = cedilla;
unicode = 184;
},
{
glyphname = onesuperior;
layers = (
{
layerId = m01;
shapes = (
{
closed = 1;
nodes = (
(79,352,l),
(151,352,l),
(151,704,l),
(25,704,l),
(25,648,l),
(79,648,l)
);
}
);
width = 196;
}
);
note = onesuperior;
unicode = 185;
},
{
glyphname = ordmasculine;
layers = (
{
layerId = m01;
shapes = (
{
closed = 1;
nodes = (
(33,419,o),
(111,346,o),
(217,346,cs),
(322,346,o),
(403,419,o),
(403,528,cs),
(403,638,o),
(324,709,o),
(218,709,cs),
(113,709,o),
(33,638,o),
(33,528,cs)
);
},
{
closed = 1;
nodes = (
(329,447,o),
(275,404,o),
(217,404,cs),
(157,404,o),
(108,447,o),
(108,527,cs),
(108,609,o),
(159,652,o),
(218,652,cs),
(276,652,o),
(329,609,o),
(329,527,cs)
);
}
);
width = 436;
}
);
note = ordmasculine;
unicode = 186;
},
{
glyphname = guillemotright;
layers = (
{
layerId = m01;
shapes = (
{
closed = 1;
nodes = (
(320,120,l),
(416,295,l),
(320,470,l),
(231,470,l),
(329,295,l),
(231,120,l)
);
},
{
closed = 1;
nodes = (
(139,120,l),
(235,295,l),
(139,470,l),
(50,470,l),
(149,295,l),
(50,120,l)
);
}
);
width = 461;
}
);
note = guillemotright;
unicode = 187;
},
{
glyphname = onequarter;
layers = (
{
layerId = m01;
shapes = (
{
closed = 1;
nodes = (
(62,0,l),
(148,0,l),
(522,698,l),
(436,698,l)
);
},
{
closed = 1;
nodes = (
(556,116,l),
(556,353,l),
(459,353,l),
(301,111,l),
(301,69,l),
(484,69,l),
(484,0,l),
(556,0,l),
(556,69,l),
(604,69,l),
(604,116,l)
);
},
{
closed = 1;
nodes = (
(375,116,l),
(486,291,l),
(486,116,l)
);
},
{
closed = 1;
nodes = (
(92,352,l),
(164,352,l),
(164,704,l),
(38,704,l),
(38,648,l),
(92,648,l)
);
}
);
width = 640;
}
);
note = onequarter;
unicode = 188;
},
{
glyphname = onehalf;
layers = (
{
layerId = m01;
shapes = (
{
closed = 1;
nodes = (
(57,0,l),
(144,0,l),
(509,698,l),
(423,698,l)
);
},
{
closed = 1;
nodes = (
(90,352,l),
(162,352,l),
(162,704,l),
(36,704,l),
(36,648,l),
(90,648,l)
);
},
{
closed = 1;
nodes = (
(441,250,l),
(445,282,o),
(463,301,o),
(495,301,cs),
(524,301,o),
(547,281,o),
(547,244,cs),
(547,202,o),
(518,171,o),
(479,139,cs),
(370,51,l),
(370,-1,l),
(627,-1,l),
(627,58,l),
(451,58,l),
(530,114,ls),
(592,159,o),
(623,194,o),
(623,247,cs),
(623,307,o),
(575,357,o),
(497,357,cs),
(416,357,o),
(371,311,o),
(368,250,c)
);
}
);
width = 675;
}
);
note = onehalf;
unicode = 189;
},
{
glyphname = threequarters;
layers = (
{
layerId = m01;
shapes = (
{
closed = 1;
nodes = (
(143,0,l),
(228,0,l),
(617,698,l),
(531,698,l)
);
},
{
closed = 1;
nodes = (
(635,116,l),
(635,353,l),
(538,353,l),
(380,111,l),
(380,69,l),
(563,69,l),
(563,0,l),
(635,0,l),
(635,69,l),
(682,69,l),
(682,116,l)
);
},
{
closed = 1;
nodes = (
(453,116,l),
(564,291,l),
(564,116,l)
);
},
{
closed = 1;
nodes = (
(108,611,l),
(114,637,o),
(134,655,o),
(170,655,cs),
(207,655,o),
(230,634,o),
(230,603,cs),
(230,570,o),
(204,553,o),
(167,553,cs),
(126,553,l),
(126,505,l),
(169,505,ls),
(206,505,o),
(232,486,o),
(232,453,cs),
(232,421,o),
(208,401,o),
(171,401,cs),
(137,401,o),
(112,417,o),
(107,454,c),
(35,454,l),
(40,386,o),
(92,347,o),
(172,347,cs),
(255,347,o),
(310,391,o),
(310,444,cs),
(310,487,o),
(280,515,o),
(245,527,c),
(245,529,l),
(281,539,o),
(307,566,o),
(307,607,cs),
(307,665,o),
(249,710,o),
(175,710,cs),
(96,710,o),
(45,669,o),
(39,611,c)
);
}
);
width = 709;
}
);
note = threequarters;
unicode = 190;
},
{
glyphname = questiondown;
layers = (
{
layerId = m01;
shapes = (
{
closed = 1;
nodes = (
(399,45,l),
(399,-33,o),
(348,-80,o),
(266,-80,cs),
(185,-80,o),
(133,-30,o),
(133,50,cs),
(133,171,o),
(230,193,o),
(344,193,cs),
(373,193,l),
(369,351,l),
(290,351,l),
(287,256,l),
(147,256,o),
(46,196,o),
(46,50,cs),
(46,-77,o),
(136,-156,o),
(267,-156,cs),
(398,-156,o),
(486,-76,o),
(485,45,c)
);
},
{
closed = 1;
nodes = (
(270,459,o),
(297,432,o),
(330,432,cs),
(365,432,o),
(392,459,o),
(392,494,cs),
(392,529,o),
(365,556,o),
(330,556,cs),
(297,556,o),
(270,529,o),
(270,494,cs)
);
}
);
width = 519;
}
);
note = questiondown;
unicode = 191;
},
{
glyphname = Agrave;
layers = (
{
layerId = m01;
shapes = (
{
closed = 1;
nodes = (
(545,0,l),
(641,0,l),
(390,693,l),
(285,693,l),
(33,0,l),
(129,0,l),
(185,155,l),
(489,155,l)
);
},
{
closed = 1;
nodes = (
(222,848,l),
(435,734,l),
(435,802,l),
(222,927,l)
);
},
{
closed = 1;
nodes = (
(463,229,l),
(211,229,l),
(337,581,l)
);
}
);
width = 674;
}
);
note = Agrave;
unicode = 192;
},
{
glyphname = Aacute;
layers = (
{
layerId = m01;
shapes = (
{
closed = 1;
nodes = (
(545,0,l),
(641,0,l),
(390,693,l),
(285,693,l),
(33,0,l),
(129,0,l),
(185,155,l),
(489,155,l)
);
},
{
closed = 1;
nodes = (
(222,802,l),
(222,734,l),
(435,848,l),
(435,927,l)
);
},
{
closed = 1;
nodes = (
(463,229,l),
(211,229,l),
(337,581,l)
);
}
);
width = 674;
}
);
note = Aacute;
unicode = 193;
},
{
glyphname = Acircumflex;
layers = (
{
layerId = m01;
shapes = (
{
closed = 1;
nodes = (
(545,0,l),
(641,0,l),
(390,693,l),
(285,693,l),
(33,0,l),
(129,0,l),
(185,155,l),
(489,155,l)
);
},
{
closed = 1;
nodes = (
(476,814,l),
(338,897,l),
(199,814,l),
(199,742,l),
(338,827,l),
(476,742,l)
);
},
{
closed = 1;
nodes = (
(463,229,l),
(211,229,l),
(337,581,l)
);
}
);
width = 674;
}
);
note = Acircumflex;
unicode = 194;
},
{
glyphname = Atilde;
layers = (
{
layerId = m01;
shapes = (
{
closed = 1;
nodes = (
(545,0,l),
(641,0,l),
(390,693,l),
(285,693,l),
(33,0,l),
(129,0,l),
(185,155,l),
(489,155,l)
);
},
{
closed = 1;
nodes = (
(243,752,l),
(247,782,o),
(264,796,o),
(286,796,cs),
(326,796,o),
(346,750,o),
(400,750,cs),
(452,750,o),
(492,786,o),
(500,854,c),
(448,854,l),
(444,825,o),
(426,811,o),
(404,811,cs),
(363,811,o),
(343,857,o),
(290,857,cs),
(238,857,o),
(200,821,o),
(190,752,c)
);
},
{
closed = 1;
nodes = (
(463,229,l),
(211,229,l),
(337,581,l)
);
}
);
width = 674;
}
);
note = Atilde;
unicode = 195;
},
{
glyphname = Adieresis;
layers = (
{
layerId = m01;
shapes = (
{
closed = 1;
nodes = (
(545,0,l),
(641,0,l),
(390,693,l),
(285,693,l),
(33,0,l),
(129,0,l),
(185,155,l),
(489,155,l)
);
},
{
closed = 1;
nodes = (
(285,767,o),
(309,790,o),
(309,819,cs),
(309,848,o),
(285,872,o),
(257,872,cs),
(227,872,o),
(204,848,o),
(204,819,cs),
(204,790,o),
(227,767,o),
(257,767,cs)
);
},
{
closed = 1;
nodes = (
(448,767,o),
(472,790,o),
(472,819,cs),
(472,848,o),
(448,872,o),
(419,872,cs),
(389,872,o),
(367,848,o),
(367,819,cs),
(367,790,o),
(389,767,o),
(419,767,cs)
);
},
{
closed = 1;
nodes = (
(463,229,l),
(211,229,l),
(337,581,l)
);
}
);
width = 674;
}
);
note = Adieresis;
unicode = 196;
},
{
glyphname = Aring;
layers = (
{
layerId = m01;
shapes = (
{
closed = 1;
nodes = (
(545,0,l),
(641,0,l),
(390,693,l),
(285,693,l),
(33,0,l),
(129,0,l),
(185,155,l),
(489,155,l)
);
},
{
closed = 1;
nodes = (
(308,801,o),
(284,824,o),
(284,858,cs),
(284,892,o),
(308,914,o),
(338,914,cs),
(368,914,o),
(392,892,o),
(392,858,cs),
(392,824,o),
(368,801,o),
(338,801,cs)
);
},
{
closed = 1;
nodes = (
(280,962,o),
(231,922,o),
(231,857,cs),
(231,792,o),
(280,752,o),
(338,752,cs),
(397,752,o),
(445,792,o),
(445,857,cs),
(445,922,o),
(397,962,o),
(338,962,cs)
);
},
{
closed = 1;
nodes = (
(463,229,l),
(211,229,l),
(337,581,l)
);
}
);
width = 674;
}
);
note = Aring;
unicode = 197;
},
{
glyphname = AE;
layers = (
{
layerId = m01;
shapes = (
{
closed = 1;
nodes = (
(465,629,l),
(465,226,l),
(238,226,l)
);
},
{
closed = 1;
nodes = (
(838,626,l),
(838,698,l),
(407,698,l),
(12,0,l),
(111,0,l),
(198,155,l),
(465,155,l),
(465,0,l),
(838,0,l),
(838,72,l),
(556,72,l),
(556,317,l),
(808,317,l),
(808,387,l),
(556,387,l),
(556,626,l)
);
}
);
width = 900;
}
);
note = AE;
unicode = 198;
},
{
glyphname = Ccedilla;
layers = (
{
layerId = m01;
shapes = (
{
closed = 1;
nodes = (
(43,149,o),
(183,7,o),
(365,-5,c),
(365,-114,l),
(415,-114,ls),
(458,-114,o),
(479,-126,o),
(479,-157,cs),
(479,-189,o),
(458,-201,o),
(415,-201,cs),
(318,-201,l),
(318,-260,l),
(433,-260,ls),
(504,-260,o),
(555,-220,o),
(555,-157,cs),
(555,-91,o),
(503,-57,o),
(426,-58,c),
(426,-5,l),
(560,6,o),
(666,80,o),
(714,203,c),
(605,203,l),
(567,120,o),
(493,73,o),
(391,73,cs),
(245,73,o),
(136,179,o),
(136,349,cs),
(136,520,o),
(245,626,o),
(391,626,cs),
(493,626,o),
(567,579,o),
(605,495,c),
(714,495,l),
(662,630,o),
(542,706,o),
(391,706,cs),
(196,706,o),
(43,558,o),
(43,349,cs)
);
}
);
width = 772;
}
);
note = Ccedilla;
unicode = 199;
},
{
glyphname = Egrave;
layers = (
{
layerId = m01;
shapes = (
{
closed = 1;
nodes = (
(452,698,l),
(77,698,l),
(77,0,l),
(452,0,l),
(452,75,l),
(168,75,l),
(168,315,l),
(422,315,l),
(422,390,l),
(168,390,l),
(168,623,l),
(452,623,l)
);
},
{
closed = 1;
nodes = (
(139,848,l),
(352,734,l),
(352,802,l),
(139,927,l)
);
}
);
width = 513;
}
);
note = Egrave;
unicode = 200;
},
{
glyphname = Eacute;
layers = (
{
layerId = m01;
shapes = (
{
closed = 1;
nodes = (
(452,698,l),
(77,698,l),
(77,0,l),
(452,0,l),
(452,75,l),
(168,75,l),
(168,315,l),
(422,315,l),
(422,390,l),
(168,390,l),
(168,623,l),
(452,623,l)
);
},
{
closed = 1;
nodes = (
(139,802,l),
(139,734,l),
(352,848,l),
(352,927,l)
);
}
);
width = 513;
}
);
note = Eacute;
unicode = 201;
},
{
glyphname = Ecircumflex;
layers = (
{
layerId = m01;
shapes = (
{
closed = 1;
nodes = (
(452,698,l),
(77,698,l),
(77,0,l),
(452,0,l),
(452,75,l),
(168,75,l),
(168,315,l),
(422,315,l),
(422,390,l),
(168,390,l),
(168,623,l),
(452,623,l)
);
},
{
closed = 1;
nodes = (
(393,814,l),
(255,897,l),
(116,814,l),
(116,742,l),
(255,827,l),
(393,742,l)
);
}
);
width = 513;
}
);
note = Ecircumflex;
unicode = 202;
},
{
glyphname = Edieresis;
layers = (
{
layerId = m01;
shapes = (
{
closed = 1;
nodes = (
(452,698,l),
(77,698,l),
(77,0,l),
(452,0,l),
(452,75,l),
(168,75,l),
(168,315,l),
(422,315,l),
(422,390,l),
(168,390,l),
(168,623,l),
(452,623,l)
);
},
{
closed = 1;
nodes = (
(202,767,o),
(226,790,o),
(226,819,cs),
(226,848,o),
(202,872,o),
(174,872,cs),
(144,872,o),
(121,848,o),
(121,819,cs),
(121,790,o),
(144,767,o),
(174,767,cs)
);
},
{
closed = 1;
nodes = (
(365,767,o),
(389,790,o),
(389,819,cs),
(389,848,o),
(365,872,o),
(336,872,cs),
(306,872,o),
(284,848,o),
(284,819,cs),
(284,790,o),
(306,767,o),
(336,767,cs)
);
}
);
width = 513;
}
);
note = Edieresis;
unicode = 203;
},
{
glyphname = Igrave;
layers = (
{
layerId = m01;
shapes = (
{
closed = 1;
nodes = (
(77,0,l),
(168,0,l),
(168,697,l),
(77,697,l)
);
},
{
closed = 1;
nodes = (
(7,848,l),
(220,734,l),
(220,802,l),
(7,927,l)
);
}
);
width = 246;
}
);
note = Igrave;
unicode = 204;
},
{
glyphname = Iacute;
layers = (
{
layerId = m01;
shapes = (
{
closed = 1;
nodes = (
(77,0,l),
(168,0,l),
(168,697,l),
(77,697,l)
);
},
{
closed = 1;
nodes = (
(7,802,l),
(7,734,l),
(220,848,l),
(220,927,l)
);
}
);
width = 246;
}
);
note = Iacute;
unicode = 205;
},
{
glyphname = Icircumflex;
layers = (
{
layerId = m01;
shapes = (
{
closed = 1;
nodes = (
(77,0,l),
(168,0,l),
(168,697,l),
(77,697,l)
);
},
{
closed = 1;
nodes = (
(261,814,l),
(123,897,l),
(-16,814,l),
(-16,742,l),
(123,827,l),
(261,742,l)
);
}
);
width = 246;
}
);
note = Icircumflex;
unicode = 206;
},
{
glyphname = Idieresis;
layers = (
{
layerId = m01;
shapes = (
{
closed = 1;
nodes = (
(77,0,l),
(168,0,l),
(168,697,l),
(77,697,l)
);
},
{
closed = 1;
nodes = (
(70,767,o),
(94,790,o),
(94,819,cs),
(94,848,o),
(70,872,o),
(42,872,cs),
(12,872,o),
(-11,848,o),
(-11,819,cs),
(-11,790,o),
(12,767,o),
(42,767,cs)
);
},
{
closed = 1;
nodes = (
(233,767,o),
(257,790,o),
(257,819,cs),
(257,848,o),
(233,872,o),
(204,872,cs),
(174,872,o),
(152,848,o),
(152,819,cs),
(152,790,o),
(174,767,o),
(204,767,cs)
);
}
);
width = 246;
}
);
note = Idieresis;
unicode = 207;
},
{
glyphname = Eth;
layers = (
{
layerId = m01;
shapes = (
{
closed = 1;
nodes = (
(96,697,l),
(96,389,l),
(9,389,l),
(9,305,l),
(96,305,l),
(96,0,l),
(313,0,ls),
(541,0,o),
(682,131,o),
(682,347,cs),
(682,563,o),
(541,697,o),
(313,697,cs)
);
},
{
closed = 1;
nodes = (
(187,70,l),
(187,305,l),
(379,305,l),
(379,389,l),
(187,389,l),
(187,623,l),
(313,623,ls),
(494,623,o),
(589,517,o),
(589,347,cs),
(589,177,o),
(494,70,o),
(313,70,cs)
);
}
);
width = 725;
}
);
note = Eth;
unicode = 208;
},
{
glyphname = Ntilde;
layers = (
{
layerId = m01;
shapes = (
{
closed = 1;
nodes = (
(534,698,l),
(534,144,l),
(168,698,l),
(77,698,l),
(77,0,l),
(168,0,l),
(168,555,l),
(534,0,l),
(625,0,l),
(625,698,l)
);
},
{
closed = 1;
nodes = (
(258,752,l),
(262,782,o),
(279,796,o),
(301,796,cs),
(341,796,o),
(361,750,o),
(415,750,cs),
(467,750,o),
(507,786,o),
(515,854,c),
(463,854,l),
(459,825,o),
(441,811,o),
(419,811,cs),
(378,811,o),
(358,857,o),
(305,857,cs),
(253,857,o),
(215,821,o),
(205,752,c)
);
}
);
width = 703;
}
);
note = Ntilde;
unicode = 209;
},
{
glyphname = Ograve;
layers = (
{
layerId = m01;
shapes = (
{
closed = 1;
nodes = (
(743,558,o),
(590,705,o),
(393,705,cs),
(197,705,o),
(43,558,o),
(43,349,cs),
(43,140,o),
(197,-7,o),
(393,-7,cs),
(590,-7,o),
(743,140,o),
(743,349,cs)
);
},
{
closed = 1;
nodes = (
(136,520,o),
(246,626,o),
(393,626,cs),
(540,626,o),
(650,520,o),
(650,349,cs),
(650,179,o),
(540,72,o),
(393,72,cs),
(246,72,o),
(136,179,o),
(136,349,cs)
);
},
{
closed = 1;
nodes = (
(280,848,l),
(493,734,l),
(493,802,l),
(280,927,l)
);
}
);
width = 786;
}
);
note = Ograve;
unicode = 210;
},
{
glyphname = Oacute;
layers = (
{
layerId = m01;
shapes = (
{
closed = 1;
nodes = (
(743,558,o),
(590,705,o),
(393,705,cs),
(197,705,o),
(43,558,o),
(43,349,cs),
(43,140,o),
(197,-7,o),
(393,-7,cs),
(590,-7,o),
(743,140,o),
(743,349,cs)
);
},
{
closed = 1;
nodes = (
(136,520,o),
(246,626,o),
(393,626,cs),
(540,626,o),
(650,520,o),
(650,349,cs),
(650,179,o),
(540,72,o),
(393,72,cs),
(246,72,o),
(136,179,o),
(136,349,cs)
);
},
{
closed = 1;
nodes = (
(280,802,l),
(280,734,l),
(493,848,l),
(493,927,l)
);
}
);
width = 786;
}
);
note = Oacute;
unicode = 211;
},
{
glyphname = Ocircumflex;
layers = (
{
layerId = m01;
shapes = (
{
closed = 1;
nodes = (
(743,558,o),
(590,705,o),
(393,705,cs),
(197,705,o),
(43,558,o),
(43,349,cs),
(43,140,o),
(197,-7,o),
(393,-7,cs),
(590,-7,o),
(743,140,o),
(743,349,cs)
);
},
{
closed = 1;
nodes = (
(136,520,o),
(246,626,o),
(393,626,cs),
(540,626,o),
(650,520,o),
(650,349,cs),
(650,179,o),
(540,72,o),
(393,72,cs),
(246,72,o),
(136,179,o),
(136,349,cs)
);
},
{
closed = 1;
nodes = (
(534,814,l),
(396,897,l),
(257,814,l),
(257,742,l),
(396,827,l),
(534,742,l)
);
}
);
width = 786;
}
);
note = Ocircumflex;
unicode = 212;
},
{
glyphname = Otilde;
layers = (
{
layerId = m01;
shapes = (
{
closed = 1;
nodes = (
(743,558,o),
(590,705,o),
(393,705,cs),
(197,705,o),
(43,558,o),
(43,349,cs),
(43,140,o),
(197,-7,o),
(393,-7,cs),
(590,-7,o),
(743,140,o),
(743,349,cs)
);
},
{
closed = 1;
nodes = (
(136,520,o),
(246,626,o),
(393,626,cs),
(540,626,o),
(650,520,o),
(650,349,cs),
(650,179,o),
(540,72,o),
(393,72,cs),
(246,72,o),
(136,179,o),
(136,349,cs)
);
},
{
closed = 1;
nodes = (
(302,752,l),
(306,782,o),
(323,796,o),
(345,796,cs),
(385,796,o),
(405,750,o),
(459,750,cs),
(511,750,o),
(551,786,o),
(559,854,c),
(507,854,l),
(503,825,o),
(485,811,o),
(463,811,cs),
(422,811,o),
(402,857,o),
(349,857,cs),
(297,857,o),
(259,821,o),
(249,752,c)
);
}
);
width = 786;
}
);
note = Otilde;
unicode = 213;
},
{
glyphname = Odieresis;
layers = (
{
layerId = m01;
shapes = (
{
closed = 1;
nodes = (
(743,558,o),
(590,705,o),
(393,705,cs),
(197,705,o),
(43,558,o),
(43,349,cs),
(43,140,o),
(197,-7,o),
(393,-7,cs),
(590,-7,o),
(743,140,o),
(743,349,cs)
);
},
{
closed = 1;
nodes = (
(136,520,o),
(246,626,o),
(393,626,cs),
(540,626,o),
(650,520,o),
(650,349,cs),
(650,179,o),
(540,72,o),
(393,72,cs),
(246,72,o),
(136,179,o),
(136,349,cs)
);
},
{
closed = 1;
nodes = (
(343,767,o),
(367,790,o),
(367,819,cs),
(367,848,o),
(343,872,o),
(315,872,cs),
(285,872,o),
(262,848,o),
(262,819,cs),
(262,790,o),
(285,767,o),
(315,767,cs)
);
},
{
closed = 1;
nodes = (
(506,767,o),
(530,790,o),
(530,819,cs),
(530,848,o),
(506,872,o),
(477,872,cs),
(447,872,o),
(425,848,o),
(425,819,cs),
(425,790,o),
(447,767,o),
(477,767,cs)
);
}
);
width = 786;
}
);
note = Odieresis;
unicode = 214;
},
{
glyphname = multiply;
layers = (
{
layerId = m01;
shapes = (
{
closed = 1;
nodes = (
(163,150,l),
(322,309,l),
(481,150,l),
(539,208,l),
(381,367,l),
(538,524,l),
(478,584,l),
(321,427,l),
(164,584,l),
(106,525,l),
(262,369,l),
(103,210,l)
);
}
);
width = 643;
}
);
note = multiply;
unicode = 215;
},
{
glyphname = Oslash;
layers = (
{
layerId = m01;
shapes = (
{
closed = 1;
nodes = (
(743,447,o),
(710,531,o),
(654,593,c),
(751,698,l),
(677,698,l),
(614,630,l),
(555,678,o),
(478,705,o),
(393,705,cs),
(197,705,o),
(43,558,o),
(43,349,cs),
(43,252,o),
(77,168,o),
(132,106,c),
(35,0,l),
(109,0,l),
(172,68,l),
(232,20,o),
(308,-7,o),
(393,-7,cs),
(590,-7,o),
(743,140,o),
(743,349,cs)
);
},
{
closed = 1;
nodes = (
(136,520,o),
(246,626,o),
(393,626,cs),
(457,626,o),
(514,606,o),
(558,569,c),
(191,169,l),
(156,215,o),
(136,276,o),
(136,349,cs)
);
},
{
closed = 1;
nodes = (
(329,72,o),
(272,92,o),
(228,129,c),
(596,529,l),
(630,483,o),
(650,422,o),
(650,349,cs),
(650,179,o),
(540,72,o),
(393,72,cs)
);
}
);
width = 786;
}
);
note = Oslash;
unicode = 216;
},
{
glyphname = Ugrave;
layers = (
{
layerId = m01;
shapes = (
{
closed = 1;
nodes = (
(75,257,ls),
(75,76,o),
(193,-7,o),
(337,-7,cs),
(481,-7,o),
(600,76,o),
(600,257,cs),
(600,697,l),
(509,697,l),
(509,256,ls),
(509,128,o),
(441,73,o),
(338,73,cs),
(235,73,o),
(166,128,o),
(166,256,cs),
(166,697,l),
(75,697,l)
);
},
{
closed = 1;
nodes = (
(222,848,l),
(435,734,l),
(435,802,l),
(222,927,l)
);
}
);
width = 675;
}
);
note = Ugrave;
unicode = 217;
},
{
glyphname = Uacute;
layers = (
{
layerId = m01;
shapes = (
{
closed = 1;
nodes = (
(75,257,ls),
(75,76,o),
(193,-7,o),
(337,-7,cs),
(481,-7,o),
(600,76,o),
(600,257,cs),
(600,697,l),
(509,697,l),
(509,256,ls),
(509,128,o),
(441,73,o),
(338,73,cs),
(235,73,o),
(166,128,o),
(166,256,cs),
(166,697,l),
(75,697,l)
);
},
{
closed = 1;
nodes = (
(222,802,l),
(222,734,l),
(435,848,l),
(435,927,l)
);
}
);
width = 675;
}
);
note = Uacute;
unicode = 218;
},
{
glyphname = Ucircumflex;
layers = (
{
layerId = m01;
shapes = (
{
closed = 1;
nodes = (
(75,257,ls),
(75,76,o),
(193,-7,o),
(337,-7,cs),
(481,-7,o),
(600,76,o),
(600,257,cs),
(600,697,l),
(509,697,l),
(509,256,ls),
(509,128,o),
(441,73,o),
(338,73,cs),
(235,73,o),
(166,128,o),
(166,256,cs),
(166,697,l),
(75,697,l)
);
},
{
closed = 1;
nodes = (
(476,814,l),
(338,897,l),
(199,814,l),
(199,742,l),
(338,827,l),
(476,742,l)
);
}
);
width = 675;
}
);
note = Ucircumflex;
unicode = 219;
},
{
glyphname = Udieresis;
layers = (
{
layerId = m01;
shapes = (
{
closed = 1;
nodes = (
(75,257,ls),
(75,76,o),
(193,-7,o),
(337,-7,cs),
(481,-7,o),
(600,76,o),
(600,257,cs),
(600,697,l),
(509,697,l),
(509,256,ls),
(509,128,o),
(441,73,o),
(338,73,cs),
(235,73,o),
(166,128,o),
(166,256,cs),
(166,697,l),
(75,697,l)
);
},
{
closed = 1;
nodes = (
(285,767,o),
(309,790,o),
(309,819,cs),
(309,848,o),
(285,872,o),
(257,872,cs),
(227,872,o),
(204,848,o),
(204,819,cs),
(204,790,o),
(227,767,o),
(257,767,cs)
);
},
{
closed = 1;
nodes = (
(448,767,o),
(472,790,o),
(472,819,cs),
(472,848,o),
(448,872,o),
(419,872,cs),
(389,872,o),
(367,848,o),
(367,819,cs),
(367,790,o),
(389,767,o),
(419,767,cs)
);
}
);
width = 675;
}
);
note = Udieresis;
unicode = 220;
},
{
glyphname = Yacute;
layers = (
{
layerId = m01;
shapes = (
{
closed = 1;
nodes = (
(247,263,l),
(247,0,l),
(338,0,l),
(338,263,l),
(565,697,l),
(464,697,l),
(292,344,l),
(120,697,l),
(19,697,l)
);
},
{
closed = 1;
nodes = (
(177,802,l),
(177,734,l),
(390,848,l),
(390,927,l)
);
}
);
width = 584;
}
);
note = Yacute;
unicode = 221;
},
{
glyphname = Thorn;
layers = (
{
layerId = m01;
shapes = (
{
closed = 1;
nodes = (
(168,219,l),
(168,481,l),
(302,481,ls),
(406,481,o),
(450,429,o),
(450,349,cs),
(450,271,o),
(406,219,o),
(302,219,cs)
);
},
{
closed = 1;
nodes = (
(543,463,o),
(466,553,o),
(302,553,cs),
(168,553,l),
(168,698,l),
(77,698,l),
(77,0,l),
(168,0,l),
(168,146,l),
(302,146,ls),
(475,146,o),
(543,242,o),
(543,349,cs)
);
}
);
width = 579;
}
);
note = Thorn;
unicode = 222;
},
{
glyphname = germandbls;
layers = (
{
layerId = m01;
shapes = (
{
closed = 1;
nodes = (
(60,0,l),
(151,0,l),
(151,550,ls),
(151,640,o),
(192,694,o),
(294,694,cs),
(373,694,o),
(423,658,o),
(423,598,cs),
(423,510,o),
(281,477,o),
(281,375,cs),
(281,312,o),
(326,277,o),
(431,242,cs),
(505,218,o),
(530,192,o),
(530,144,cs),
(530,92,o),
(495,63,o),
(433,63,cs),
(365,63,o),
(325,106,o),
(321,170,c),
(229,170,l),
(239,57,o),
(318,-10,o),
(433,-10,cs),
(553,-10,o),
(623,56,o),
(623,151,cs),
(623,228,o),
(583,279,o),
(484,311,cs),
(395,341,o),
(373,359,o),
(373,387,cs),
(373,446,o),
(514,481,o),
(514,605,cs),
(514,691,o),
(439,771,o),
(295,771,cs),
(134,771,o),
(60,678,o),
(60,561,cs)
);
}
);
width = 681;
}
);
note = germandbls;
unicode = 223;
},
{
glyphname = agrave;
layers = (
{
layerId = m01;
shapes = (
{
closed = 1;
nodes = (
(43,106,o),
(156,-9,o),
(302,-9,cs),
(403,-9,o),
(474,43,o),
(507,102,c),
(507,0,l),
(599,0,l),
(599,548,l),
(507,548,l),
(507,448,l),
(475,505,o),
(405,557,o),
(303,557,cs),
(156,557,o),
(43,447,o),
(43,276,cs)
);
},
{
closed = 1;
nodes = (
(507,146,o),
(421,71,o),
(321,71,cs),
(221,71,o),
(136,147,o),
(136,276,cs),
(136,405,o),
(221,478,o),
(321,478,cs),
(421,478,o),
(507,402,o),
(507,275,cs)
);
},
{
closed = 1;
nodes = (
(223,703,l),
(436,589,l),
(436,657,l),
(223,782,l)
);
}
);
width = 676;
}
);
note = agrave;
unicode = 224;
},
{
glyphname = aacute;
layers = (
{
layerId = m01;
shapes = (
{
closed = 1;
nodes = (
(43,106,o),
(156,-9,o),
(302,-9,cs),
(403,-9,o),
(474,43,o),
(507,102,c),
(507,0,l),
(599,0,l),
(599,548,l),
(507,548,l),
(507,448,l),
(475,505,o),
(405,557,o),
(303,557,cs),
(156,557,o),
(43,447,o),
(43,276,cs)
);
},
{
closed = 1;
nodes = (
(507,146,o),
(421,71,o),
(321,71,cs),
(221,71,o),
(136,147,o),
(136,276,cs),
(136,405,o),
(221,478,o),
(321,478,cs),
(421,478,o),
(507,402,o),
(507,275,cs)
);
},
{
closed = 1;
nodes = (
(223,657,l),
(223,589,l),
(436,703,l),
(436,782,l)
);
}
);
width = 676;
}
);
note = aacute;
unicode = 225;
},
{
glyphname = acircumflex;
layers = (
{
layerId = m01;
shapes = (
{
closed = 1;
nodes = (
(43,106,o),
(156,-9,o),
(302,-9,cs),
(403,-9,o),
(474,43,o),
(507,102,c),
(507,0,l),
(599,0,l),
(599,548,l),
(507,548,l),
(507,448,l),
(475,505,o),
(405,557,o),
(303,557,cs),
(156,557,o),
(43,447,o),
(43,276,cs)
);
},
{
closed = 1;
nodes = (
(507,146,o),
(421,71,o),
(321,71,cs),
(221,71,o),
(136,147,o),
(136,276,cs),
(136,405,o),
(221,478,o),
(321,478,cs),
(421,478,o),
(507,402,o),
(507,275,cs)
);
},
{
closed = 1;
nodes = (
(477,669,l),
(339,752,l),
(200,669,l),
(200,597,l),
(339,682,l),
(477,597,l)
);
}
);
width = 676;
}
);
note = acircumflex;
unicode = 226;
},
{
glyphname = atilde;
layers = (
{
layerId = m01;
shapes = (
{
closed = 1;
nodes = (
(43,106,o),
(156,-9,o),
(302,-9,cs),
(403,-9,o),
(474,43,o),
(507,102,c),
(507,0,l),
(599,0,l),
(599,548,l),
(507,548,l),
(507,448,l),
(475,505,o),
(405,557,o),
(303,557,cs),
(156,557,o),
(43,447,o),
(43,276,cs)
);
},
{
closed = 1;
nodes = (
(507,146,o),
(421,71,o),
(321,71,cs),
(221,71,o),
(136,147,o),
(136,276,cs),
(136,405,o),
(221,478,o),
(321,478,cs),
(421,478,o),
(507,402,o),
(507,275,cs)
);
},
{
closed = 1;
nodes = (
(245,607,l),
(249,637,o),
(266,651,o),
(288,651,cs),
(328,651,o),
(348,605,o),
(402,605,cs),
(454,605,o),
(494,641,o),
(502,709,c),
(450,709,l),
(446,680,o),
(428,666,o),
(406,666,cs),
(365,666,o),
(345,712,o),
(292,712,cs),
(240,712,o),
(202,676,o),
(192,607,c)
);
}
);
width = 676;
}
);
note = atilde;
unicode = 227;
},
{
glyphname = adieresis;
layers = (
{
layerId = m01;
shapes = (
{
closed = 1;
nodes = (
(43,106,o),
(156,-9,o),
(302,-9,cs),
(403,-9,o),
(474,43,o),
(507,102,c),
(507,0,l),
(599,0,l),
(599,548,l),
(507,548,l),
(507,448,l),
(475,505,o),
(405,557,o),
(303,557,cs),
(156,557,o),
(43,447,o),
(43,276,cs)
);
},
{
closed = 1;
nodes = (
(507,146,o),
(421,71,o),
(321,71,cs),
(221,71,o),
(136,147,o),
(136,276,cs),
(136,405,o),
(221,478,o),
(321,478,cs),
(421,478,o),
(507,402,o),
(507,275,cs)
);
},
{
closed = 1;
nodes = (
(286,622,o),
(310,645,o),
(310,674,cs),
(310,703,o),
(286,727,o),
(258,727,cs),
(228,727,o),
(205,703,o),
(205,674,cs),
(205,645,o),
(228,622,o),
(258,622,cs)
);
},
{
closed = 1;
nodes = (
(449,622,o),
(473,645,o),
(473,674,cs),
(473,703,o),
(449,727,o),
(420,727,cs),
(390,727,o),
(368,703,o),
(368,674,cs),
(368,645,o),
(390,622,o),
(420,622,cs)
);
}
);
width = 676;
}
);
note = adieresis;
unicode = 228;
},
{
glyphname = aring;
layers = (
{
layerId = m01;
shapes = (
{
closed = 1;
nodes = (
(43,106,o),
(156,-9,o),
(302,-9,cs),
(403,-9,o),
(474,43,o),
(507,102,c),
(507,0,l),
(599,0,l),
(599,548,l),
(507,548,l),
(507,448,l),
(475,505,o),
(405,557,o),
(303,557,cs),
(156,557,o),
(43,447,o),
(43,276,cs)
);
},
{
closed = 1;
nodes = (
(507,146,o),
(421,71,o),
(321,71,cs),
(221,71,o),
(136,147,o),
(136,276,cs),
(136,405,o),
(221,478,o),
(321,478,cs),
(421,478,o),
(507,402,o),
(507,275,cs)
);
},
{
closed = 1;
nodes = (
(281,817,o),
(232,777,o),
(232,712,cs),
(232,647,o),
(281,607,o),
(339,607,cs),
(398,607,o),
(446,647,o),
(446,712,cs),
(446,777,o),
(398,817,o),
(339,817,cs)
);
},
{
closed = 1;
nodes = (
(309,656,o),
(285,679,o),
(285,713,cs),
(285,747,o),
(309,769,o),
(339,769,cs),
(369,769,o),
(393,747,o),
(393,713,cs),
(393,679,o),
(369,656,o),
(339,656,cs)
);
}
);
width = 676;
}
);
note = aring;
unicode = 229;
},
{
glyphname = ae;
layers = (
{
layerId = m01;
shapes = (
{
closed = 1;
nodes = (
(881,480,o),
(962,418,o),
(961,309,c),
(600,309,l),
(610,417,o),
(691,480,o),
(784,480,cs)
);
},
{
closed = 1;
nodes = (
(945,169,l),
(927,109,o),
(870,68,o),
(783,68,cs),
(698,68,o),
(610,126,o),
(600,243,c),
(1051,243,l),
(1054,262,o),
(1055,278,o),
(1055,297,cs),
(1055,442,o),
(954,557,o),
(798,557,cs),
(711,557,o),
(639,524,o),
(589,447,c),
(589,548,l),
(513,548,l),
(513,447,l),
(469,517,o),
(399,557,o),
(308,557,cs),
(156,557,o),
(43,447,o),
(43,276,cs),
(43,106,o),
(156,-9,o),
(303,-9,cs),
(399,-9,o),
(472,41,o),
(510,105,c),
(510,0,l),
(589,0,l),
(589,106,l),
(628,36,o),
(708,-9,o),
(798,-9,cs),
(929,-9,o),
(1015,69,o),
(1043,169,c)
);
},
{
closed = 1;
nodes = (
(136,405,o),
(221,478,o),
(321,478,cs),
(421,478,o),
(507,402,o),
(507,275,cs),
(507,146,o),
(421,71,o),
(321,71,cs),
(221,71,o),
(136,147,o),
(136,276,cs)
);
}
);
width = 1097;
}
);
note = ae;
unicode = 230;
},
{
glyphname = ccedilla;
layers = (
{
layerId = m01;
shapes = (
{
closed = 1;
nodes = (
(43,114,o),
(139,7,o),
(277,-7,c),
(277,-114,l),
(327,-114,ls),
(370,-114,o),
(391,-126,o),
(391,-157,cs),
(391,-189,o),
(370,-201,o),
(327,-201,cs),
(230,-201,l),
(230,-260,l),
(345,-260,ls),
(416,-260,o),
(467,-220,o),
(467,-157,cs),
(467,-91,o),
(415,-57,o),
(338,-58,c),
(338,-8,l),
(458,2,o),
(537,75,o),
(563,176,c),
(465,176,l),
(445,107,o),
(391,68,o),
(310,68,cs),
(210,68,o),
(136,139,o),
(136,275,cs),
(136,409,o),
(210,480,o),
(310,480,cs),
(391,480,o),
(446,438,o),
(465,372,c),
(563,372,l),
(535,487,o),
(446,557,o),
(310,557,cs),
(154,557,o),
(43,447,o),
(43,275,cs)
);
}
);
width = 607;
}
);
note = ccedilla;
unicode = 231;
},
{
glyphname = egrave;
layers = (
{
layerId = m01;
shapes = (
{
closed = 1;
nodes = (
(404,480,o),
(484,421,o),
(483,314,c),
(137,314,l),
(147,421,o),
(221,480,o),
(310,480,cs)
);
},
{
closed = 1;
nodes = (
(468,169,l),
(448,110,o),
(396,68,o),
(314,68,cs),
(221,68,o),
(143,129,o),
(136,240,c),
(574,240,l),
(576,259,o),
(577,275,o),
(577,295,cs),
(577,445,o),
(473,557,o),
(314,557,cs),
(154,557,o),
(43,448,o),
(43,275,cs),
(43,101,o),
(158,-9,o),
(314,-9,cs),
(450,-9,o),
(538,69,o),
(566,169,c)
);
},
{
closed = 1;
nodes = (
(195,703,l),
(408,589,l),
(408,657,l),
(195,782,l)
);
}
);
width = 620;
}
);
note = egrave;
unicode = 232;
},
{
glyphname = eacute;
layers = (
{
layerId = m01;
shapes = (
{
closed = 1;
nodes = (
(404,480,o),
(484,421,o),
(483,314,c),
(137,314,l),
(147,421,o),
(221,480,o),
(310,480,cs)
);
},
{
closed = 1;
nodes = (
(468,169,l),
(448,110,o),
(396,68,o),
(314,68,cs),
(221,68,o),
(143,129,o),
(136,240,c),
(574,240,l),
(576,259,o),
(577,275,o),
(577,295,cs),
(577,445,o),
(473,557,o),
(314,557,cs),
(154,557,o),
(43,448,o),
(43,275,cs),
(43,101,o),
(158,-9,o),
(314,-9,cs),
(450,-9,o),
(538,69,o),
(566,169,c)
);
},
{
closed = 1;
nodes = (
(195,657,l),
(195,589,l),
(408,703,l),
(408,782,l)
);
}
);
width = 620;
}
);
note = eacute;
unicode = 233;
},
{
glyphname = ecircumflex;
layers = (
{
layerId = m01;
shapes = (
{
closed = 1;
nodes = (
(404,480,o),
(484,421,o),
(483,314,c),
(137,314,l),
(147,421,o),
(221,480,o),
(310,480,cs)
);
},
{
closed = 1;
nodes = (
(468,169,l),
(448,110,o),
(396,68,o),
(314,68,cs),
(221,68,o),
(143,129,o),
(136,240,c),
(574,240,l),
(576,259,o),
(577,275,o),
(577,295,cs),
(577,445,o),
(473,557,o),
(314,557,cs),
(154,557,o),
(43,448,o),
(43,275,cs),
(43,101,o),
(158,-9,o),
(314,-9,cs),
(450,-9,o),
(538,69,o),
(566,169,c)
);
},
{
closed = 1;
nodes = (
(449,669,l),
(311,752,l),
(172,669,l),
(172,597,l),
(311,682,l),
(449,597,l)
);
}
);
width = 620;
}
);
note = ecircumflex;
unicode = 234;
},
{
glyphname = edieresis;
layers = (
{
layerId = m01;
shapes = (
{
closed = 1;
nodes = (
(404,480,o),
(484,421,o),
(483,314,c),
(137,314,l),
(147,421,o),
(221,480,o),
(310,480,cs)
);
},
{
closed = 1;
nodes = (
(468,169,l),
(448,110,o),
(396,68,o),
(314,68,cs),
(221,68,o),
(143,129,o),
(136,240,c),
(574,240,l),
(576,259,o),
(577,275,o),
(577,295,cs),
(577,445,o),
(473,557,o),
(314,557,cs),
(154,557,o),
(43,448,o),
(43,275,cs),
(43,101,o),
(158,-9,o),
(314,-9,cs),
(450,-9,o),
(538,69,o),
(566,169,c)
);
},
{
closed = 1;
nodes = (
(257,622,o),
(281,645,o),
(281,674,cs),
(281,703,o),
(257,727,o),
(229,727,cs),
(199,727,o),
(176,703,o),
(176,674,cs),
(176,645,o),
(199,622,o),
(229,622,cs)
);
},
{
closed = 1;
nodes = (
(420,622,o),
(444,645,o),
(444,674,cs),
(444,703,o),
(420,727,o),
(391,727,cs),
(361,727,o),
(339,703,o),
(339,674,cs),
(339,645,o),
(361,622,o),
(391,622,cs)
);
}
);
width = 620;
}
);
note = edieresis;
unicode = 235;
},
{
glyphname = igrave;
layers = (
{
layerId = m01;
shapes = (
{
closed = 1;
nodes = (
(77,0,l),
(168,0,l),
(168,548,l),
(77,548,l)
);
},
{
closed = 1;
nodes = (
(7,703,l),
(220,589,l),
(220,657,l),
(7,782,l)
);
}
);
width = 246;
}
);
note = igrave;
unicode = 236;
},
{
glyphname = iacute;
layers = (
{
layerId = m01;
shapes = (
{
closed = 1;
nodes = (
(77,0,l),
(168,0,l),
(168,548,l),
(77,548,l)
);
},
{
closed = 1;
nodes = (
(7,657,l),
(7,589,l),
(220,703,l),
(220,782,l)
);
}
);
width = 246;
}
);
note = iacute;
unicode = 237;
},
{
glyphname = icircumflex;
layers = (
{
layerId = m01;
shapes = (
{
closed = 1;
nodes = (
(77,0,l),
(168,0,l),
(168,548,l),
(77,548,l)
);
},
{
closed = 1;
nodes = (
(261,669,l),
(123,752,l),
(-16,669,l),
(-16,597,l),
(123,682,l),
(261,597,l)
);
}
);
width = 246;
}
);
note = icircumflex;
unicode = 238;
},
{
glyphname = idieresis;
layers = (
{
layerId = m01;
shapes = (
{
closed = 1;
nodes = (
(77,0,l),
(168,0,l),
(168,548,l),
(77,548,l)
);
},
{
closed = 1;
nodes = (
(70,622,o),
(94,645,o),
(94,674,cs),
(94,703,o),
(70,727,o),
(42,727,cs),
(12,727,o),
(-11,703,o),
(-11,674,cs),
(-11,645,o),
(12,622,o),
(42,622,cs)
);
},
{
closed = 1;
nodes = (
(233,622,o),
(257,645,o),
(257,674,cs),
(257,703,o),
(233,727,o),
(204,727,cs),
(174,727,o),
(152,703,o),
(152,674,cs),
(152,645,o),
(174,622,o),
(204,622,cs)
);
}
);
width = 246;
}
);
note = idieresis;
unicode = 239;
},
{
glyphname = eth;
layers = (
{
layerId = m01;
shapes = (
{
closed = 1;
nodes = (
(261,644,l),
(261,594,l),
(391,638,l),
(440,583,o),
(471,528,o),
(492,466,c),
(450,528,o),
(389,558,o),
(311,558,cs),
(159,558,o),
(43,448,o),
(43,278,cs),
(43,105,o),
(156,-9,o),
(316,-9,cs),
(476,-9,o),
(596,100,o),
(596,315,cs),
(596,446,o),
(549,559,o),
(458,660,c),
(552,692,l),
(552,743,l),
(421,699,l),
(407,713,o),
(391,726,o),
(375,740,c),
(282,740,l),
(309,718,o),
(333,697,o),
(355,676,c)
);
},
{
closed = 1;
nodes = (
(136,412,o),
(220,481,o),
(318,481,cs),
(415,481,o),
(502,411,o),
(502,275,cs),
(502,140,o),
(414,68,o),
(316,68,cs),
(217,68,o),
(136,141,o),
(136,278,cs)
);
}
);
width = 638;
}
);
note = eth;
unicode = 240;
},
{
glyphname = ntilde;
layers = (
{
layerId = m01;
shapes = (
{
closed = 1;
nodes = (
(168,303,ls),
(168,421,o),
(232,479,o),
(325,479,cs),
(417,479,o),
(478,422,o),
(478,310,cs),
(478,0,l),
(568,0,l),
(568,323,ls),
(568,480,o),
(471,558,o),
(344,558,cs),
(270,558,o),
(204,527,o),
(168,470,c),
(168,548,l),
(77,548,l),
(77,0,l),
(168,0,l)
);
},
{
closed = 1;
nodes = (
(228,607,l),
(232,637,o),
(249,651,o),
(271,651,cs),
(311,651,o),
(331,605,o),
(385,605,cs),
(437,605,o),
(477,641,o),
(485,709,c),
(433,709,l),
(429,680,o),
(411,666,o),
(389,666,cs),
(348,666,o),
(328,712,o),
(275,712,cs),
(223,712,o),
(185,676,o),
(175,607,c)
);
}
);
width = 640;
}
);
note = ntilde;
unicode = 241;
},
{
glyphname = ograve;
layers = (
{
layerId = m01;
shapes = (
{
closed = 1;
nodes = (
(597,448,o),
(476,557,o),
(320,557,cs),
(165,557,o),
(43,448,o),
(43,275,cs),
(43,101,o),
(161,-9,o),
(316,-9,cs),
(472,-9,o),
(597,101,o),
(597,275,cs)
);
},
{
closed = 1;
nodes = (
(136,413,o),
(223,478,o),
(319,478,cs),
(413,478,o),
(504,413,o),
(504,275,cs),
(504,136,o),
(411,71,o),
(316,71,cs),
(221,71,o),
(136,136,o),
(136,275,cs)
);
},
{
closed = 1;
nodes = (
(205,710,l),
(418,596,l),
(418,664,l),
(205,789,l)
);
}
);
width = 640;
}
);
note = ograve;
unicode = 242;
},
{
glyphname = oacute;
layers = (
{
layerId = m01;
shapes = (
{
closed = 1;
nodes = (
(597,448,o),
(476,557,o),
(320,557,cs),
(165,557,o),
(43,448,o),
(43,275,cs),
(43,101,o),
(161,-9,o),
(316,-9,cs),
(472,-9,o),
(597,101,o),
(597,275,cs)
);
},
{
closed = 1;
nodes = (
(136,413,o),
(223,478,o),
(319,478,cs),
(413,478,o),
(504,413,o),
(504,275,cs),
(504,136,o),
(411,71,o),
(316,71,cs),
(221,71,o),
(136,136,o),
(136,275,cs)
);
},
{
closed = 1;
nodes = (
(205,664,l),
(205,596,l),
(418,710,l),
(418,789,l)
);
}
);
width = 640;
}
);
note = oacute;
unicode = 243;
},
{
glyphname = ocircumflex;
layers = (
{
layerId = m01;
shapes = (
{
closed = 1;
nodes = (
(597,448,o),
(476,557,o),
(320,557,cs),
(165,557,o),
(43,448,o),
(43,275,cs),
(43,101,o),
(161,-9,o),
(316,-9,cs),
(472,-9,o),
(597,101,o),
(597,275,cs)
);
},
{
closed = 1;
nodes = (
(136,413,o),
(223,478,o),
(319,478,cs),
(413,478,o),
(504,413,o),
(504,275,cs),
(504,136,o),
(411,71,o),
(316,71,cs),
(221,71,o),
(136,136,o),
(136,275,cs)
);
},
{
closed = 1;
nodes = (
(459,676,l),
(321,759,l),
(182,676,l),
(182,604,l),
(321,689,l),
(459,604,l)
);
}
);
width = 640;
}
);
note = ocircumflex;
unicode = 244;
},
{
glyphname = otilde;
layers = (
{
layerId = m01;
shapes = (
{
closed = 1;
nodes = (
(597,448,o),
(476,557,o),
(320,557,cs),
(165,557,o),
(43,448,o),
(43,275,cs),
(43,101,o),
(161,-9,o),
(316,-9,cs),
(472,-9,o),
(597,101,o),
(597,275,cs)
);
},
{
closed = 1;
nodes = (
(136,413,o),
(223,478,o),
(319,478,cs),
(413,478,o),
(504,413,o),
(504,275,cs),
(504,136,o),
(411,71,o),
(316,71,cs),
(221,71,o),
(136,136,o),
(136,275,cs)
);
},
{
closed = 1;
nodes = (
(227,614,l),
(231,644,o),
(248,658,o),
(270,658,cs),
(310,658,o),
(330,612,o),
(384,612,cs),
(436,612,o),
(476,648,o),
(484,716,c),
(432,716,l),
(428,687,o),
(410,673,o),
(388,673,cs),
(347,673,o),
(327,719,o),
(274,719,cs),
(222,719,o),
(184,683,o),
(174,614,c)
);
}
);
width = 640;
}
);
note = otilde;
unicode = 245;
},
{
glyphname = odieresis;
layers = (
{
layerId = m01;
shapes = (
{
closed = 1;
nodes = (
(597,448,o),
(476,557,o),
(320,557,cs),
(165,557,o),
(43,448,o),
(43,275,cs),
(43,101,o),
(161,-9,o),
(316,-9,cs),
(472,-9,o),
(597,101,o),
(597,275,cs)
);
},
{
closed = 1;
nodes = (
(136,413,o),
(223,478,o),
(319,478,cs),
(413,478,o),
(504,413,o),
(504,275,cs),
(504,136,o),
(411,71,o),
(316,71,cs),
(221,71,o),
(136,136,o),
(136,275,cs)
);
},
{
closed = 1;
nodes = (
(268,629,o),
(292,652,o),
(292,681,cs),
(292,710,o),
(268,734,o),
(240,734,cs),
(210,734,o),
(187,710,o),
(187,681,cs),
(187,652,o),
(210,629,o),
(240,629,cs)
);
},
{
closed = 1;
nodes = (
(431,629,o),
(455,652,o),
(455,681,cs),
(455,710,o),
(431,734,o),
(402,734,cs),
(372,734,o),
(350,710,o),
(350,681,cs),
(350,652,o),
(372,629,o),
(402,629,cs)
);
}
);
width = 640;
}
);
note = odieresis;
unicode = 246;
},
{
glyphname = divide;
layers = (
{
layerId = m01;
shapes = (
{
closed = 1;
nodes = (
(78,328,l),
(588,328,l),
(588,405,l),
(78,405,l)
);
},
{
closed = 1;
nodes = (
(395,188,o),
(368,215,o),
(335,215,cs),
(300,215,o),
(273,188,o),
(273,153,cs),
(273,118,o),
(300,91,o),
(335,91,cs),
(368,91,o),
(395,118,o),
(395,153,cs)
);
},
{
closed = 1;
nodes = (
(395,617,o),
(368,644,o),
(335,644,cs),
(300,644,o),
(273,617,o),
(273,582,cs),
(273,547,o),
(300,520,o),
(335,520,cs),
(368,520,o),
(395,547,o),
(395,582,cs)
);
}
);
width = 657;
}
);
note = divide;
unicode = 247;
},
{
glyphname = oslash;
layers = (
{
layerId = m01;
shapes = (
{
closed = 1;
nodes = (
(597,354,o),
(572,420,o),
(530,468,c),
(603,548,l),
(538,548,l),
(495,500,l),
(447,537,o),
(387,557,o),
(320,557,cs),
(165,557,o),
(43,448,o),
(43,275,cs),
(43,195,o),
(68,128,o),
(110,79,c),
(38,0,l),
(103,0,l),
(145,46,l),
(192,11,o),
(250,-9,o),
(316,-9,cs),
(472,-9,o),
(597,101,o),
(597,275,cs)
);
},
{
closed = 1;
nodes = (
(136,413,o),
(223,478,o),
(319,478,cs),
(362,478,o),
(404,465,o),
(437,437,c),
(171,145,l),
(149,178,o),
(136,221,o),
(136,275,cs)
);
},
{
closed = 1;
nodes = (
(274,71,o),
(234,84,o),
(203,109,c),
(469,401,l),
(491,370,o),
(504,328,o),
(504,275,cs),
(504,136,o),
(411,71,o),
(316,71,cs)
);
}
);
width = 640;
}
);
note = oslash;
unicode = 248;
},
{
glyphname = ugrave;
layers = (
{
layerId = m01;
shapes = (
{
closed = 1;
nodes = (
(563,548,l),
(472,548,l),
(472,247,ls),
(472,129,o),
(409,71,o),
(315,71,cs),
(223,71,o),
(162,128,o),
(162,239,cs),
(162,548,l),
(72,548,l),
(72,227,ls),
(72,70,o),
(171,-8,o),
(297,-8,cs),
(370,-8,o),
(437,24,o),
(472,81,c),
(472,0,l),
(563,0,l)
);
},
{
closed = 1;
nodes = (
(205,703,l),
(418,589,l),
(418,657,l),
(205,782,l)
);
}
);
width = 640;
}
);
note = ugrave;
unicode = 249;
},
{
glyphname = uacute;
layers = (
{
layerId = m01;
shapes = (
{
closed = 1;
nodes = (
(563,548,l),
(472,548,l),
(472,247,ls),
(472,129,o),
(409,71,o),
(315,71,cs),
(223,71,o),
(162,128,o),
(162,239,cs),
(162,548,l),
(72,548,l),
(72,227,ls),
(72,70,o),
(171,-8,o),
(297,-8,cs),
(370,-8,o),
(437,24,o),
(472,81,c),
(472,0,l),
(563,0,l)
);
},
{
closed = 1;
nodes = (
(205,657,l),
(205,589,l),
(418,703,l),
(418,782,l)
);
}
);
width = 640;
}
);
note = uacute;
unicode = 250;
},
{
glyphname = ucircumflex;
layers = (
{
layerId = m01;
shapes = (
{
closed = 1;
nodes = (
(563,548,l),
(472,548,l),
(472,247,ls),
(472,129,o),
(409,71,o),
(315,71,cs),
(223,71,o),
(162,128,o),
(162,239,cs),
(162,548,l),
(72,548,l),
(72,227,ls),
(72,70,o),
(171,-8,o),
(297,-8,cs),
(370,-8,o),
(437,24,o),
(472,81,c),
(472,0,l),
(563,0,l)
);
},
{
closed = 1;
nodes = (
(459,669,l),
(321,752,l),
(182,669,l),
(182,597,l),
(321,682,l),
(459,597,l)
);
}
);
width = 640;
}
);
note = ucircumflex;
unicode = 251;
},
{
glyphname = udieresis;
layers = (
{
layerId = m01;
shapes = (
{
closed = 1;
nodes = (
(563,548,l),
(472,548,l),
(472,247,ls),
(472,129,o),
(409,71,o),
(315,71,cs),
(223,71,o),
(162,128,o),
(162,239,cs),
(162,548,l),
(72,548,l),
(72,227,ls),
(72,70,o),
(171,-8,o),
(297,-8,cs),
(370,-8,o),
(437,24,o),
(472,81,c),
(472,0,l),
(563,0,l)
);
},
{
closed = 1;
nodes = (
(268,622,o),
(292,645,o),
(292,674,cs),
(292,703,o),
(268,727,o),
(240,727,cs),
(210,727,o),
(187,703,o),
(187,674,cs),
(187,645,o),
(210,622,o),
(240,622,cs)
);
},
{
closed = 1;
nodes = (
(431,622,o),
(455,645,o),
(455,674,cs),
(455,703,o),
(431,727,o),
(402,727,cs),
(372,727,o),
(350,703,o),
(350,674,cs),
(350,645,o),
(372,622,o),
(402,622,cs)
);
}
);
width = 640;
}
);
note = udieresis;
unicode = 252;
},
{
glyphname = yacute;
layers = (
{
layerId = m01;
shapes = (
{
closed = 1;
nodes = (
(285,104,l),
(113,548,l),
(12,548,l),
(233,6,l),
(125,-258,l),
(219,-258,l),
(549,548,l),
(455,548,l)
);
},
{
closed = 1;
nodes = (
(166,657,l),
(166,589,l),
(379,703,l),
(379,782,l)
);
}
);
width = 563;
}
);
note = yacute;
unicode = 253;
},
{
glyphname = thorn;
layers = (
{
layerId = m01;
shapes = (
{
closed = 1;
nodes = (
(168,740,l),
(77,740,l),
(77,-260,l),
(168,-260,l),
(168,120,l),
(202,46,o),
(273,-9,o),
(373,-9,cs),
(520,-9,o),
(633,106,o),
(633,276,cs),
(633,447,o),
(520,557,o),
(373,557,cs),
(273,557,o),
(201,503,o),
(168,432,c)
);
},
{
closed = 1;
nodes = (
(540,147,o),
(455,71,o),
(354,71,cs),
(255,71,o),
(168,146,o),
(168,275,cs),
(168,402,o),
(255,478,o),
(354,478,cs),
(455,478,o),
(540,405,o),
(540,276,cs)
);
}
);
width = 676;
}
);
note = thorn;
unicode = 254;
},
{
glyphname = ydieresis;
layers = (
{
layerId = m01;
shapes = (
{
closed = 1;
nodes = (
(285,104,l),
(113,548,l),
(12,548,l),
(233,6,l),
(125,-258,l),
(219,-258,l),
(549,548,l),
(455,548,l)
);
},
{
closed = 1;
nodes = (
(229,622,o),
(253,645,o),
(253,674,cs),
(253,703,o),
(229,727,o),
(201,727,cs),
(171,727,o),
(148,703,o),
(148,674,cs),
(148,645,o),
(171,622,o),
(201,622,cs)
);
},
{
closed = 1;
nodes = (
(392,622,o),
(416,645,o),
(416,674,cs),
(416,703,o),
(392,727,o),
(363,727,cs),
(333,727,o),
(311,703,o),
(311,674,cs),
(311,645,o),
(333,622,o),
(363,622,cs)
);
}
);
width = 563;
}
);
note = ydieresis;
unicode = 255;
},
{
glyphname = Amacron;
layers = (
{
layerId = m01;
shapes = (
{
closed = 1;
nodes = (
(545,0,l),
(641,0,l),
(390,693,l),
(285,693,l),
(33,0,l),
(129,0,l),
(185,155,l),
(489,155,l)
);
},
{
closed = 1;
nodes = (
(161,786,l),
(513,786,l),
(513,854,l),
(161,854,l)
);
},
{
closed = 1;
nodes = (
(463,229,l),
(211,229,l),
(337,581,l)
);
}
);
width = 674;
}
);
note = Amacron;
unicode = 256;
},
{
glyphname = amacron;
layers = (
{
layerId = m01;
shapes = (
{
closed = 1;
nodes = (
(43,106,o),
(156,-9,o),
(302,-9,cs),
(403,-9,o),
(474,43,o),
(507,102,c),
(507,0,l),
(599,0,l),
(599,548,l),
(507,548,l),
(507,448,l),
(475,505,o),
(405,557,o),
(303,557,cs),
(156,557,o),
(43,447,o),
(43,276,cs)
);
},
{
closed = 1;
nodes = (
(507,146,o),
(421,71,o),
(321,71,cs),
(221,71,o),
(136,147,o),
(136,276,cs),
(136,405,o),
(221,478,o),
(321,478,cs),
(421,478,o),
(507,402,o),
(507,275,cs)
);
},
{
closed = 1;
nodes = (
(163,641,l),
(515,641,l),
(515,709,l),
(163,709,l)
);
}
);
width = 676;
}
);
note = amacron;
unicode = 257;
},
{
glyphname = Abreve;
layers = (
{
layerId = m01;
shapes = (
{
closed = 1;
nodes = (
(545,0,l),
(641,0,l),
(390,693,l),
(285,693,l),
(33,0,l),
(129,0,l),
(185,155,l),
(489,155,l)
);
},
{
closed = 1;
nodes = (
(480,895,l),
(426,895,l),
(426,847,o),
(402,818,o),
(338,818,cs),
(273,818,o),
(249,847,o),
(249,895,c),
(195,895,l),
(195,878,ls),
(195,803,o),
(246,747,o),
(338,747,cs),
(430,747,o),
(480,803,o),
(480,877,cs)
);
},
{
closed = 1;
nodes = (
(463,229,l),
(211,229,l),
(337,581,l)
);
}
);
width = 674;
}
);
note = Abreve;
unicode = 258;
},
{
glyphname = abreve;
layers = (
{
layerId = m01;
shapes = (
{
closed = 1;
nodes = (
(43,106,o),
(156,-9,o),
(302,-9,cs),
(403,-9,o),
(474,43,o),
(507,102,c),
(507,0,l),
(599,0,l),
(599,548,l),
(507,548,l),
(507,448,l),
(475,505,o),
(405,557,o),
(303,557,cs),
(156,557,o),
(43,447,o),
(43,276,cs)
);
},
{
closed = 1;
nodes = (
(507,146,o),
(421,71,o),
(321,71,cs),
(221,71,o),
(136,147,o),
(136,276,cs),
(136,405,o),
(221,478,o),
(321,478,cs),
(421,478,o),
(507,402,o),
(507,275,cs)
);
},
{
closed = 1;
nodes = (
(481,750,l),
(427,750,l),
(427,702,o),
(403,673,o),
(339,673,cs),
(274,673,o),
(250,702,o),
(250,750,c),
(196,750,l),
(196,733,ls),
(196,658,o),
(247,602,o),
(339,602,cs),
(431,602,o),
(481,658,o),
(481,732,cs)
);
}
);
width = 676;
}
);
note = abreve;
unicode = 259;
},
{
glyphname = Aogonek;
layers = (
{
layerId = m01;
shapes = (
{
closed = 1;
nodes = (
(285,693,l),
(33,0,l),
(129,0,l),
(185,155,l),
(489,155,l),
(541,12,l),
(475,-24,o),
(451,-63,o),
(451,-106,cs),
(451,-179,o),
(514,-206,o),
(574,-206,cs),
(600,-206,o),
(628,-200,o),
(650,-192,c),
(650,-132,l),
(628,-140,o),
(604,-145,o),
(585,-145,cs),
(550,-145,o),
(526,-128,o),
(526,-97,cs),
(526,-72,o),
(541,-49,o),
(587,-27,cs),
(641,0,l),
(390,693,l)
);
},
{
closed = 1;
nodes = (
(463,229,l),
(211,229,l),
(337,581,l)
);
}
);
width = 674;
}
);
note = Aogonek;
unicode = 260;
},
{
glyphname = aogonek;
layers = (
{
layerId = m01;
shapes = (
{
closed = 1;
nodes = (
(43,106,o),
(156,-9,o),
(302,-9,cs),
(403,-9,o),
(474,43,o),
(507,102,c),
(507,17,l),
(435,-21,o),
(409,-62,o),
(409,-106,cs),
(409,-179,o),
(471,-206,o),
(531,-206,cs),
(558,-206,o),
(585,-200,o),
(608,-192,c),
(608,-132,l),
(585,-140,o),
(562,-145,o),
(543,-145,cs),
(507,-145,o),
(484,-128,o),
(484,-97,cs),
(484,-72,o),
(499,-49,o),
(544,-27,cs),
(599,0,l),
(599,548,l),
(507,548,l),
(507,448,l),
(475,505,o),
(405,557,o),
(303,557,cs),
(156,557,o),
(43,447,o),
(43,276,cs)
);
},
{
closed = 1;
nodes = (
(507,146,o),
(421,71,o),
(321,71,cs),
(221,71,o),
(136,147,o),
(136,276,cs),
(136,405,o),
(221,478,o),
(321,478,cs),
(421,478,o),
(507,402,o),
(507,275,cs)
);
}
);
width = 676;
}
);
note = aogonek;
unicode = 261;
},
{
glyphname = Cacute;
layers = (
{
layerId = m01;
shapes = (
{
closed = 1;
nodes = (
(43,140,o),
(196,-6,o),
(391,-6,cs),
(542,-6,o),
(662,69,o),
(714,203,c),
(605,203,l),
(567,120,o),
(493,73,o),
(391,73,cs),
(245,73,o),
(136,179,o),
(136,349,cs),
(136,520,o),
(245,626,o),
(391,626,cs),
(493,626,o),
(567,579,o),
(605,495,c),
(714,495,l),
(662,630,o),
(542,706,o),
(391,706,cs),
(196,706,o),
(43,558,o),
(43,349,cs)
);
},
{
closed = 1;
nodes = (
(281,808,l),
(281,740,l),
(494,854,l),
(494,933,l)
);
}
);
width = 772;
}
);
note = Cacute;
unicode = 262;
},
{
glyphname = cacute;
layers = (
{
layerId = m01;
shapes = (
{
closed = 1;
nodes = (
(43,101,o),
(154,-9,o),
(310,-9,cs),
(446,-9,o),
(535,67,o),
(563,176,c),
(465,176,l),
(445,107,o),
(391,68,o),
(310,68,cs),
(210,68,o),
(136,139,o),
(136,275,cs),
(136,409,o),
(210,480,o),
(310,480,cs),
(391,480,o),
(446,438,o),
(465,372,c),
(563,372,l),
(535,487,o),
(446,557,o),
(310,557,cs),
(154,557,o),
(43,447,o),
(43,275,cs)
);
},
{
closed = 1;
nodes = (
(189,657,l),
(189,589,l),
(402,703,l),
(402,782,l)
);
}
);
width = 607;
}
);
note = cacute;
unicode = 263;
},
{
glyphname = Cdotaccent;
layers = (
{
layerId = m01;
shapes = (
{
closed = 1;
nodes = (
(43,140,o),
(196,-6,o),
(391,-6,cs),
(542,-6,o),
(662,69,o),
(714,203,c),
(605,203,l),
(567,120,o),
(493,73,o),
(391,73,cs),
(245,73,o),
(136,179,o),
(136,349,cs),
(136,520,o),
(245,626,o),
(391,626,cs),
(493,626,o),
(567,579,o),
(605,495,c),
(714,495,l),
(662,630,o),
(542,706,o),
(391,706,cs),
(196,706,o),
(43,558,o),
(43,349,cs)
);
},
{
closed = 1;
nodes = (
(426,767,o),
(449,790,o),
(449,819,cs),
(449,848,o),
(426,872,o),
(397,872,cs),
(367,872,o),
(344,848,o),
(344,819,cs),
(344,790,o),
(367,767,o),
(397,767,cs)
);
}
);
width = 772;
}
);
note = Cdotaccent;
unicode = 266;
},
{
glyphname = cdotaccent;
layers = (
{
layerId = m01;
shapes = (
{
closed = 1;
nodes = (
(43,101,o),
(154,-9,o),
(310,-9,cs),
(446,-9,o),
(535,67,o),
(563,176,c),
(465,176,l),
(445,107,o),
(391,68,o),
(310,68,cs),
(210,68,o),
(136,139,o),
(136,275,cs),
(136,409,o),
(210,480,o),
(310,480,cs),
(391,480,o),
(446,438,o),
(465,372,c),
(563,372,l),
(535,487,o),
(446,557,o),
(310,557,cs),
(154,557,o),
(43,447,o),
(43,275,cs)
);
},
{
closed = 1;
nodes = (
(333,617,o),
(356,640,o),
(356,669,cs),
(356,698,o),
(333,722,o),
(304,722,cs),
(274,722,o),
(251,698,o),
(251,669,cs),
(251,640,o),
(274,617,o),
(304,617,cs)
);
}
);
width = 607;
}
);
note = cdotaccent;
unicode = 267;
},
{
glyphname = Ccaron;
layers = (
{
layerId = m01;
shapes = (
{
closed = 1;
nodes = (
(43,140,o),
(196,-6,o),
(391,-6,cs),
(542,-6,o),
(662,69,o),
(714,203,c),
(605,203,l),
(567,120,o),
(493,73,o),
(391,73,cs),
(245,73,o),
(136,179,o),
(136,349,cs),
(136,520,o),
(245,626,o),
(391,626,cs),
(493,626,o),
(567,579,o),
(605,495,c),
(714,495,l),
(662,630,o),
(542,706,o),
(391,706,cs),
(196,706,o),
(43,558,o),
(43,349,cs)
);
},
{
closed = 1;
nodes = (
(397,817,l),
(258,902,l),
(258,830,l),
(397,748,l),
(535,830,l),
(535,902,l)
);
}
);
width = 772;
}
);
note = Ccaron;
unicode = 268;
},
{
glyphname = ccaron;
layers = (
{
layerId = m01;
shapes = (
{
closed = 1;
nodes = (
(43,101,o),
(154,-9,o),
(310,-9,cs),
(446,-9,o),
(535,67,o),
(563,176,c),
(465,176,l),
(445,107,o),
(391,68,o),
(310,68,cs),
(210,68,o),
(136,139,o),
(136,275,cs),
(136,409,o),
(210,480,o),
(310,480,cs),
(391,480,o),
(446,438,o),
(465,372,c),
(563,372,l),
(535,487,o),
(446,557,o),
(310,557,cs),
(154,557,o),
(43,447,o),
(43,275,cs)
);
},
{
closed = 1;
nodes = (
(304,666,l),
(165,751,l),
(165,679,l),
(304,597,l),
(442,679,l),
(442,751,l)
);
}
);
width = 607;
}
);
note = ccaron;
unicode = 269;
},
{
glyphname = Dcaron;
layers = (
{
layerId = m01;
shapes = (
{
closed = 1;
nodes = (
(77,697,l),
(77,0,l),
(294,0,ls),
(523,0,o),
(664,131,o),
(664,347,cs),
(664,563,o),
(523,697,o),
(294,697,cs)
);
},
{
closed = 1;
nodes = (
(168,75,l),
(168,623,l),
(294,623,ls),
(476,623,o),
(571,517,o),
(571,347,cs),
(571,177,o),
(476,75,o),
(294,75,cs)
);
},
{
closed = 1;
nodes = (
(352,811,l),
(213,896,l),
(213,824,l),
(352,742,l),
(490,824,l),
(490,896,l)
);
}
);
width = 707;
}
);
note = Dcaron;
unicode = 270;
},
{
glyphname = dcaron;
layers = (
{
layerId = m01;
shapes = (
{
closed = 1;
nodes = (
(651,740,l),
(651,654,l),
(700,654,l),
(700,631,ls),
(700,596,o),
(687,578,o),
(652,578,c),
(652,535,l),
(719,535,o),
(754,570,o),
(754,648,cs),
(754,675,o),
(750,705,o),
(743,740,c)
);
},
{
closed = 1;
nodes = (
(43,106,o),
(156,-9,o),
(303,-9,cs),
(403,-9,o),
(474,42,o),
(507,103,c),
(507,0,l),
(599,0,l),
(599,740,l),
(507,740,l),
(507,450,l),
(469,513,o),
(390,557,o),
(304,557,cs),
(156,557,o),
(43,447,o),
(43,276,cs)
);
},
{
closed = 1;
nodes = (
(507,146,o),
(421,71,o),
(321,71,cs),
(221,71,o),
(136,147,o),
(136,276,cs),
(136,405,o),
(221,478,o),
(321,478,cs),
(421,478,o),
(507,402,o),
(507,275,cs)
);
}
);
width = 754;
}
);
note = dcaron;
unicode = 271;
},
{
glyphname = Dcroat;
layers = (
{
layerId = m01;
shapes = (
{
closed = 1;
nodes = (
(96,697,l),
(96,389,l),
(9,389,l),
(9,305,l),
(96,305,l),
(96,0,l),
(313,0,ls),
(541,0,o),
(682,131,o),
(682,347,cs),
(682,563,o),
(541,697,o),
(313,697,cs)
);
},
{
closed = 1;
nodes = (
(187,70,l),
(187,305,l),
(379,305,l),
(379,389,l),
(187,389,l),
(187,623,l),
(313,623,ls),
(494,623,o),
(589,517,o),
(589,347,cs),
(589,177,o),
(494,70,o),
(313,70,cs)
);
}
);
width = 725;
}
);
note = Dcroat;
unicode = 272;
},
{
glyphname = dcroat;
layers = (
{
layerId = m01;
shapes = (
{
closed = 1;
nodes = (
(43,106,o),
(156,-9,o),
(303,-9,cs),
(403,-9,o),
(474,42,o),
(507,103,c),
(507,0,l),
(599,0,l),
(599,605,l),
(660,605,l),
(660,659,l),
(599,659,l),
(599,740,l),
(507,740,l),
(507,659,l),
(395,659,l),
(395,605,l),
(507,605,l),
(507,450,l),
(469,513,o),
(390,557,o),
(304,557,cs),
(156,557,o),
(43,447,o),
(43,276,cs)
);
},
{
closed = 1;
nodes = (
(507,146,o),
(421,71,o),
(321,71,cs),
(221,71,o),
(136,147,o),
(136,276,cs),
(136,405,o),
(221,478,o),
(321,478,cs),
(421,478,o),
(507,402,o),
(507,275,cs)
);
}
);
width = 675;
}
);
note = dcroat;
unicode = 273;
},
{
glyphname = Emacron;
layers = (
{
layerId = m01;
shapes = (
{
closed = 1;
nodes = (
(452,698,l),
(77,698,l),
(77,0,l),
(452,0,l),
(452,75,l),
(168,75,l),
(168,315,l),
(422,315,l),
(422,390,l),
(168,390,l),
(168,623,l),
(452,623,l)
);
},
{
closed = 1;
nodes = (
(78,786,l),
(430,786,l),
(430,854,l),
(78,854,l)
);
}
);
width = 513;
}
);
note = Emacron;
unicode = 274;
},
{
glyphname = emacron;
layers = (
{
layerId = m01;
shapes = (
{
closed = 1;
nodes = (
(404,480,o),
(484,421,o),
(483,314,c),
(137,314,l),
(147,421,o),
(221,480,o),
(310,480,cs)
);
},
{
closed = 1;
nodes = (
(468,169,l),
(448,110,o),
(396,68,o),
(314,68,cs),
(221,68,o),
(143,129,o),
(136,240,c),
(574,240,l),
(576,259,o),
(577,275,o),
(577,295,cs),
(577,445,o),
(473,557,o),
(314,557,cs),
(154,557,o),
(43,448,o),
(43,275,cs),
(43,101,o),
(158,-9,o),
(314,-9,cs),
(450,-9,o),
(538,69,o),
(566,169,c)
);
},
{
closed = 1;
nodes = (
(134,641,l),
(486,641,l),
(486,709,l),
(134,709,l)
);
}
);
width = 620;
}
);
note = emacron;
unicode = 275;
},
{
glyphname = Ebreve;
layers = (
{
layerId = m01;
shapes = (
{
closed = 1;
nodes = (
(452,698,l),
(77,698,l),
(77,0,l),
(452,0,l),
(452,75,l),
(168,75,l),
(168,315,l),
(422,315,l),
(422,390,l),
(168,390,l),
(168,623,l),
(452,623,l)
);
},
{
closed = 1;
nodes = (
(397,895,l),
(343,895,l),
(343,847,o),
(319,818,o),
(255,818,cs),
(190,818,o),
(166,847,o),
(166,895,c),
(112,895,l),
(112,878,ls),
(112,803,o),
(163,747,o),
(255,747,cs),
(347,747,o),
(397,803,o),
(397,877,cs)
);
}
);
width = 513;
}
);
note = Ebreve;
unicode = 276;
},
{
glyphname = ebreve;
layers = (
{
layerId = m01;
shapes = (
{
closed = 1;
nodes = (
(404,480,o),
(484,421,o),
(483,314,c),
(137,314,l),
(147,421,o),
(221,480,o),
(310,480,cs)
);
},
{
closed = 1;
nodes = (
(468,169,l),
(448,110,o),
(396,68,o),
(314,68,cs),
(221,68,o),
(143,129,o),
(136,240,c),
(574,240,l),
(576,259,o),
(577,275,o),
(577,295,cs),
(577,445,o),
(473,557,o),
(314,557,cs),
(154,557,o),
(43,448,o),
(43,275,cs),
(43,101,o),
(158,-9,o),
(314,-9,cs),
(450,-9,o),
(538,69,o),
(566,169,c)
);
},
{
closed = 1;
nodes = (
(453,750,l),
(399,750,l),
(399,702,o),
(375,673,o),
(311,673,cs),
(246,673,o),
(222,702,o),
(222,750,c),
(168,750,l),
(168,733,ls),
(168,658,o),
(219,602,o),
(311,602,cs),
(403,602,o),
(453,658,o),
(453,732,cs)
);
}
);
width = 620;
}
);
note = ebreve;
unicode = 277;
},
{
glyphname = Edotaccent;
layers = (
{
layerId = m01;
shapes = (
{
closed = 1;
nodes = (
(452,698,l),
(77,698,l),
(77,0,l),
(452,0,l),
(452,75,l),
(168,75,l),
(168,315,l),
(422,315,l),
(422,390,l),
(168,390,l),
(168,623,l),
(452,623,l)
);
},
{
closed = 1;
nodes = (
(284,761,o),
(307,784,o),
(307,813,cs),
(307,842,o),
(284,866,o),
(255,866,cs),
(225,866,o),
(202,842,o),
(202,813,cs),
(202,784,o),
(225,761,o),
(255,761,cs)
);
}
);
width = 513;
}
);
note = Edotaccent;
unicode = 278;
},
{
glyphname = edotaccent;
layers = (
{
layerId = m01;
shapes = (
{
closed = 1;
nodes = (
(404,480,o),
(484,421,o),
(483,314,c),
(137,314,l),
(147,421,o),
(221,480,o),
(310,480,cs)
);
},
{
closed = 1;
nodes = (
(468,169,l),
(448,110,o),
(396,68,o),
(314,68,cs),
(221,68,o),
(143,129,o),
(136,240,c),
(574,240,l),
(576,259,o),
(577,275,o),
(577,295,cs),
(577,445,o),
(473,557,o),
(314,557,cs),
(154,557,o),
(43,448,o),
(43,275,cs),
(43,101,o),
(158,-9,o),
(314,-9,cs),
(450,-9,o),
(538,69,o),
(566,169,c)
);
},
{
closed = 1;
nodes = (
(340,617,o),
(363,640,o),
(363,669,cs),
(363,698,o),
(340,722,o),
(311,722,cs),
(281,722,o),
(258,698,o),
(258,669,cs),
(258,640,o),
(281,617,o),
(311,617,cs)
);
}
);
width = 620;
}
);
note = edotaccent;
unicode = 279;
},
{
glyphname = Eogonek;
layers = (
{
layerId = m01;
shapes = (
{
closed = 1;
nodes = (
(452,698,l),
(77,698,l),
(77,0,l),
(331,0,l),
(281,-33,o),
(262,-68,o),
(262,-106,cs),
(262,-179,o),
(324,-206,o),
(384,-206,cs),
(411,-206,o),
(438,-200,o),
(461,-192,c),
(461,-132,l),
(438,-140,o),
(415,-145,o),
(396,-145,cs),
(360,-145,o),
(337,-128,o),
(337,-97,cs),
(337,-72,o),
(352,-49,o),
(397,-27,cs),
(452,0,l),
(452,75,l),
(168,75,l),
(168,315,l),
(422,315,l),
(422,390,l),
(168,390,l),
(168,623,l),
(452,623,l)
);
}
);
width = 513;
}
);
note = Eogonek;
unicode = 280;
},
{
glyphname = eogonek;
layers = (
{
layerId = m01;
shapes = (
{
closed = 1;
nodes = (
(404,480,o),
(484,421,o),
(483,314,c),
(137,314,l),
(147,421,o),
(221,480,o),
(310,480,cs)
);
},
{
closed = 1;
nodes = (
(429,-118,l),
(406,-126,o),
(383,-131,o),
(364,-131,cs),
(328,-131,o),
(305,-114,o),
(305,-83,cs),
(305,-58,o),
(320,-35,o),
(365,-13,cs),
(393,1,l),
(484,25,o),
(544,90,o),
(566,169,c),
(468,169,l),
(448,110,o),
(396,68,o),
(314,68,cs),
(221,68,o),
(143,129,o),
(136,240,c),
(574,240,l),
(576,259,o),
(577,275,o),
(577,295,cs),
(577,445,o),
(473,557,o),
(314,557,cs),
(154,557,o),
(43,448,o),
(43,275,cs),
(43,117,o),
(138,11,o),
(273,-6,c),
(242,-33,o),
(230,-62,o),
(230,-92,cs),
(230,-165,o),
(292,-192,o),
(352,-192,cs),
(379,-192,o),
(406,-186,o),
(429,-178,c)
);
}
);
width = 620;
}
);
note = eogonek;
unicode = 281;
},
{
glyphname = Ecaron;
layers = (
{
layerId = m01;
shapes = (
{
closed = 1;
nodes = (
(452,698,l),
(77,698,l),
(77,0,l),
(452,0,l),
(452,75,l),
(168,75,l),
(168,315,l),
(422,315,l),
(422,390,l),
(168,390,l),
(168,623,l),
(452,623,l)
);
},
{
closed = 1;
nodes = (
(255,811,l),
(116,896,l),
(116,824,l),
(255,742,l),
(393,824,l),
(393,896,l)
);
}
);
width = 513;
}
);
note = Ecaron;
unicode = 282;
},
{
glyphname = ecaron;
layers = (
{
layerId = m01;
shapes = (
{
closed = 1;
nodes = (
(404,480,o),
(484,421,o),
(483,314,c),
(137,314,l),
(147,421,o),
(221,480,o),
(310,480,cs)
);
},
{
closed = 1;
nodes = (
(468,169,l),
(448,110,o),
(396,68,o),
(314,68,cs),
(221,68,o),
(143,129,o),
(136,240,c),
(574,240,l),
(576,259,o),
(577,275,o),
(577,295,cs),
(577,445,o),
(473,557,o),
(314,557,cs),
(154,557,o),
(43,448,o),
(43,275,cs),
(43,101,o),
(158,-9,o),
(314,-9,cs),
(450,-9,o),
(538,69,o),
(566,169,c)
);
},
{
closed = 1;
nodes = (
(311,666,l),
(172,751,l),
(172,679,l),
(311,597,l),
(449,679,l),
(449,751,l)
);
}
);
width = 620;
}
);
note = ecaron;
unicode = 283;
},
{
glyphname = Gbreve;
layers = (
{
layerId = m01;
shapes = (
{
closed = 1;
nodes = (
(197,705,o),
(43,558,o),
(43,349,cs),
(43,140,o),
(197,-6,o),
(393,-6,cs),
(582,-6,o),
(719,133,o),
(735,306,c),
(735,376,l),
(360,376,l),
(360,302,l),
(638,302,l),
(624,164,o),
(530,76,o),
(393,76,cs),
(246,76,o),
(136,182,o),
(136,349,cs),
(136,517,o),
(246,623,o),
(393,623,cs),
(491,623,o),
(567,576,o),
(605,495,c),
(714,495,l),
(662,629,o),
(540,705,o),
(393,705,cs)
);
},
{
closed = 1;
nodes = (
(535,895,l),
(481,895,l),
(481,847,o),
(457,818,o),
(393,818,cs),
(328,818,o),
(304,847,o),
(304,895,c),
(250,895,l),
(250,878,ls),
(250,803,o),
(301,747,o),
(393,747,cs),
(485,747,o),
(535,803,o),
(535,877,cs)
);
}
);
width = 778;
}
);
note = Gbreve;
unicode = 286;
},
{
glyphname = gbreve;
layers = (
{
layerId = m01;
shapes = (
{
closed = 1;
nodes = (
(43,106,o),
(156,-9,o),
(303,-9,cs),
(403,-9,o),
(474,44,o),
(507,103,c),
(507,-12,ls),
(507,-129,o),
(434,-191,o),
(337,-191,cs),
(247,-191,o),
(182,-146,o),
(162,-80,c),
(72,-80,l),
(90,-197,o),
(193,-270,o),
(337,-270,cs),
(498,-270,o),
(599,-163,o),
(599,-12,cs),
(599,548,l),
(507,548,l),
(507,448,l),
(475,507,o),
(403,557,o),
(303,557,cs),
(156,557,o),
(43,447,o),
(43,276,cs)
);
},
{
closed = 1;
nodes = (
(507,146,o),
(421,71,o),
(321,71,cs),
(221,71,o),
(136,147,o),
(136,276,cs),
(136,405,o),
(221,478,o),
(321,478,cs),
(421,478,o),
(507,402,o),
(507,275,cs)
);
},
{
closed = 1;
nodes = (
(481,750,l),
(427,750,l),
(427,702,o),
(403,673,o),
(339,673,cs),
(274,673,o),
(250,702,o),
(250,750,c),
(196,750,l),
(196,733,ls),
(196,658,o),
(247,602,o),
(339,602,cs),
(431,602,o),
(481,658,o),
(481,732,cs)
);
}
);
width = 676;
}
);
note = gbreve;
unicode = 287;
},
{
glyphname = Gdotaccent;
layers = (
{
layerId = m01;
shapes = (
{
closed = 1;
nodes = (
(197,705,o),
(43,558,o),
(43,349,cs),
(43,140,o),
(197,-6,o),
(393,-6,cs),
(582,-6,o),
(719,133,o),
(735,306,c),
(735,376,l),
(360,376,l),
(360,302,l),
(638,302,l),
(624,164,o),
(530,76,o),
(393,76,cs),
(246,76,o),
(136,182,o),
(136,349,cs),
(136,517,o),
(246,623,o),
(393,623,cs),
(491,623,o),
(567,576,o),
(605,495,c),
(714,495,l),
(662,629,o),
(540,705,o),
(393,705,cs)
);
},
{
closed = 1;
nodes = (
(421,761,o),
(444,784,o),
(444,813,cs),
(444,842,o),
(421,866,o),
(392,866,cs),
(362,866,o),
(339,842,o),
(339,813,cs),
(339,784,o),
(362,761,o),
(392,761,cs)
);
}
);
width = 778;
}
);
note = Gdotaccent;
unicode = 288;
},
{
glyphname = gdotaccent;
layers = (
{
layerId = m01;
shapes = (
{
closed = 1;
nodes = (
(43,106,o),
(156,-9,o),
(303,-9,cs),
(403,-9,o),
(474,44,o),
(507,103,c),
(507,-12,ls),
(507,-129,o),
(434,-191,o),
(337,-191,cs),
(247,-191,o),
(182,-146,o),
(162,-80,c),
(72,-80,l),
(90,-197,o),
(193,-270,o),
(337,-270,cs),
(498,-270,o),
(599,-163,o),
(599,-12,cs),
(599,548,l),
(507,548,l),
(507,448,l),
(475,507,o),
(403,557,o),
(303,557,cs),
(156,557,o),
(43,447,o),
(43,276,cs)
);
},
{
closed = 1;
nodes = (
(507,146,o),
(421,71,o),
(321,71,cs),
(221,71,o),
(136,147,o),
(136,276,cs),
(136,405,o),
(221,478,o),
(321,478,cs),
(421,478,o),
(507,402,o),
(507,275,cs)
);
},
{
closed = 1;
nodes = (
(368,617,o),
(391,640,o),
(391,669,cs),
(391,698,o),
(368,722,o),
(339,722,cs),
(309,722,o),
(286,698,o),
(286,669,cs),
(286,640,o),
(309,617,o),
(339,617,cs)
);
}
);
width = 676;
}
);
note = gdotaccent;
unicode = 289;
},
{
glyphname = uni0122;
layers = (
{
layerId = m01;
shapes = (
{
closed = 1;
nodes = (
(343,-49,l),
(343,-131,l),
(391,-131,l),
(391,-149,ls),
(391,-185,o),
(377,-205,o),
(343,-205,c),
(343,-247,l),
(408,-247,o),
(444,-212,o),
(444,-132,cs),
(444,-107,o),
(440,-79,o),
(433,-49,c)
);
},
{
closed = 1;
nodes = (
(197,705,o),
(43,558,o),
(43,349,cs),
(43,140,o),
(197,-6,o),
(393,-6,cs),
(582,-6,o),
(719,133,o),
(735,306,c),
(735,376,l),
(360,376,l),
(360,302,l),
(638,302,l),
(624,164,o),
(530,76,o),
(393,76,cs),
(246,76,o),
(136,182,o),
(136,349,cs),
(136,517,o),
(246,623,o),
(393,623,cs),
(491,623,o),
(567,576,o),
(605,495,c),
(714,495,l),
(662,629,o),
(540,705,o),
(393,705,cs)
);
}
);
width = 778;
}
);
note = uni0122;
unicode = 290;
},
{
glyphname = uni0123;
layers = (
{
layerId = m01;
shapes = (
{
closed = 1;
nodes = (
(382,596,l),
(382,682,l),
(334,682,l),
(334,705,ls),
(334,740,o),
(348,759,o),
(381,759,c),
(381,801,l),
(315,801,o),
(280,766,o),
(280,688,cs),
(280,661,o),
(283,631,o),
(291,596,c)
);
},
{
closed = 1;
nodes = (
(43,106,o),
(156,-9,o),
(303,-9,cs),
(403,-9,o),
(474,44,o),
(507,103,c),
(507,-12,ls),
(507,-129,o),
(434,-191,o),
(337,-191,cs),
(247,-191,o),
(182,-146,o),
(162,-80,c),
(72,-80,l),
(90,-197,o),
(193,-270,o),
(337,-270,cs),
(498,-270,o),
(599,-163,o),
(599,-12,cs),
(599,548,l),
(507,548,l),
(507,448,l),
(475,507,o),
(403,557,o),
(303,557,cs),
(156,557,o),
(43,447,o),
(43,276,cs)
);
},
{
closed = 1;
nodes = (
(507,146,o),
(421,71,o),
(321,71,cs),
(221,71,o),
(136,147,o),
(136,276,cs),
(136,405,o),
(221,478,o),
(321,478,cs),
(421,478,o),
(507,402,o),
(507,275,cs)
);
}
);
width = 676;
}
);
note = uni0123;
unicode = 291;
},
{
glyphname = Itilde;
layers = (
{
layerId = m01;
shapes = (
{
closed = 1;
nodes = (
(77,0,l),
(168,0,l),
(168,697,l),
(77,697,l)
);
},
{
closed = 1;
nodes = (
(29,752,l),
(33,782,o),
(50,796,o),
(72,796,cs),
(112,796,o),
(132,750,o),
(186,750,cs),
(238,750,o),
(278,786,o),
(286,854,c),
(234,854,l),
(230,825,o),
(212,811,o),
(190,811,cs),
(149,811,o),
(129,857,o),
(76,857,cs),
(24,857,o),
(-14,821,o),
(-24,752,c)
);
}
);
width = 246;
}
);
note = Itilde;
unicode = 296;
},
{
glyphname = itilde;
layers = (
{
layerId = m01;
shapes = (
{
closed = 1;
nodes = (
(77,0,l),
(168,0,l),
(168,548,l),
(77,548,l)
);
},
{
closed = 1;
nodes = (
(29,607,l),
(33,637,o),
(50,651,o),
(72,651,cs),
(112,651,o),
(132,605,o),
(186,605,cs),
(238,605,o),
(278,641,o),
(286,709,c),
(234,709,l),
(230,680,o),
(212,666,o),
(190,666,cs),
(149,666,o),
(129,712,o),
(76,712,cs),
(24,712,o),
(-14,676,o),
(-24,607,c)
);
}
);
width = 246;
}
);
note = itilde;
unicode = 297;
},
{
glyphname = Imacron;
layers = (
{
layerId = m01;
shapes = (
{
closed = 1;
nodes = (
(77,0,l),
(168,0,l),
(168,697,l),
(77,697,l)
);
},
{
closed = 1;
nodes = (
(-54,786,l),
(298,786,l),
(298,854,l),
(-54,854,l)
);
}
);
width = 246;
}
);
note = Imacron;
unicode = 298;
},
{
glyphname = imacron;
layers = (
{
layerId = m01;
shapes = (
{
closed = 1;
nodes = (
(77,0,l),
(168,0,l),
(168,548,l),
(77,548,l)
);
},
{
closed = 1;
nodes = (
(-54,641,l),
(298,641,l),
(298,709,l),
(-54,709,l)
);
}
);
width = 246;
}
);
note = imacron;
unicode = 299;
},
{
glyphname = uni012C;
layers = (
{
layerId = m01;
shapes = (
{
closed = 1;
nodes = (
(77,0,l),
(168,0,l),
(168,697,l),
(77,697,l)
);
},
{
closed = 1;
nodes = (
(265,895,l),
(211,895,l),
(211,847,o),
(187,818,o),
(123,818,cs),
(58,818,o),
(34,847,o),
(34,895,c),
(-20,895,l),
(-20,878,ls),
(-20,803,o),
(31,747,o),
(123,747,cs),
(215,747,o),
(265,803,o),
(265,877,cs)
);
}
);
width = 246;
}
);
note = uni012C;
unicode = 300;
},
{
glyphname = uni012D;
layers = (
{
layerId = m01;
shapes = (
{
closed = 1;
nodes = (
(77,0,l),
(168,0,l),
(168,548,l),
(77,548,l)
);
},
{
closed = 1;
nodes = (
(265,750,l),
(211,750,l),
(211,702,o),
(187,673,o),
(123,673,cs),
(58,673,o),
(34,702,o),
(34,750,c),
(-20,750,l),
(-20,733,ls),
(-20,658,o),
(31,602,o),
(123,602,cs),
(215,602,o),
(265,658,o),
(265,732,cs)
);
}
);
width = 246;
}
);
note = uni012D;
unicode = 301;
},
{
glyphname = Iogonek;
layers = (
{
layerId = m01;
shapes = (
{
closed = 1;
nodes = (
(177,-131,l),
(154,-139,o),
(131,-144,o),
(112,-144,cs),
(76,-144,o),
(53,-127,o),
(53,-96,cs),
(53,-71,o),
(68,-48,o),
(113,-26,cs),
(166,0,l),
(168,0,l),
(168,697,l),
(77,697,l),
(77,18,l),
(5,-19,o),
(-22,-61,o),
(-22,-105,cs),
(-22,-178,o),
(40,-205,o),
(100,-205,cs),
(127,-205,o),
(154,-199,o),
(177,-191,c)
);
}
);
width = 246;
}
);
note = Iogonek;
unicode = 302;
},
{
glyphname = iogonek;
layers = (
{
layerId = m01;
shapes = (
{
closed = 1;
nodes = (
(177,-131,l),
(154,-139,o),
(131,-144,o),
(112,-144,cs),
(76,-144,o),
(53,-127,o),
(53,-96,cs),
(53,-71,o),
(68,-48,o),
(113,-26,cs),
(166,0,l),
(168,0,l),
(168,548,l),
(77,548,l),
(77,18,l),
(5,-19,o),
(-22,-61,o),
(-22,-105,cs),
(-22,-178,o),
(40,-205,o),
(100,-205,cs),
(127,-205,o),
(154,-199,o),
(177,-191,c)
);
},
{
closed = 1;
nodes = (
(157,637,o),
(184,664,o),
(184,699,cs),
(184,734,o),
(157,761,o),
(124,761,cs),
(89,761,o),
(62,734,o),
(62,699,cs),
(62,664,o),
(89,637,o),
(124,637,cs)
);
}
);
width = 246;
}
);
note = iogonek;
unicode = 303;
},
{
glyphname = Idotaccent;
layers = (
{
layerId = m01;
shapes = (
{
closed = 1;
nodes = (
(77,0,l),
(168,0,l),
(168,697,l),
(77,697,l)
);
},
{
closed = 1;
nodes = (
(152,761,o),
(175,784,o),
(175,813,cs),
(175,842,o),
(152,866,o),
(123,866,cs),
(93,866,o),
(70,842,o),
(70,813,cs),
(70,784,o),
(93,761,o),
(123,761,cs)
);
}
);
width = 246;
}
);
note = Idotaccent;
unicode = 304;
},
{
glyphname = dotlessi;
layers = (
{
layerId = m01;
shapes = (
{
closed = 1;
nodes = (
(77,0,l),
(168,0,l),
(168,548,l),
(77,548,l)
);
}
);
width = 246;
}
);
note = dotlessi;
unicode = 305;
},
{
glyphname = uni0136;
layers = (
{
layerId = m01;
shapes = (
{
closed = 1;
nodes = (
(251,-49,l),
(251,-131,l),
(299,-131,l),
(299,-149,ls),
(299,-185,o),
(285,-205,o),
(252,-205,c),
(252,-247,l),
(317,-247,o),
(352,-212,o),
(352,-132,cs),
(352,-107,o),
(349,-79,o),
(341,-49,c)
);
},
{
closed = 1;
nodes = (
(455,0,l),
(574,0,l),
(255,348,l),
(571,697,l),
(456,697,l),
(168,374,l),
(168,697,l),
(77,697,l),
(77,0,l),
(168,0,l),
(168,318,l)
);
}
);
width = 599;
}
);
note = uni0136;
unicode = 310;
},
{
glyphname = uni0137;
layers = (
{
layerId = m01;
shapes = (
{
closed = 1;
nodes = (
(212,-49,l),
(212,-131,l),
(259,-131,l),
(259,-149,ls),
(259,-185,o),
(245,-205,o),
(212,-205,c),
(212,-247,l),
(277,-247,o),
(312,-212,o),
(312,-132,cs),
(312,-107,o),
(309,-79,o),
(302,-49,c)
);
},
{
closed = 1;
nodes = (
(77,0,l),
(168,0,l),
(168,242,l),
(383,0,l),
(507,0,l),
(248,275,l),
(506,548,l),
(379,548,l),
(168,305,l),
(168,740,l),
(77,740,l)
);
}
);
width = 515;
}
);
note = uni0137;
unicode = 311;
},
{
glyphname = Lacute;
layers = (
{
layerId = m01;
shapes = (
{
closed = 1;
nodes = (
(77,697,l),
(77,0,l),
(412,0,l),
(412,74,l),
(168,74,l),
(168,697,l)
);
},
{
closed = 1;
nodes = (
(101,802,l),
(101,734,l),
(314,848,l),
(314,927,l)
);
}
);
width = 432;
}
);
note = Lacute;
unicode = 313;
},
{
glyphname = lacute;
layers = (
{
layerId = m01;
shapes = (
{
closed = 1;
nodes = (
(77,0,l),
(168,0,l),
(168,740,l),
(77,740,l)
);
},
{
closed = 1;
nodes = (
(7,849,l),
(7,781,l),
(220,895,l),
(220,974,l)
);
}
);
width = 246;
}
);
note = lacute;
unicode = 314;
},
{
glyphname = uni013B;
layers = (
{
layerId = m01;
shapes = (
{
closed = 1;
nodes = (
(196,-49,l),
(196,-131,l),
(244,-131,l),
(244,-149,ls),
(244,-185,o),
(230,-205,o),
(197,-205,c),
(197,-247,l),
(262,-247,o),
(298,-212,o),
(298,-132,cs),
(298,-107,o),
(295,-79,o),
(287,-49,c)
);
},
{
closed = 1;
nodes = (
(77,697,l),
(77,0,l),
(412,0,l),
(412,74,l),
(168,74,l),
(168,697,l)
);
}
);
width = 432;
}
);
note = uni013B;
unicode = 315;
},
{
glyphname = uni013C;
layers = (
{
layerId = m01;
shapes = (
{
closed = 1;
nodes = (
(75,-49,l),
(75,-131,l),
(123,-131,l),
(123,-149,ls),
(123,-185,o),
(109,-205,o),
(75,-205,c),
(75,-247,l),
(140,-247,o),
(177,-212,o),
(177,-132,cs),
(177,-107,o),
(173,-79,o),
(166,-49,c)
);
},
{
closed = 1;
nodes = (
(77,0,l),
(168,0,l),
(168,740,l),
(77,740,l)
);
}
);
width = 246;
}
);
note = uni013C;
unicode = 316;
},
{
glyphname = Lcaron;
layers = (
{
layerId = m01;
shapes = (
{
closed = 1;
nodes = (
(281,697,l),
(281,612,l),
(330,612,l),
(330,589,ls),
(330,553,o),
(317,535,o),
(283,535,c),
(283,492,l),
(349,492,o),
(384,527,o),
(384,606,cs),
(384,632,o),
(381,662,o),
(373,697,c)
);
},
{
closed = 1;
nodes = (
(77,697,l),
(77,0,l),
(412,0,l),
(412,74,l),
(168,74,l),
(168,697,l)
);
}
);
width = 446;
}
);
note = Lcaron;
unicode = 317;
},
{
glyphname = lcaron;
layers = (
{
layerId = m01;
shapes = (
{
closed = 1;
nodes = (
(241,740,l),
(241,654,l),
(291,654,l),
(291,631,ls),
(291,596,o),
(277,578,o),
(243,578,c),
(243,535,l),
(309,535,o),
(344,570,o),
(344,648,cs),
(344,675,o),
(341,705,o),
(333,740,c)
);
},
{
closed = 1;
nodes = (
(77,0,l),
(168,0,l),
(168,740,l),
(77,740,l)
);
}
);
width = 369;
}
);
note = lcaron;
unicode = 318;
},
{
glyphname = Ldot;
layers = (
{
layerId = m01;
shapes = (
{
closed = 1;
nodes = (
(77,697,l),
(77,0,l),
(412,0,l),
(412,74,l),
(168,74,l),
(168,697,l)
);
},
{
closed = 1;
nodes = (
(246,761,o),
(269,784,o),
(269,813,cs),
(269,842,o),
(246,866,o),
(217,866,cs),
(187,866,o),
(164,842,o),
(164,813,cs),
(164,784,o),
(187,761,o),
(217,761,cs)
);
}
);
width = 432;
}
);
note = Ldot;
unicode = 319;
},
{
glyphname = ldot;
layers = (
{
layerId = m01;
shapes = (
{
closed = 1;
nodes = (
(152,775,o),
(176,798,o),
(176,827,cs),
(176,856,o),
(152,880,o),
(123,880,cs),
(93,880,o),
(70,856,o),
(70,827,cs),
(70,798,o),
(93,775,o),
(123,775,cs)
);
},
{
closed = 1;
nodes = (
(77,0,l),
(168,0,l),
(168,740,l),
(77,740,l)
);
}
);
width = 246;
}
);
note = ldot;
unicode = 320;
},
{
glyphname = Lslash;
layers = (
{
layerId = m01;
shapes = (
{
closed = 1;
nodes = (
(91,697,l),
(91,378,l),
(9,348,l),
(9,279,l),
(91,308,l),
(91,0,l),
(425,0,l),
(425,70,l),
(182,70,l),
(182,341,l),
(291,380,l),
(291,450,l),
(182,411,l),
(182,697,l)
);
}
);
width = 437;
}
);
note = Lslash;
unicode = 321;
},
{
glyphname = lslash;
layers = (
{
layerId = m01;
shapes = (
{
closed = 1;
nodes = (
(80,0,l),
(171,0,l),
(171,372,l),
(242,400,l),
(242,471,l),
(171,444,l),
(171,740,l),
(80,740,l),
(80,408,l),
(9,381,l),
(9,309,l),
(80,337,l)
);
}
);
width = 251;
}
);
note = lslash;
unicode = 322;
},
{
glyphname = Nacute;
layers = (
{
layerId = m01;
shapes = (
{
closed = 1;
nodes = (
(534,698,l),
(534,144,l),
(168,698,l),
(77,698,l),
(77,0,l),
(168,0,l),
(168,555,l),
(534,0,l),
(625,0,l),
(625,698,l)
);
},
{
closed = 1;
nodes = (
(236,802,l),
(236,734,l),
(449,848,l),
(449,927,l)
);
}
);
width = 703;
}
);
note = Nacute;
unicode = 323;
},
{
glyphname = nacute;
layers = (
{
layerId = m01;
shapes = (
{
closed = 1;
nodes = (
(206,657,l),
(206,589,l),
(419,703,l),
(419,782,l)
);
},
{
closed = 1;
nodes = (
(478,0,l),
(568,0,l),
(568,323,ls),
(568,480,o),
(471,558,o),
(344,558,cs),
(270,558,o),
(204,527,o),
(168,470,c),
(168,548,l),
(77,548,l),
(77,0,l),
(168,0,l),
(168,303,ls),
(168,421,o),
(232,479,o),
(325,479,cs),
(417,479,o),
(478,422,o),
(478,310,cs)
);
}
);
width = 640;
}
);
note = nacute;
unicode = 324;
},
{
glyphname = uni0145;
layers = (
{
layerId = m01;
shapes = (
{
closed = 1;
nodes = (
(304,-49,l),
(304,-131,l),
(351,-131,l),
(351,-149,ls),
(351,-185,o),
(337,-205,o),
(305,-205,c),
(305,-247,l),
(369,-247,o),
(405,-212,o),
(405,-132,cs),
(405,-107,o),
(402,-79,o),
(394,-49,c)
);
},
{
closed = 1;
nodes = (
(534,698,l),
(534,144,l),
(168,698,l),
(77,698,l),
(77,0,l),
(168,0,l),
(168,555,l),
(534,0,l),
(625,0,l),
(625,698,l)
);
}
);
width = 703;
}
);
note = uni0145;
unicode = 325;
},
{
glyphname = uni0146;
layers = (
{
layerId = m01;
shapes = (
{
closed = 1;
nodes = (
(274,-49,l),
(274,-131,l),
(322,-131,l),
(322,-149,ls),
(322,-185,o),
(308,-205,o),
(275,-205,c),
(275,-247,l),
(340,-247,o),
(376,-212,o),
(376,-132,cs),
(376,-107,o),
(372,-79,o),
(364,-49,c)
);
},
{
closed = 1;
nodes = (
(478,0,l),
(568,0,l),
(568,323,ls),
(568,480,o),
(471,558,o),
(344,558,cs),
(270,558,o),
(204,527,o),
(168,470,c),
(168,548,l),
(77,548,l),
(77,0,l),
(168,0,l),
(168,303,ls),
(168,421,o),
(232,479,o),
(325,479,cs),
(417,479,o),
(478,422,o),
(478,310,cs)
);
}
);
width = 640;
}
);
note = uni0146;
unicode = 326;
},
{
glyphname = Ncaron;
layers = (
{
layerId = m01;
shapes = (
{
closed = 1;
nodes = (
(534,698,l),
(534,144,l),
(168,698,l),
(77,698,l),
(77,0,l),
(168,0,l),
(168,555,l),
(534,0,l),
(625,0,l),
(625,698,l)
);
},
{
closed = 1;
nodes = (
(352,811,l),
(213,896,l),
(213,824,l),
(352,742,l),
(490,824,l),
(490,896,l)
);
}
);
width = 703;
}
);
note = Ncaron;
unicode = 327;
},
{
glyphname = ncaron;
layers = (
{
layerId = m01;
shapes = (
{
closed = 1;
nodes = (
(478,0,l),
(568,0,l),
(568,323,ls),
(568,480,o),
(471,558,o),
(344,558,cs),
(270,558,o),
(204,527,o),
(168,470,c),
(168,548,l),
(77,548,l),
(77,0,l),
(168,0,l),
(168,303,ls),
(168,421,o),
(232,479,o),
(325,479,cs),
(417,479,o),
(478,422,o),
(478,310,cs)
);
},
{
closed = 1;
nodes = (
(322,666,l),
(183,751,l),
(183,679,l),
(322,597,l),
(460,679,l),
(460,751,l)
);
}
);
width = 640;
}
);
note = ncaron;
unicode = 328;
},
{
glyphname = Omacron;
layers = (
{
layerId = m01;
shapes = (
{
closed = 1;
nodes = (
(743,558,o),
(590,705,o),
(393,705,cs),
(197,705,o),
(43,558,o),
(43,349,cs),
(43,140,o),
(197,-7,o),
(393,-7,cs),
(590,-7,o),
(743,140,o),
(743,349,cs)
);
},
{
closed = 1;
nodes = (
(136,520,o),
(246,626,o),
(393,626,cs),
(540,626,o),
(650,520,o),
(650,349,cs),
(650,179,o),
(540,72,o),
(393,72,cs),
(246,72,o),
(136,179,o),
(136,349,cs)
);
},
{
closed = 1;
nodes = (
(219,786,l),
(571,786,l),
(571,854,l),
(219,854,l)
);
}
);
width = 786;
}
);
note = Omacron;
unicode = 332;
},
{
glyphname = omacron;
layers = (
{
layerId = m01;
shapes = (
{
closed = 1;
nodes = (
(597,448,o),
(476,557,o),
(320,557,cs),
(165,557,o),
(43,448,o),
(43,275,cs),
(43,101,o),
(161,-9,o),
(316,-9,cs),
(472,-9,o),
(597,101,o),
(597,275,cs)
);
},
{
closed = 1;
nodes = (
(136,413,o),
(223,478,o),
(319,478,cs),
(413,478,o),
(504,413,o),
(504,275,cs),
(504,136,o),
(411,71,o),
(316,71,cs),
(221,71,o),
(136,136,o),
(136,275,cs)
);
},
{
closed = 1;
nodes = (
(144,648,l),
(496,648,l),
(496,716,l),
(144,716,l)
);
}
);
width = 640;
}
);
note = omacron;
unicode = 333;
},
{
glyphname = uni014E;
layers = (
{
layerId = m01;
shapes = (
{
closed = 1;
nodes = (
(743,558,o),
(590,705,o),
(393,705,cs),
(197,705,o),
(43,558,o),
(43,349,cs),
(43,140,o),
(197,-7,o),
(393,-7,cs),
(590,-7,o),
(743,140,o),
(743,349,cs)
);
},
{
closed = 1;
nodes = (
(136,520,o),
(246,626,o),
(393,626,cs),
(540,626,o),
(650,520,o),
(650,349,cs),
(650,179,o),
(540,72,o),
(393,72,cs),
(246,72,o),
(136,179,o),
(136,349,cs)
);
},
{
closed = 1;
nodes = (
(538,895,l),
(484,895,l),
(484,847,o),
(460,818,o),
(396,818,cs),
(331,818,o),
(307,847,o),
(307,895,c),
(253,895,l),
(253,878,ls),
(253,803,o),
(304,747,o),
(396,747,cs),
(488,747,o),
(538,803,o),
(538,877,cs)
);
}
);
width = 786;
}
);
note = uni014E;
unicode = 334;
},
{
glyphname = uni014F;
layers = (
{
layerId = m01;
shapes = (
{
closed = 1;
nodes = (
(597,448,o),
(476,557,o),
(320,557,cs),
(165,557,o),
(43,448,o),
(43,275,cs),
(43,101,o),
(161,-9,o),
(316,-9,cs),
(472,-9,o),
(597,101,o),
(597,275,cs)
);
},
{
closed = 1;
nodes = (
(136,413,o),
(223,478,o),
(319,478,cs),
(413,478,o),
(504,413,o),
(504,275,cs),
(504,136,o),
(411,71,o),
(316,71,cs),
(221,71,o),
(136,136,o),
(136,275,cs)
);
},
{
closed = 1;
nodes = (
(463,757,l),
(409,757,l),
(409,709,o),
(385,680,o),
(321,680,cs),
(256,680,o),
(232,709,o),
(232,757,c),
(178,757,l),
(178,740,ls),
(178,665,o),
(229,609,o),
(321,609,cs),
(413,609,o),
(463,665,o),
(463,739,cs)
);
}
);
width = 640;
}
);
note = uni014F;
unicode = 335;
},
{
glyphname = Ohungarumlaut;
layers = (
{
layerId = m01;
shapes = (
{
closed = 1;
nodes = (
(743,558,o),
(590,705,o),
(393,705,cs),
(197,705,o),
(43,558,o),
(43,349,cs),
(43,140,o),
(197,-7,o),
(393,-7,cs),
(590,-7,o),
(743,140,o),
(743,349,cs)
);
},
{
closed = 1;
nodes = (
(136,520,o),
(246,626,o),
(393,626,cs),
(540,626,o),
(650,520,o),
(650,349,cs),
(650,179,o),
(540,72,o),
(393,72,cs),
(246,72,o),
(136,179,o),
(136,349,cs)
);
},
{
closed = 1;
nodes = (
(348,900,l),
(281,746,l),
(342,746,l),
(429,900,l)
);
},
{
closed = 1;
nodes = (
(502,900,l),
(430,746,l),
(490,746,l),
(582,900,l)
);
}
);
width = 786;
}
);
note = Ohungarumlaut;
unicode = 336;
},
{
glyphname = ohungarumlaut;
layers = (
{
layerId = m01;
shapes = (
{
closed = 1;
nodes = (
(597,448,o),
(476,557,o),
(320,557,cs),
(165,557,o),
(43,448,o),
(43,275,cs),
(43,101,o),
(161,-9,o),
(316,-9,cs),
(472,-9,o),
(597,101,o),
(597,275,cs)
);
},
{
closed = 1;
nodes = (
(136,413,o),
(223,478,o),
(319,478,cs),
(413,478,o),
(504,413,o),
(504,275,cs),
(504,136,o),
(411,71,o),
(316,71,cs),
(221,71,o),
(136,136,o),
(136,275,cs)
);
},
{
closed = 1;
nodes = (
(273,762,l),
(206,608,l),
(267,608,l),
(354,762,l)
);
},
{
closed = 1;
nodes = (
(427,762,l),
(355,608,l),
(415,608,l),
(507,762,l)
);
}
);
width = 640;
}
);
note = ohungarumlaut;
unicode = 337;
},
{
glyphname = OE;
layers = (
{
layerId = m01;
shapes = (
{
closed = 1;
nodes = (
(1024,626,l),
(1024,697,l),
(650,697,l),
(650,558,l),
(598,652,o),
(503,705,o),
(385,705,cs),
(198,705,o),
(43,560,o),
(43,349,cs),
(43,140,o),
(197,-7,o),
(386,-7,cs),
(503,-7,o),
(598,46,o),
(650,143,c),
(650,0,l),
(1024,0,l),
(1024,72,l),
(741,72,l),
(741,316,l),
(994,316,l),
(994,387,l),
(741,387,l),
(741,626,l)
);
},
{
closed = 1;
nodes = (
(540,623,o),
(650,517,o),
(650,349,cs),
(650,182,o),
(540,75,o),
(393,75,cs),
(246,75,o),
(136,182,o),
(136,349,cs),
(136,517,o),
(246,623,o),
(393,623,cs)
);
}
);
width = 1086;
}
);
note = OE;
unicode = 338;
},
{
glyphname = oe;
layers = (
{
layerId = m01;
shapes = (
{
closed = 1;
nodes = (
(503,136,o),
(411,68,o),
(316,68,cs),
(221,68,o),
(136,136,o),
(136,275,cs),
(136,413,o),
(223,480,o),
(318,480,cs),
(413,480,o),
(503,413,o),
(503,275,cs)
);
},
{
closed = 1;
nodes = (
(864,480,o),
(944,418,o),
(943,306,c),
(597,306,l),
(604,418,o),
(679,480,o),
(770,480,cs)
);
},
{
closed = 1;
nodes = (
(43,101,o),
(160,-9,o),
(316,-9,cs),
(416,-9,o),
(502,40,o),
(548,126,c),
(590,40,o),
(671,-9,o),
(770,-9,cs),
(907,-9,o),
(995,69,o),
(1023,169,c),
(925,169,l),
(905,110,o),
(853,68,o),
(770,68,cs),
(676,68,o),
(602,130,o),
(597,243,c),
(1033,243,l),
(1036,262,o),
(1037,278,o),
(1037,297,cs),
(1037,445,o),
(933,557,o),
(774,557,cs),
(672,557,o),
(590,508,o),
(548,424,c),
(504,508,o),
(419,557,o),
(320,557,cs),
(165,557,o),
(43,448,o),
(43,275,cs)
);
}
);
width = 1080;
}
);
note = oe;
unicode = 339;
},
{
glyphname = Racute;
layers = (
{
layerId = m01;
shapes = (
{
closed = 1;
nodes = (
(450,414,o),
(405,358,o),
(302,358,cs),
(168,358,l),
(168,622,l),
(302,622,ls),
(406,622,o),
(450,571,o),
(450,492,cs)
);
},
{
closed = 1;
nodes = (
(77,697,l),
(77,0,l),
(168,0,l),
(168,285,l),
(278,285,l),
(444,0,l),
(553,0,l),
(378,292,l),
(495,318,o),
(544,403,o),
(544,492,cs),
(544,606,o),
(466,697,o),
(302,697,cs)
);
},
{
closed = 1;
nodes = (
(195,802,l),
(195,734,l),
(408,848,l),
(408,927,l)
);
}
);
width = 608;
}
);
note = Racute;
unicode = 340;
},
{
glyphname = racute;
layers = (
{
layerId = m01;
shapes = (
{
closed = 1;
nodes = (
(168,298,ls),
(168,425,o),
(234,464,o),
(321,464,cs),
(345,464,l),
(345,558,l),
(258,558,o),
(199,520,o),
(168,459,c),
(168,548,l),
(77,548,l),
(77,0,l),
(168,0,l)
);
},
{
closed = 1;
nodes = (
(115,657,l),
(115,589,l),
(328,703,l),
(328,782,l)
);
}
);
width = 373;
}
);
note = racute;
unicode = 341;
},
{
glyphname = uni0156;
layers = (
{
layerId = m01;
shapes = (
{
closed = 1;
nodes = (
(256,-49,l),
(256,-131,l),
(303,-131,l),
(303,-149,ls),
(303,-185,o),
(289,-205,o),
(256,-205,c),
(256,-247,l),
(321,-247,o),
(356,-212,o),
(356,-132,cs),
(356,-107,o),
(353,-79,o),
(346,-49,c)
);
},
{
closed = 1;
nodes = (
(168,0,l),
(168,285,l),
(278,285,l),
(444,0,l),
(553,0,l),
(378,292,l),
(495,318,o),
(544,403,o),
(544,492,cs),
(544,606,o),
(466,697,o),
(302,697,cs),
(77,697,l),
(77,0,l)
);
},
{
closed = 1;
nodes = (
(450,414,o),
(405,358,o),
(302,358,cs),
(168,358,l),
(168,622,l),
(302,622,ls),
(406,622,o),
(450,571,o),
(450,492,cs)
);
}
);
width = 608;
}
);
note = uni0156;
unicode = 342;
},
{
glyphname = uni0157;
layers = (
{
layerId = m01;
shapes = (
{
closed = 1;
nodes = (
(75,-49,l),
(75,-131,l),
(122,-131,l),
(122,-149,ls),
(122,-185,o),
(108,-205,o),
(75,-205,c),
(75,-247,l),
(140,-247,o),
(176,-212,o),
(176,-132,cs),
(176,-107,o),
(173,-79,o),
(165,-49,c)
);
},
{
closed = 1;
nodes = (
(168,298,ls),
(168,425,o),
(234,464,o),
(321,464,cs),
(345,464,l),
(345,558,l),
(258,558,o),
(199,520,o),
(168,459,c),
(168,548,l),
(77,548,l),
(77,0,l),
(168,0,l)
);
}
);
width = 373;
}
);
note = uni0157;
unicode = 343;
},
{
glyphname = Rcaron;
layers = (
{
layerId = m01;
shapes = (
{
closed = 1;
nodes = (
(450,414,o),
(405,358,o),
(302,358,cs),
(168,358,l),
(168,622,l),
(302,622,ls),
(406,622,o),
(450,571,o),
(450,492,cs)
);
},
{
closed = 1;
nodes = (
(77,697,l),
(77,0,l),
(168,0,l),
(168,285,l),
(278,285,l),
(444,0,l),
(553,0,l),
(378,292,l),
(495,318,o),
(544,403,o),
(544,492,cs),
(544,606,o),
(466,697,o),
(302,697,cs)
);
},
{
closed = 1;
nodes = (
(311,811,l),
(172,896,l),
(172,824,l),
(311,742,l),
(449,824,l),
(449,896,l)
);
}
);
width = 608;
}
);
note = Rcaron;
unicode = 344;
},
{
glyphname = rcaron;
layers = (
{
layerId = m01;
shapes = (
{
closed = 1;
nodes = (
(168,298,ls),
(168,425,o),
(234,464,o),
(321,464,cs),
(345,464,l),
(345,558,l),
(258,558,o),
(199,520,o),
(168,459,c),
(168,548,l),
(77,548,l),
(77,0,l),
(168,0,l)
);
},
{
closed = 1;
nodes = (
(231,666,l),
(92,751,l),
(92,679,l),
(231,597,l),
(369,679,l),
(369,751,l)
);
}
);
width = 373;
}
);
note = rcaron;
unicode = 345;
},
{
glyphname = Sacute;
layers = (
{
layerId = m01;
shapes = (
{
closed = 1;
nodes = (
(530,448,o),
(154,336,o),
(154,516,cs),
(154,591,o),
(213,630,o),
(288,628,cs),
(373,627,o),
(417,574,o),
(423,527,c),
(523,527,l),
(512,633,o),
(425,706,o),
(292,706,cs),
(154,706,o),
(61,628,o),
(61,513,cs),
(61,254,o),
(438,374,o),
(438,186,cs),
(438,120,o),
(386,70,o),
(298,70,cs),
(201,70,o),
(160,128,o),
(154,186,c),
(57,186,l),
(59,71,o),
(158,-7,o),
(298,-7,cs),
(449,-7,o),
(530,91,o),
(530,190,cs)
);
},
{
closed = 1;
nodes = (
(176,808,l),
(176,740,l),
(389,854,l),
(389,933,l)
);
}
);
width = 587;
}
);
note = Sacute;
unicode = 346;
},
{
glyphname = sacute;
layers = (
{
layerId = m01;
shapes = (
{
closed = 1;
nodes = (
(467,345,o),
(149,274,o),
(149,404,cs),
(149,448,o),
(189,480,o),
(256,480,cs),
(329,480,o),
(371,440,o),
(375,385,c),
(466,385,l),
(460,492,o),
(380,557,o),
(259,557,cs),
(137,557,o),
(58,488,o),
(58,404,cs),
(58,200,o),
(382,271,o),
(382,149,cs),
(382,104,o),
(342,68,o),
(270,68,cs),
(193,68,o),
(146,108,o),
(141,161,c),
(47,161,l),
(53,61,o),
(143,-9,o),
(271,-9,cs),
(392,-9,o),
(471,59,o),
(471,149,cs)
);
},
{
closed = 1;
nodes = (
(145,664,l),
(145,596,l),
(358,710,l),
(358,789,l)
);
}
);
width = 522;
}
);
note = sacute;
unicode = 347;
},
{
glyphname = uni015E;
layers = (
{
layerId = m01;
shapes = (
{
closed = 1;
nodes = (
(530,448,o),
(154,336,o),
(154,516,cs),
(154,591,o),
(213,630,o),
(288,628,cs),
(373,627,o),
(417,574,o),
(423,527,c),
(523,527,l),
(512,633,o),
(425,706,o),
(292,706,cs),
(154,706,o),
(61,628,o),
(61,513,cs),
(61,254,o),
(438,374,o),
(438,186,cs),
(438,120,o),
(386,70,o),
(298,70,cs),
(201,70,o),
(160,128,o),
(154,186,c),
(57,186,l),
(59,79,o),
(144,5,o),
(268,-6,c),
(268,-119,l),
(318,-119,ls),
(361,-119,o),
(382,-131,o),
(382,-162,cs),
(382,-194,o),
(361,-206,o),
(318,-206,cs),
(221,-206,l),
(221,-265,l),
(336,-265,ls),
(407,-265,o),
(458,-225,o),
(458,-162,cs),
(458,-96,o),
(406,-62,o),
(329,-63,c),
(329,-6,l),
(460,7,o),
(530,98,o),
(530,190,cs)
);
}
);
width = 587;
}
);
note = uni015E;
unicode = 350;
},
{
glyphname = uni015F;
layers = (
{
layerId = m01;
shapes = (
{
closed = 1;
nodes = (
(467,345,o),
(149,274,o),
(149,404,cs),
(149,448,o),
(189,480,o),
(256,480,cs),
(329,480,o),
(371,440,o),
(375,385,c),
(466,385,l),
(460,492,o),
(380,557,o),
(259,557,cs),
(137,557,o),
(58,488,o),
(58,404,cs),
(58,200,o),
(382,271,o),
(382,149,cs),
(382,104,o),
(342,68,o),
(270,68,cs),
(193,68,o),
(146,108,o),
(141,161,c),
(47,161,l),
(52,71,o),
(126,5,o),
(234,-7,c),
(234,-114,l),
(284,-114,ls),
(327,-114,o),
(348,-126,o),
(348,-157,cs),
(348,-189,o),
(327,-201,o),
(284,-201,cs),
(187,-201,l),
(187,-260,l),
(302,-260,ls),
(373,-260,o),
(424,-220,o),
(424,-157,cs),
(424,-91,o),
(372,-57,o),
(295,-58,c),
(295,-8,l),
(402,0,o),
(471,65,o),
(471,149,cs)
);
}
);
width = 522;
}
);
note = uni015F;
unicode = 351;
},
{
glyphname = Scaron;
layers = (
{
layerId = m01;
shapes = (
{
closed = 1;
nodes = (
(530,448,o),
(154,336,o),
(154,516,cs),
(154,591,o),
(213,630,o),
(288,628,cs),
(373,627,o),
(417,574,o),
(423,527,c),
(523,527,l),
(512,633,o),
(425,706,o),
(292,706,cs),
(154,706,o),
(61,628,o),
(61,513,cs),
(61,254,o),
(438,374,o),
(438,186,cs),
(438,120,o),
(386,70,o),
(298,70,cs),
(201,70,o),
(160,128,o),
(154,186,c),
(57,186,l),
(59,71,o),
(158,-7,o),
(298,-7,cs),
(449,-7,o),
(530,91,o),
(530,190,cs)
);
},
{
closed = 1;
nodes = (
(291,817,l),
(152,902,l),
(152,830,l),
(291,748,l),
(429,830,l),
(429,902,l)
);
}
);
width = 587;
}
);
note = Scaron;
unicode = 352;
},
{
glyphname = scaron;
layers = (
{
layerId = m01;
shapes = (
{
closed = 1;
nodes = (
(467,345,o),
(149,274,o),
(149,404,cs),
(149,448,o),
(189,480,o),
(256,480,cs),
(329,480,o),
(371,440,o),
(375,385,c),
(466,385,l),
(460,492,o),
(380,557,o),
(259,557,cs),
(137,557,o),
(58,488,o),
(58,404,cs),
(58,200,o),
(382,271,o),
(382,149,cs),
(382,104,o),
(342,68,o),
(270,68,cs),
(193,68,o),
(146,108,o),
(141,161,c),
(47,161,l),
(53,61,o),
(143,-9,o),
(271,-9,cs),
(392,-9,o),
(471,59,o),
(471,149,cs)
);
},
{
closed = 1;
nodes = (
(261,673,l),
(122,758,l),
(122,686,l),
(261,604,l),
(399,686,l),
(399,758,l)
);
}
);
width = 522;
}
);
note = scaron;
unicode = 353;
},
{
glyphname = uni0162;
layers = (
{
layerId = m01;
shapes = (
{
closed = 1;
nodes = (
(34,623,l),
(225,623,l),
(225,0,l),
(241,0,l),
(241,-114,l),
(291,-114,ls),
(334,-114,o),
(355,-126,o),
(355,-157,cs),
(355,-189,o),
(334,-201,o),
(291,-201,cs),
(194,-201,l),
(194,-260,l),
(309,-260,ls),
(380,-260,o),
(431,-220,o),
(431,-157,cs),
(431,-91,o),
(379,-57,o),
(302,-58,c),
(302,0,l),
(316,0,l),
(316,623,l),
(506,623,l),
(506,697,l),
(34,697,l)
);
}
);
width = 541;
}
);
note = uni0162;
unicode = 354;
},
{
glyphname = uni0163;
layers = (
{
layerId = m01;
shapes = (
{
closed = 1;
nodes = (
(97,150,ls),
(97,77,o),
(121,35,o),
(165,15,c),
(165,-114,l),
(216,-114,ls),
(259,-114,o),
(280,-126,o),
(280,-157,cs),
(280,-189,o),
(259,-201,o),
(216,-201,cs),
(119,-201,l),
(119,-260,l),
(234,-260,ls),
(305,-260,o),
(356,-220,o),
(356,-157,cs),
(356,-91,o),
(303,-57,o),
(227,-58,c),
(227,1,l),
(234,0,o),
(241,0,o),
(249,0,cs),
(331,0,l),
(331,77,l),
(264,77,ls),
(208,77,o),
(188,96,o),
(188,150,cs),
(188,473,l),
(331,473,l),
(331,548,l),
(188,548,l),
(188,686,l),
(97,686,l),
(97,548,l),
(26,548,l),
(26,473,l),
(97,473,l)
);
}
);
width = 364;
}
);
note = uni0163;
unicode = 355;
},
{
glyphname = Tcaron;
layers = (
{
layerId = m01;
shapes = (
{
closed = 1;
nodes = (
(34,623,l),
(225,623,l),
(225,0,l),
(316,0,l),
(316,623,l),
(506,623,l),
(506,697,l),
(34,697,l)
);
},
{
closed = 1;
nodes = (
(271,811,l),
(132,896,l),
(132,824,l),
(271,742,l),
(409,824,l),
(409,896,l)
);
}
);
width = 541;
}
);
note = Tcaron;
unicode = 356;
},
{
glyphname = tcaron;
layers = (
{
layerId = m01;
shapes = (
{
closed = 1;
nodes = (
(262,773,l),
(262,687,l),
(311,687,l),
(311,669,ls),
(311,644,o),
(296,633,o),
(263,633,c),
(263,591,l),
(329,591,o),
(365,619,o),
(365,688,cs),
(365,715,o),
(361,738,o),
(353,773,c)
);
},
{
closed = 1;
nodes = (
(97,150,ls),
(97,40,o),
(152,0,o),
(249,0,cs),
(331,0,l),
(331,77,l),
(264,77,ls),
(208,77,o),
(188,96,o),
(188,150,cs),
(188,473,l),
(331,473,l),
(331,548,l),
(188,548,l),
(188,686,l),
(97,686,l),
(97,548,l),
(26,548,l),
(26,473,l),
(97,473,l)
);
}
);
width = 367;
}
);
note = tcaron;
unicode = 357;
},
{
glyphname = Utilde;
layers = (
{
layerId = m01;
shapes = (
{
closed = 1;
nodes = (
(75,257,ls),
(75,76,o),
(193,-7,o),
(337,-7,cs),
(481,-7,o),
(600,76,o),
(600,257,cs),
(600,697,l),
(509,697,l),
(509,256,ls),
(509,128,o),
(441,73,o),
(338,73,cs),
(235,73,o),
(166,128,o),
(166,256,cs),
(166,697,l),
(75,697,l)
);
},
{
closed = 1;
nodes = (
(243,752,l),
(247,782,o),
(264,796,o),
(286,796,cs),
(326,796,o),
(346,750,o),
(400,750,cs),
(452,750,o),
(492,786,o),
(500,854,c),
(448,854,l),
(444,825,o),
(426,811,o),
(404,811,cs),
(363,811,o),
(343,857,o),
(290,857,cs),
(238,857,o),
(200,821,o),
(190,752,c)
);
}
);
width = 675;
}
);
note = Utilde;
unicode = 360;
},
{
glyphname = utilde;
layers = (
{
layerId = m01;
shapes = (
{
closed = 1;
nodes = (
(472,0,l),
(563,0,l),
(563,548,l),
(472,548,l),
(472,247,ls),
(472,129,o),
(409,71,o),
(315,71,cs),
(223,71,o),
(162,128,o),
(162,239,cs),
(162,548,l),
(72,548,l),
(72,227,ls),
(72,70,o),
(171,-8,o),
(297,-8,cs),
(370,-8,o),
(437,24,o),
(472,81,c)
);
},
{
closed = 1;
nodes = (
(227,607,l),
(231,637,o),
(248,651,o),
(270,651,cs),
(310,651,o),
(330,605,o),
(384,605,cs),
(436,605,o),
(476,641,o),
(484,709,c),
(432,709,l),
(428,680,o),
(410,666,o),
(388,666,cs),
(347,666,o),
(327,712,o),
(274,712,cs),
(222,712,o),
(184,676,o),
(174,607,c)
);
}
);
width = 640;
}
);
note = utilde;
unicode = 361;
},
{
glyphname = Umacron;
layers = (
{
layerId = m01;
shapes = (
{
closed = 1;
nodes = (
(75,257,ls),
(75,76,o),
(193,-7,o),
(337,-7,cs),
(481,-7,o),
(600,76,o),
(600,257,cs),
(600,697,l),
(509,697,l),
(509,256,ls),
(509,128,o),
(441,73,o),
(338,73,cs),
(235,73,o),
(166,128,o),
(166,256,cs),
(166,697,l),
(75,697,l)
);
},
{
closed = 1;
nodes = (
(161,786,l),
(513,786,l),
(513,854,l),
(161,854,l)
);
}
);
width = 675;
}
);
note = Umacron;
unicode = 362;
},
{
glyphname = umacron;
layers = (
{
layerId = m01;
shapes = (
{
closed = 1;
nodes = (
(563,548,l),
(472,548,l),
(472,247,ls),
(472,129,o),
(409,71,o),
(315,71,cs),
(223,71,o),
(162,128,o),
(162,239,cs),
(162,548,l),
(72,548,l),
(72,227,ls),
(72,70,o),
(171,-8,o),
(297,-8,cs),
(370,-8,o),
(437,24,o),
(472,81,c),
(472,0,l),
(563,0,l)
);
},
{
closed = 1;
nodes = (
(144,641,l),
(496,641,l),
(496,709,l),
(144,709,l)
);
}
);
width = 640;
}
);
note = umacron;
unicode = 363;
},
{
glyphname = Ubreve;
layers = (
{
layerId = m01;
shapes = (
{
closed = 1;
nodes = (
(75,257,ls),
(75,76,o),
(193,-7,o),
(337,-7,cs),
(481,-7,o),
(600,76,o),
(600,257,cs),
(600,697,l),
(509,697,l),
(509,256,ls),
(509,128,o),
(441,73,o),
(338,73,cs),
(235,73,o),
(166,128,o),
(166,256,cs),
(166,697,l),
(75,697,l)
);
},
{
closed = 1;
nodes = (
(480,895,l),
(426,895,l),
(426,847,o),
(402,818,o),
(338,818,cs),
(273,818,o),
(249,847,o),
(249,895,c),
(195,895,l),
(195,878,ls),
(195,803,o),
(246,747,o),
(338,747,cs),
(430,747,o),
(480,803,o),
(480,877,cs)
);
}
);
width = 675;
}
);
note = Ubreve;
unicode = 364;
},
{
glyphname = ubreve;
layers = (
{
layerId = m01;
shapes = (
{
closed = 1;
nodes = (
(563,548,l),
(472,548,l),
(472,247,ls),
(472,129,o),
(409,71,o),
(315,71,cs),
(223,71,o),
(162,128,o),
(162,239,cs),
(162,548,l),
(72,548,l),
(72,227,ls),
(72,70,o),
(171,-8,o),
(297,-8,cs),
(370,-8,o),
(437,24,o),
(472,81,c),
(472,0,l),
(563,0,l)
);
},
{
closed = 1;
nodes = (
(463,750,l),
(409,750,l),
(409,702,o),
(385,673,o),
(321,673,cs),
(256,673,o),
(232,702,o),
(232,750,c),
(178,750,l),
(178,733,ls),
(178,658,o),
(229,602,o),
(321,602,cs),
(413,602,o),
(463,658,o),
(463,732,cs)
);
}
);
width = 640;
}
);
note = ubreve;
unicode = 365;
},
{
glyphname = Uring;
layers = (
{
layerId = m01;
shapes = (
{
closed = 1;
nodes = (
(75,257,ls),
(75,76,o),
(193,-7,o),
(337,-7,cs),
(481,-7,o),
(600,76,o),
(600,257,cs),
(600,697,l),
(509,697,l),
(509,256,ls),
(509,128,o),
(441,73,o),
(338,73,cs),
(235,73,o),
(166,128,o),
(166,256,cs),
(166,697,l),
(75,697,l)
);
},
{
closed = 1;
nodes = (
(280,962,o),
(231,922,o),
(231,857,cs),
(231,792,o),
(280,752,o),
(338,752,cs),
(397,752,o),
(445,792,o),
(445,857,cs),
(445,922,o),
(397,962,o),
(338,962,cs)
);
},
{
closed = 1;
nodes = (
(308,801,o),
(284,824,o),
(284,858,cs),
(284,892,o),
(308,914,o),
(338,914,cs),
(368,914,o),
(392,892,o),
(392,858,cs),
(392,824,o),
(368,801,o),
(338,801,cs)
);
}
);
width = 675;
}
);
note = Uring;
unicode = 366;
},
{
glyphname = uring;
layers = (
{
layerId = m01;
shapes = (
{
closed = 1;
nodes = (
(563,548,l),
(472,548,l),
(472,247,ls),
(472,129,o),
(409,71,o),
(315,71,cs),
(223,71,o),
(162,128,o),
(162,239,cs),
(162,548,l),
(72,548,l),
(72,227,ls),
(72,70,o),
(171,-8,o),
(297,-8,cs),
(370,-8,o),
(437,24,o),
(472,81,c),
(472,0,l),
(563,0,l)
);
},
{
closed = 1;
nodes = (
(291,656,o),
(267,679,o),
(267,713,cs),
(267,747,o),
(291,769,o),
(321,769,cs),
(351,769,o),
(375,747,o),
(375,713,cs),
(375,679,o),
(351,656,o),
(321,656,cs)
);
},
{
closed = 1;
nodes = (
(263,817,o),
(214,777,o),
(214,712,cs),
(214,647,o),
(263,607,o),
(321,607,cs),
(380,607,o),
(428,647,o),
(428,712,cs),
(428,777,o),
(380,817,o),
(321,817,cs)
);
}
);
width = 640;
}
);
note = uring;
unicode = 367;
},
{
glyphname = Uhungarumlaut;
layers = (
{
layerId = m01;
shapes = (
{
closed = 1;
nodes = (
(75,257,ls),
(75,76,o),
(193,-7,o),
(337,-7,cs),
(481,-7,o),
(600,76,o),
(600,257,cs),
(600,697,l),
(509,697,l),
(509,256,ls),
(509,128,o),
(441,73,o),
(338,73,cs),
(235,73,o),
(166,128,o),
(166,256,cs),
(166,697,l),
(75,697,l)
);
},
{
closed = 1;
nodes = (
(290,900,l),
(223,746,l),
(284,746,l),
(371,900,l)
);
},
{
closed = 1;
nodes = (
(444,900,l),
(372,746,l),
(432,746,l),
(524,900,l)
);
}
);
width = 675;
}
);
note = Uhungarumlaut;
unicode = 368;
},
{
glyphname = uhungarumlaut;
layers = (
{
layerId = m01;
shapes = (
{
closed = 1;
nodes = (
(563,548,l),
(472,548,l),
(472,247,ls),
(472,129,o),
(409,71,o),
(315,71,cs),
(223,71,o),
(162,128,o),
(162,239,cs),
(162,548,l),
(72,548,l),
(72,227,ls),
(72,70,o),
(171,-8,o),
(297,-8,cs),
(370,-8,o),
(437,24,o),
(472,81,c),
(472,0,l),
(563,0,l)
);
},
{
closed = 1;
nodes = (
(273,755,l),
(206,601,l),
(267,601,l),
(354,755,l)
);
},
{
closed = 1;
nodes = (
(427,755,l),
(355,601,l),
(415,601,l),
(507,755,l)
);
}
);
width = 640;
}
);
note = uhungarumlaut;
unicode = 369;
},
{
glyphname = Uogonek;
layers = (
{
layerId = m01;
shapes = (
{
closed = 1;
nodes = (
(75,257,ls),
(75,99,o),
(165,16,o),
(283,-3,c),
(236,-35,o),
(218,-69,o),
(218,-106,cs),
(218,-179,o),
(280,-206,o),
(340,-206,cs),
(367,-206,o),
(394,-200,o),
(417,-192,c),
(417,-132,l),
(394,-140,o),
(371,-145,o),
(352,-145,cs),
(316,-145,o),
(293,-128,o),
(293,-97,cs),
(293,-72,o),
(308,-49,o),
(353,-27,cs),
(408,0,l),
(408,0,l),
(518,24,o),
(600,107,o),
(600,257,cs),
(600,697,l),
(509,697,l),
(509,256,ls),
(509,128,o),
(441,73,o),
(338,73,cs),
(235,73,o),
(166,128,o),
(166,256,cs),
(166,697,l),
(75,697,l)
);
}
);
width = 675;
}
);
note = Uogonek;
unicode = 370;
},
{
glyphname = uogonek;
layers = (
{
layerId = m01;
shapes = (
{
closed = 1;
nodes = (
(563,548,l),
(472,548,l),
(472,247,ls),
(472,129,o),
(409,71,o),
(315,71,cs),
(223,71,o),
(162,128,o),
(162,239,cs),
(162,548,l),
(72,548,l),
(72,227,ls),
(72,70,o),
(171,-8,o),
(297,-8,cs),
(370,-8,o),
(437,24,o),
(472,81,c),
(472,16,l),
(400,-21,o),
(373,-63,o),
(373,-107,cs),
(373,-180,o),
(435,-207,o),
(495,-207,cs),
(522,-207,o),
(549,-201,o),
(572,-193,c),
(572,-133,l),
(549,-141,o),
(526,-146,o),
(507,-146,cs),
(471,-146,o),
(448,-129,o),
(448,-98,cs),
(448,-73,o),
(463,-50,o),
(508,-28,cs),
(563,-1,l),
(562,0,l),
(563,0,l)
);
}
);
width = 640;
}
);
note = uogonek;
unicode = 371;
},
{
glyphname = Wcircumflex;
layers = (
{
layerId = m01;
shapes = (
{
closed = 1;
nodes = (
(218,-1,l),
(319,0,l),
(487,561,l),
(649,0,l),
(751,0,l),
(953,697,l),
(855,697,l),
(702,108,l),
(542,697,l),
(440,697,l),
(272,106,l),
(120,697,l),
(23,697,l)
);
},
{
closed = 1;
nodes = (
(623,822,l),
(485,905,l),
(346,822,l),
(346,750,l),
(485,835,l),
(623,750,l)
);
}
);
width = 976;
}
);
note = Wcircumflex;
unicode = 372;
},
{
glyphname = wcircumflex;
layers = (
{
layerId = m01;
shapes = (
{
closed = 1;
nodes = (
(184,0,l),
(278,0,l),
(410,435,l),
(542,0,l),
(636,0,l),
(807,548,l),
(717,548,l),
(593,87,l),
(460,548,l),
(367,548,l),
(231,88,l),
(105,548,l),
(12,548,l)
);
},
{
closed = 1;
nodes = (
(549,669,l),
(411,752,l),
(272,669,l),
(272,597,l),
(411,682,l),
(549,597,l)
);
}
);
width = 820;
}
);
note = wcircumflex;
unicode = 373;
},
{
glyphname = Ycircumflex;
layers = (
{
layerId = m01;
shapes = (
{
closed = 1;
nodes = (
(247,263,l),
(247,0,l),
(338,0,l),
(338,263,l),
(565,697,l),
(464,697,l),
(292,344,l),
(120,697,l),
(19,697,l)
);
},
{
closed = 1;
nodes = (
(431,814,l),
(293,897,l),
(154,814,l),
(154,742,l),
(293,827,l),
(431,742,l)
);
}
);
width = 584;
}
);
note = Ycircumflex;
unicode = 374;
},
{
glyphname = ycircumflex;
layers = (
{
layerId = m01;
shapes = (
{
closed = 1;
nodes = (
(285,104,l),
(113,548,l),
(12,548,l),
(233,6,l),
(125,-258,l),
(219,-258,l),
(549,548,l),
(455,548,l)
);
},
{
closed = 1;
nodes = (
(420,669,l),
(282,752,l),
(143,669,l),
(143,597,l),
(282,682,l),
(420,597,l)
);
}
);
width = 563;
}
);
note = ycircumflex;
unicode = 375;
},
{
glyphname = Ydieresis;
layers = (
{
layerId = m01;
shapes = (
{
closed = 1;
nodes = (
(247,263,l),
(247,0,l),
(338,0,l),
(338,263,l),
(565,697,l),
(464,697,l),
(292,344,l),
(120,697,l),
(19,697,l)
);
},
{
closed = 1;
nodes = (
(240,767,o),
(264,790,o),
(264,819,cs),
(264,848,o),
(240,872,o),
(212,872,cs),
(182,872,o),
(159,848,o),
(159,819,cs),
(159,790,o),
(182,767,o),
(212,767,cs)
);
},
{
closed = 1;
nodes = (
(403,767,o),
(427,790,o),
(427,819,cs),
(427,848,o),
(403,872,o),
(374,872,cs),
(344,872,o),
(322,848,o),
(322,819,cs),
(322,790,o),
(344,767,o),
(374,767,cs)
);
}
);
width = 584;
}
);
note = Ydieresis;
unicode = 376;
},
{
glyphname = Zacute;
layers = (
{
layerId = m01;
shapes = (
{
closed = 1;
nodes = (
(492,697,l),
(50,697,l),
(50,618,l),
(384,618,l),
(46,72,l),
(46,0,l),
(494,0,l),
(494,79,l),
(154,79,l),
(492,625,l)
);
},
{
closed = 1;
nodes = (
(155,802,l),
(155,734,l),
(368,848,l),
(368,927,l)
);
}
);
width = 541;
}
);
note = Zacute;
unicode = 377;
},
{
glyphname = zacute;
layers = (
{
layerId = m01;
shapes = (
{
closed = 1;
nodes = (
(412,548,l),
(43,548,l),
(43,474,l),
(307,474,l),
(41,75,l),
(41,0,l),
(414,0,l),
(414,75,l),
(145,75,l),
(412,474,l)
);
},
{
closed = 1;
nodes = (
(113,657,l),
(113,589,l),
(326,703,l),
(326,782,l)
);
}
);
width = 455;
}
);
note = zacute;
unicode = 378;
},
{
glyphname = Zdotaccent;
layers = (
{
layerId = m01;
shapes = (
{
closed = 1;
nodes = (
(492,697,l),
(50,697,l),
(50,618,l),
(384,618,l),
(46,72,l),
(46,0,l),
(494,0,l),
(494,79,l),
(154,79,l),
(492,625,l)
);
},
{
closed = 1;
nodes = (
(300,761,o),
(323,784,o),
(323,813,cs),
(323,842,o),
(300,866,o),
(271,866,cs),
(241,866,o),
(218,842,o),
(218,813,cs),
(218,784,o),
(241,761,o),
(271,761,cs)
);
}
);
width = 541;
}
);
note = Zdotaccent;
unicode = 379;
},
{
glyphname = zdotaccent;
layers = (
{
layerId = m01;
shapes = (
{
closed = 1;
nodes = (
(412,548,l),
(43,548,l),
(43,474,l),
(307,474,l),
(41,75,l),
(41,0,l),
(414,0,l),
(414,75,l),
(145,75,l),
(412,474,l)
);
},
{
closed = 1;
nodes = (
(258,617,o),
(281,640,o),
(281,669,cs),
(281,698,o),
(258,722,o),
(229,722,cs),
(199,722,o),
(176,698,o),
(176,669,cs),
(176,640,o),
(199,617,o),
(229,617,cs)
);
}
);
width = 455;
}
);
note = zdotaccent;
unicode = 380;
},
{
glyphname = Zcaron;
layers = (
{
layerId = m01;
shapes = (
{
closed = 1;
nodes = (
(492,697,l),
(50,697,l),
(50,618,l),
(384,618,l),
(46,72,l),
(46,0,l),
(494,0,l),
(494,79,l),
(154,79,l),
(492,625,l)
);
},
{
closed = 1;
nodes = (
(271,811,l),
(132,896,l),
(132,824,l),
(271,742,l),
(409,824,l),
(409,896,l)
);
}
);
width = 541;
}
);
note = Zcaron;
unicode = 381;
},
{
glyphname = zcaron;
layers = (
{
layerId = m01;
shapes = (
{
closed = 1;
nodes = (
(412,548,l),
(43,548,l),
(43,474,l),
(307,474,l),
(41,75,l),
(41,0,l),
(414,0,l),
(414,75,l),
(145,75,l),
(412,474,l)
);
},
{
closed = 1;
nodes = (
(229,666,l),
(90,751,l),
(90,679,l),
(229,597,l),
(367,679,l),
(367,751,l)
);
}
);
width = 455;
}
);
note = zcaron;
unicode = 382;
},
{
glyphname = uni018F;
layers = (
{
layerId = m01;
shapes = (
{
closed = 1;
nodes = (
(256,75,o),
(163,164,o),
(163,298,c),
(629,298,l),
(621,157,o),
(522,75,o),
(394,75,cs)
);
},
{
closed = 1;
nodes = (
(595,-7,o),
(728,138,o),
(728,349,cs),
(728,560,o),
(592,705,o),
(395,705,cs),
(237,705,o),
(118,618,o),
(74,480,c),
(179,480,l),
(210,569,o),
(291,623,o),
(395,623,cs),
(526,623,o),
(622,528,o),
(629,383,c),
(71,383,l),
(69,361,o),
(68,340,o),
(68,321,cs),
(68,112,o),
(202,-7,o),
(394,-7,cs)
);
}
);
width = 786;
}
);
note = uni018F;
unicode = 399;
},
{
glyphname = florin;
layers = (
{
layerId = m01;
shapes = (
{
closed = 1;
nodes = (
(103,548,l),
(32,548,l),
(25,474,l),
(95,474,l),
(39,-57,ls),
(34,-106,o),
(15,-122,o),
(-22,-122,cs),
(-41,-122,l),
(-48,-197,l),
(-24,-197,ls),
(69,-197,o),
(120,-157,o),
(130,-57,cs),
(186,474,l),
(302,474,l),
(309,548,l),
(194,548,l),
(199,595,ls),
(206,664,o),
(240,691,o),
(317,691,c),
(324,767,l),
(190,767,o),
(121,716,o),
(108,595,cs)
);
}
);
width = 332;
}
);
note = florin;
unicode = 402;
},
{
glyphname = uni01FC;
layers = (
{
layerId = m01;
shapes = (
{
closed = 1;
nodes = (
(444,808,l),
(444,740,l),
(657,854,l),
(657,933,l)
);
},
{
closed = 1;
nodes = (
(465,629,l),
(465,226,l),
(238,226,l)
);
},
{
closed = 1;
nodes = (
(838,626,l),
(838,698,l),
(407,698,l),
(12,0,l),
(111,0,l),
(198,155,l),
(465,155,l),
(465,0,l),
(838,0,l),
(838,72,l),
(556,72,l),
(556,317,l),
(808,317,l),
(808,387,l),
(556,387,l),
(556,626,l)
);
}
);
width = 900;
}
);
note = uni01FC;
unicode = 508;
},
{
glyphname = uni01FD;
layers = (
{
layerId = m01;
shapes = (
{
closed = 1;
nodes = (
(881,480,o),
(962,418,o),
(961,309,c),
(600,309,l),
(610,417,o),
(691,480,o),
(784,480,cs)
);
},
{
closed = 1;
nodes = (
(945,169,l),
(927,109,o),
(870,68,o),
(783,68,cs),
(698,68,o),
(610,126,o),
(600,243,c),
(1051,243,l),
(1054,262,o),
(1055,278,o),
(1055,297,cs),
(1055,442,o),
(954,557,o),
(798,557,cs),
(711,557,o),
(639,524,o),
(589,447,c),
(589,548,l),
(513,548,l),
(513,447,l),
(469,517,o),
(399,557,o),
(308,557,cs),
(156,557,o),
(43,447,o),
(43,276,cs),
(43,106,o),
(156,-9,o),
(303,-9,cs),
(399,-9,o),
(472,41,o),
(510,105,c),
(510,0,l),
(589,0,l),
(589,106,l),
(628,36,o),
(708,-9,o),
(798,-9,cs),
(929,-9,o),
(1015,69,o),
(1043,169,c)
);
},
{
closed = 1;
nodes = (
(136,405,o),
(221,478,o),
(321,478,cs),
(421,478,o),
(507,402,o),
(507,275,cs),
(507,146,o),
(421,71,o),
(321,71,cs),
(221,71,o),
(136,147,o),
(136,276,cs)
);
},
{
closed = 1;
nodes = (
(508,657,l),
(508,589,l),
(721,703,l),
(721,782,l)
);
}
);
width = 1100;
}
);
note = uni01FD;
unicode = 509;
},
{
glyphname = uni0218;
layers = (
{
layerId = m01;
shapes = (
{
closed = 1;
nodes = (
(253,-49,l),
(253,-131,l),
(300,-131,l),
(300,-149,ls),
(300,-185,o),
(286,-205,o),
(253,-205,c),
(253,-247,l),
(318,-247,o),
(354,-212,o),
(354,-132,cs),
(354,-107,o),
(351,-79,o),
(343,-49,c)
);
},
{
closed = 1;
nodes = (
(530,448,o),
(154,336,o),
(154,516,cs),
(154,591,o),
(213,630,o),
(288,628,cs),
(373,627,o),
(417,574,o),
(423,527,c),
(523,527,l),
(512,633,o),
(425,706,o),
(292,706,cs),
(154,706,o),
(61,628,o),
(61,513,cs),
(61,254,o),
(438,374,o),
(438,186,cs),
(438,120,o),
(386,70,o),
(298,70,cs),
(201,70,o),
(160,128,o),
(154,186,c),
(57,186,l),
(59,71,o),
(158,-7,o),
(298,-7,cs),
(449,-7,o),
(530,91,o),
(530,190,cs)
);
}
);
width = 587;
}
);
note = uni0218;
unicode = 536;
},
{
glyphname = uni0219;
layers = (
{
layerId = m01;
shapes = (
{
closed = 1;
nodes = (
(219,-49,l),
(219,-131,l),
(266,-131,l),
(266,-149,ls),
(266,-185,o),
(252,-205,o),
(219,-205,c),
(219,-247,l),
(284,-247,o),
(320,-212,o),
(320,-132,cs),
(320,-107,o),
(316,-79,o),
(309,-49,c)
);
},
{
closed = 1;
nodes = (
(467,345,o),
(149,274,o),
(149,404,cs),
(149,448,o),
(189,480,o),
(256,480,cs),
(329,480,o),
(371,440,o),
(375,385,c),
(466,385,l),
(460,492,o),
(380,557,o),
(259,557,cs),
(137,557,o),
(58,488,o),
(58,404,cs),
(58,200,o),
(382,271,o),
(382,149,cs),
(382,104,o),
(342,68,o),
(270,68,cs),
(193,68,o),
(146,108,o),
(141,161,c),
(47,161,l),
(53,61,o),
(143,-9,o),
(271,-9,cs),
(392,-9,o),
(471,59,o),
(471,149,cs)
);
}
);
width = 522;
}
);
note = uni0219;
unicode = 537;
},
{
glyphname = uni021A;
layers = (
{
layerId = m01;
shapes = (
{
closed = 1;
nodes = (
(223,-49,l),
(223,-131,l),
(270,-131,l),
(270,-149,ls),
(270,-185,o),
(256,-205,o),
(223,-205,c),
(223,-247,l),
(288,-247,o),
(323,-212,o),
(323,-132,cs),
(323,-107,o),
(320,-79,o),
(313,-49,c)
);
},
{
closed = 1;
nodes = (
(34,623,l),
(225,623,l),
(225,0,l),
(316,0,l),
(316,623,l),
(506,623,l),
(506,697,l),
(34,697,l)
);
}
);
width = 541;
}
);
note = uni021A;
unicode = 538;
},
{
glyphname = uni021B;
layers = (
{
layerId = m01;
shapes = (
{
closed = 1;
nodes = (
(143,-49,l),
(143,-131,l),
(191,-131,l),
(191,-149,ls),
(191,-185,o),
(177,-205,o),
(143,-205,c),
(143,-247,l),
(209,-247,o),
(244,-212,o),
(244,-132,cs),
(244,-107,o),
(241,-79,o),
(233,-49,c)
);
},
{
closed = 1;
nodes = (
(97,150,ls),
(97,40,o),
(152,0,o),
(249,0,cs),
(331,0,l),
(331,77,l),
(264,77,ls),
(208,77,o),
(188,96,o),
(188,150,cs),
(188,473,l),
(331,473,l),
(331,548,l),
(188,548,l),
(188,686,l),
(97,686,l),
(97,548,l),
(26,548,l),
(26,473,l),
(97,473,l)
);
}
);
width = 364;
}
);
note = uni021B;
unicode = 539;
},
{
glyphname = uni0259;
layers = (
{
layerId = m01;
shapes = (
{
closed = 1;
nodes = (
(216,68,o),
(136,127,o),
(137,234,c),
(483,234,l),
(473,127,o),
(399,68,o),
(310,68,cs)
);
},
{
closed = 1;
nodes = (
(466,-9,o),
(577,100,o),
(577,273,cs),
(577,447,o),
(462,557,o),
(306,557,cs),
(170,557,o),
(82,479,o),
(54,379,c),
(152,379,l),
(172,438,o),
(224,480,o),
(306,480,cs),
(399,480,o),
(477,419,o),
(484,308,c),
(46,308,l),
(44,289,o),
(43,273,o),
(43,253,cs),
(43,103,o),
(147,-9,o),
(306,-9,cs)
);
}
);
width = 620;
}
);
note = uni0259;
unicode = 601;
},
{
glyphname = uni02BC;
layers = (
{
layerId = m01;
shapes = (
{
closed = 1;
nodes = (
(96,470,l),
(192,697,l),
(91,697,l),
(32,470,l)
);
}
);
width = 219;
}
);
note = uni02BC;
unicode = 700;
},
{
glyphname = circumflex;
layers = (
{
layerId = m01;
shapes = (
{
closed = 1;
nodes = (
(294,669,l),
(156,752,l),
(17,669,l),
(17,597,l),
(156,682,l),
(294,597,l)
);
}
);
width = 311;
}
);
note = circumflex;
unicode = 710;
},
{
glyphname = caron;
layers = (
{
layerId = m01;
shapes = (
{
closed = 1;
nodes = (
(156,666,l),
(17,751,l),
(17,679,l),
(156,597,l),
(294,679,l),
(294,751,l)
);
}
);
width = 311;
}
);
note = caron;
unicode = 711;
},
{
glyphname = uni02C9;
layers = (
{
layerId = m01;
shapes = (
{
closed = 1;
nodes = (
(17,641,l),
(369,641,l),
(369,709,l),
(17,709,l)
);
}
);
width = 387;
}
);
note = uni02C9;
unicode = 713;
},
{
glyphname = breve;
layers = (
{
layerId = m01;
shapes = (
{
closed = 1;
nodes = (
(302,750,l),
(248,750,l),
(248,702,o),
(224,673,o),
(160,673,cs),
(95,673,o),
(71,702,o),
(71,750,c),
(17,750,l),
(17,733,ls),
(17,658,o),
(68,602,o),
(160,602,cs),
(252,602,o),
(302,658,o),
(302,732,cs)
);
}
);
width = 320;
}
);
note = breve;
unicode = 728;
},
{
glyphname = dotaccent;
layers = (
{
layerId = m01;
shapes = (
{
closed = 1;
nodes = (
(101,622,o),
(124,645,o),
(124,674,cs),
(124,703,o),
(101,727,o),
(72,727,cs),
(42,727,o),
(19,703,o),
(19,674,cs),
(19,645,o),
(42,622,o),
(72,622,cs)
);
}
);
width = 143;
}
);
note = dotaccent;
unicode = 729;
},
{
glyphname = ring;
layers = (
{
layerId = m01;
shapes = (
{
closed = 1;
nodes = (
(64,817,o),
(15,777,o),
(15,712,cs),
(15,647,o),
(64,607,o),
(122,607,cs),
(181,607,o),
(229,647,o),
(229,712,cs),
(229,777,o),
(181,817,o),
(122,817,cs)
);
},
{
closed = 1;
nodes = (
(92,656,o),
(68,679,o),
(68,713,cs),
(68,747,o),
(92,769,o),
(122,769,cs),
(152,769,o),
(176,747,o),
(176,713,cs),
(176,679,o),
(152,656,o),
(122,656,cs)
);
}
);
width = 243;
}
);
note = ring;
unicode = 730;
},
{
glyphname = ogonek;
layers = (
{
layerId = m01;
shapes = (
{
closed = 1;
nodes = (
(137,26,ls),
(51,-14,o),
(20,-58,o),
(20,-106,cs),
(20,-179,o),
(82,-206,o),
(142,-206,cs),
(169,-206,o),
(196,-200,o),
(219,-192,c),
(219,-132,l),
(196,-140,o),
(173,-145,o),
(154,-145,cs),
(118,-145,o),
(95,-128,o),
(95,-97,cs),
(95,-72,o),
(110,-49,o),
(155,-27,cs),
(210,0,l),
(186,47,l)
);
}
);
width = 241;
}
);
note = ogonek;
unicode = 731;
},
{
glyphname = tilde;
layers = (
{
layerId = m01;
shapes = (
{
closed = 1;
nodes = (
(70,607,l),
(74,637,o),
(91,651,o),
(113,651,cs),
(153,651,o),
(173,605,o),
(227,605,cs),
(279,605,o),
(319,641,o),
(327,709,c),
(275,709,l),
(271,680,o),
(253,666,o),
(231,666,cs),
(190,666,o),
(170,712,o),
(117,712,cs),
(65,712,o),
(27,676,o),
(17,607,c)
);
}
);
width = 345;
}
);
note = tilde;
unicode = 732;
},
{
glyphname = hungarumlaut;
layers = (
{
layerId = m01;
shapes = (
{
closed = 1;
nodes = (
(84,755,l),
(17,601,l),
(78,601,l),
(165,755,l)
);
},
{
closed = 1;
nodes = (
(238,755,l),
(166,601,l),
(226,601,l),
(318,755,l)
);
}
);
width = 344;
}
);
note = hungarumlaut;
unicode = 733;
},
{
glyphname = pi;
layers = (
{
layerId = m01;
shapes = (
{
closed = 1;
nodes = (
(39,477,l),
(118,477,l),
(118,0,l),
(209,0,l),
(209,477,l),
(497,477,l),
(497,0,l),
(587,0,l),
(587,477,l),
(667,477,l),
(667,548,l),
(39,548,l)
);
}
);
width = 710;
}
);
note = pi;
unicode = 960;
},
{
glyphname = Wgrave;
layers = (
{
layerId = m01;
shapes = (
{
closed = 1;
nodes = (
(218,-1,l),
(319,0,l),
(487,561,l),
(649,0,l),
(751,0,l),
(953,697,l),
(855,697,l),
(702,108,l),
(542,697,l),
(440,697,l),
(272,106,l),
(120,697,l),
(23,697,l)
);
},
{
closed = 1;
nodes = (
(327,853,l),
(540,739,l),
(540,807,l),
(327,932,l)
);
}
);
width = 976;
}
);
note = Wgrave;
unicode = 7808;
},
{
glyphname = wgrave;
layers = (
{
layerId = m01;
shapes = (
{
closed = 1;
nodes = (
(184,0,l),
(278,0,l),
(410,435,l),
(542,0,l),
(636,0,l),
(807,548,l),
(717,548,l),
(593,87,l),
(460,548,l),
(367,548,l),
(231,88,l),
(105,548,l),
(12,548,l)
);
},
{
closed = 1;
nodes = (
(242,703,l),
(455,589,l),
(455,657,l),
(242,782,l)
);
}
);
width = 820;
}
);
note = wgrave;
unicode = 7809;
},
{
glyphname = Wacute;
layers = (
{
layerId = m01;
shapes = (
{
closed = 1;
nodes = (
(218,-1,l),
(319,0,l),
(487,561,l),
(649,0,l),
(751,0,l),
(953,697,l),
(855,697,l),
(702,108,l),
(542,697,l),
(440,697,l),
(272,106,l),
(120,697,l),
(23,697,l)
);
},
{
closed = 1;
nodes = (
(442,810,l),
(442,742,l),
(655,856,l),
(655,935,l)
);
}
);
width = 976;
}
);
note = Wacute;
unicode = 7810;
},
{
glyphname = wacute;
layers = (
{
layerId = m01;
shapes = (
{
closed = 1;
nodes = (
(184,0,l),
(278,0,l),
(410,435,l),
(542,0,l),
(636,0,l),
(807,548,l),
(717,548,l),
(593,87,l),
(460,548,l),
(367,548,l),
(231,88,l),
(105,548,l),
(12,548,l)
);
},
{
closed = 1;
nodes = (
(366,657,l),
(366,589,l),
(579,703,l),
(579,782,l)
);
}
);
width = 820;
}
);
note = wacute;
unicode = 7811;
},
{
glyphname = Wdieresis;
layers = (
{
layerId = m01;
shapes = (
{
closed = 1;
nodes = (
(218,-1,l),
(319,0,l),
(487,561,l),
(649,0,l),
(751,0,l),
(953,697,l),
(855,697,l),
(702,108,l),
(542,697,l),
(440,697,l),
(272,106,l),
(120,697,l),
(23,697,l)
);
},
{
closed = 1;
nodes = (
(432,773,o),
(456,796,o),
(456,825,cs),
(456,854,o),
(432,878,o),
(404,878,cs),
(374,878,o),
(351,854,o),
(351,825,cs),
(351,796,o),
(374,773,o),
(404,773,cs)
);
},
{
closed = 1;
nodes = (
(595,773,o),
(619,796,o),
(619,825,cs),
(619,854,o),
(595,878,o),
(566,878,cs),
(536,878,o),
(514,854,o),
(514,825,cs),
(514,796,o),
(536,773,o),
(566,773,cs)
);
}
);
width = 976;
}
);
note = Wdieresis;
unicode = 7812;
},
{
glyphname = wdieresis;
layers = (
{
layerId = m01;
shapes = (
{
closed = 1;
nodes = (
(184,0,l),
(278,0,l),
(410,435,l),
(542,0,l),
(636,0,l),
(807,548,l),
(717,548,l),
(593,87,l),
(460,548,l),
(367,548,l),
(231,88,l),
(105,548,l),
(12,548,l)
);
},
{
closed = 1;
nodes = (
(357,622,o),
(381,645,o),
(381,674,cs),
(381,703,o),
(357,727,o),
(329,727,cs),
(299,727,o),
(276,703,o),
(276,674,cs),
(276,645,o),
(299,622,o),
(329,622,cs)
);
},
{
closed = 1;
nodes = (
(520,622,o),
(544,645,o),
(544,674,cs),
(544,703,o),
(520,727,o),
(491,727,cs),
(461,727,o),
(439,703,o),
(439,674,cs),
(439,645,o),
(461,622,o),
(491,622,cs)
);
}
);
width = 820;
}
);
note = wdieresis;
unicode = 7813;
},
{
glyphname = uni1EBC;
layers = (
{
layerId = m01;
shapes = (
{
closed = 1;
nodes = (
(452,698,l),
(77,698,l),
(77,0,l),
(452,0,l),
(452,75,l),
(168,75,l),
(168,315,l),
(422,315,l),
(422,390,l),
(168,390,l),
(168,623,l),
(452,623,l)
);
},
{
closed = 1;
nodes = (
(161,752,l),
(165,782,o),
(182,796,o),
(204,796,cs),
(244,796,o),
(264,750,o),
(318,750,cs),
(370,750,o),
(410,786,o),
(418,854,c),
(366,854,l),
(362,825,o),
(344,811,o),
(322,811,cs),
(281,811,o),
(261,857,o),
(208,857,cs),
(156,857,o),
(118,821,o),
(108,752,c)
);
}
);
width = 513;
}
);
note = uni1EBC;
unicode = 7868;
},
{
glyphname = uni1EBD;
layers = (
{
layerId = m01;
shapes = (
{
closed = 1;
nodes = (
(404,480,o),
(484,421,o),
(483,314,c),
(137,314,l),
(147,421,o),
(221,480,o),
(310,480,cs)
);
},
{
closed = 1;
nodes = (
(468,169,l),
(448,110,o),
(396,68,o),
(314,68,cs),
(221,68,o),
(143,129,o),
(136,240,c),
(574,240,l),
(576,259,o),
(577,275,o),
(577,295,cs),
(577,445,o),
(473,557,o),
(314,557,cs),
(154,557,o),
(43,448,o),
(43,275,cs),
(43,101,o),
(158,-9,o),
(314,-9,cs),
(450,-9,o),
(538,69,o),
(566,169,c)
);
},
{
closed = 1;
nodes = (
(216,607,l),
(220,637,o),
(237,651,o),
(259,651,cs),
(299,651,o),
(319,605,o),
(373,605,cs),
(425,605,o),
(465,641,o),
(473,709,c),
(421,709,l),
(417,680,o),
(399,666,o),
(377,666,cs),
(336,666,o),
(316,712,o),
(263,712,cs),
(211,712,o),
(173,676,o),
(163,607,c)
);
}
);
width = 620;
}
);
note = uni1EBD;
unicode = 7869;
},
{
glyphname = Ygrave;
layers = (
{
layerId = m01;
shapes = (
{
closed = 1;
nodes = (
(247,263,l),
(247,0,l),
(338,0,l),
(338,263,l),
(565,697,l),
(464,697,l),
(292,344,l),
(120,697,l),
(19,697,l)
);
},
{
closed = 1;
nodes = (
(177,848,l),
(390,734,l),
(390,802,l),
(177,927,l)
);
}
);
width = 584;
}
);
note = Ygrave;
unicode = 7922;
},
{
glyphname = ygrave;
layers = (
{
layerId = m01;
shapes = (
{
closed = 1;
nodes = (
(285,104,l),
(113,548,l),
(12,548,l),
(233,6,l),
(125,-258,l),
(219,-258,l),
(549,548,l),
(455,548,l)
);
},
{
closed = 1;
nodes = (
(166,703,l),
(379,589,l),
(379,657,l),
(166,782,l)
);
}
);
width = 563;
}
);
note = ygrave;
unicode = 7923;
},
{
glyphname = uni1EF8;
layers = (
{
layerId = m01;
shapes = (
{
closed = 1;
nodes = (
(247,263,l),
(247,0,l),
(338,0,l),
(338,263,l),
(565,697,l),
(464,697,l),
(292,344,l),
(120,697,l),
(19,697,l)
);
},
{
closed = 1;
nodes = (
(199,752,l),
(203,782,o),
(220,796,o),
(242,796,cs),
(282,796,o),
(302,750,o),
(356,750,cs),
(408,750,o),
(448,786,o),
(456,854,c),
(404,854,l),
(400,825,o),
(382,811,o),
(360,811,cs),
(319,811,o),
(299,857,o),
(246,857,cs),
(194,857,o),
(156,821,o),
(146,752,c)
);
}
);
width = 584;
}
);
note = uni1EF8;
unicode = 7928;
},
{
glyphname = uni1EF9;
layers = (
{
layerId = m01;
shapes = (
{
closed = 1;
nodes = (
(285,104,l),
(113,548,l),
(12,548,l),
(233,6,l),
(125,-258,l),
(219,-258,l),
(549,548,l),
(455,548,l)
);
},
{
closed = 1;
nodes = (
(188,607,l),
(192,637,o),
(209,651,o),
(231,651,cs),
(271,651,o),
(291,605,o),
(345,605,cs),
(397,605,o),
(437,641,o),
(445,709,c),
(393,709,l),
(389,680,o),
(371,666,o),
(349,666,cs),
(308,666,o),
(288,712,o),
(235,712,cs),
(183,712,o),
(145,676,o),
(135,607,c)
);
}
);
width = 563;
}
);
note = uni1EF9;
unicode = 7929;
},
{
glyphname = endash;
layers = (
{
layerId = m01;
shapes = (
{
closed = 1;
nodes = (
(76,328,l),
(602,328,l),
(602,405,l),
(76,405,l)
);
}
);
width = 677;
}
);
note = endash;
unicode = 8211;
},
{
glyphname = emdash;
layers = (
{
layerId = m01;
shapes = (
{
closed = 1;
nodes = (
(76,328,l),
(809,328,l),
(809,405,l),
(76,405,l)
);
}
);
width = 885;
}
);
note = emdash;
unicode = 8212;
},
{
glyphname = quoteleft;
layers = (
{
layerId = m01;
shapes = (
{
closed = 1;
nodes = (
(123,698,l),
(27,471,l),
(128,471,l),
(187,698,l)
);
}
);
width = 219;
}
);
note = quoteleft;
unicode = 8216;
},
{
glyphname = quoteright;
layers = (
{
layerId = m01;
shapes = (
{
closed = 1;
nodes = (
(96,470,l),
(192,697,l),
(91,697,l),
(32,470,l)
);
}
);
width = 219;
}
);
note = quoteright;
unicode = 8217;
},
{
glyphname = quotesinglbase;
layers = (
{
layerId = m01;
shapes = (
{
closed = 1;
nodes = (
(-2,-143,l),
(59,-143,l),
(171,126,l),
(71,126,l)
);
}
);
width = 186;
}
);
note = quotesinglbase;
unicode = 8218;
},
{
glyphname = quotedblleft;
layers = (
{
layerId = m01;
shapes = (
{
closed = 1;
nodes = (
(123,698,l),
(27,471,l),
(128,471,l),
(187,698,l)
);
},
{
closed = 1;
nodes = (
(286,698,l),
(190,471,l),
(291,471,l),
(350,698,l)
);
}
);
width = 386;
}
);
note = quotedblleft;
unicode = 8220;
},
{
glyphname = quotedblright;
layers = (
{
layerId = m01;
shapes = (
{
closed = 1;
nodes = (
(268,470,l),
(364,697,l),
(263,697,l),
(204,470,l)
);
},
{
closed = 1;
nodes = (
(105,470,l),
(201,697,l),
(100,697,l),
(41,470,l)
);
}
);
width = 391;
}
);
note = quotedblright;
unicode = 8221;
},
{
glyphname = quotedblbase;
layers = (
{
layerId = m01;
shapes = (
{
closed = 1;
nodes = (
(-2,-143,l),
(59,-143,l),
(171,126,l),
(71,126,l)
);
},
{
closed = 1;
nodes = (
(196,-143,l),
(257,-143,l),
(369,126,l),
(269,126,l)
);
}
);
width = 395;
}
);
note = quotedblbase;
unicode = 8222;
},
{
glyphname = dagger;
layers = (
{
layerId = m01;
shapes = (
{
closed = 1;
nodes = (
(309,540,l),
(318,781,l),
(228,781,l),
(237,540,l),
(44,548,l),
(44,476,l),
(237,484,l),
(228,-260,l),
(318,-260,l),
(309,484,l),
(502,476,l),
(502,548,l)
);
}
);
width = 546;
}
);
note = dagger;
unicode = 8224;
},
{
glyphname = daggerdbl;
layers = (
{
layerId = m01;
shapes = (
{
closed = 1;
nodes = (
(502,548,l),
(309,540,l),
(318,781,l),
(228,781,l),
(237,540,l),
(45,548,l),
(45,476,l),
(237,484,l),
(237,37,l),
(45,46,l),
(45,-27,l),
(237,-19,l),
(228,-260,l),
(318,-260,l),
(309,-19,l),
(502,-27,l),
(502,46,l),
(309,37,l),
(309,484,l),
(502,476,l)
);
}
);
width = 547;
}
);
note = daggerdbl;
unicode = 8225;
},
{
glyphname = bullet;
layers = (
{
layerId = m01;
shapes = (
{
closed = 1;
nodes = (
(274,211,o),
(329,265,o),
(329,333,cs),
(329,402,o),
(274,456,o),
(205,456,cs),
(137,456,o),
(83,402,o),
(83,333,cs),
(83,265,o),
(137,211,o),
(205,211,cs)
);
}
);
width = 412;
}
);
note = bullet;
unicode = 8226;
},
{
glyphname = ellipsis;
layers = (
{
layerId = m01;
shapes = (
{
closed = 1;
nodes = (
(353,91,o),
(326,118,o),
(293,118,cs),
(258,118,o),
(231,91,o),
(231,56,cs),
(231,21,o),
(258,-6,o),
(293,-6,cs),
(326,-6,o),
(353,21,o),
(353,56,cs)
);
},
{
closed = 1;
nodes = (
(541,91,o),
(514,118,o),
(481,118,cs),
(446,118,o),
(419,91,o),
(419,56,cs),
(419,21,o),
(446,-6,o),
(481,-6,cs),
(514,-6,o),
(541,21,o),
(541,56,cs)
);
},
{
closed = 1;
nodes = (
(166,91,o),
(139,118,o),
(106,118,cs),
(71,118,o),
(44,91,o),
(44,56,cs),
(44,21,o),
(71,-6,o),
(106,-6,cs),
(139,-6,o),
(166,21,o),
(166,56,cs)
);
}
);
width = 581;
}
);
note = ellipsis;
unicode = 8230;
},
{
glyphname = perthousand;
layers = (
{
layerId = m01;
shapes = (
{
closed = 1;
nodes = (
(41,469,o),
(103,412,o),
(187,412,cs),
(270,412,o),
(333,469,o),
(333,560,cs),
(333,651,o),
(270,707,o),
(187,707,cs),
(103,707,o),
(41,651,o),
(41,560,cs)
);
},
{
closed = 1;
nodes = (
(231,651,o),
(260,620,o),
(260,560,cs),
(260,500,o),
(231,469,o),
(187,469,cs),
(142,469,o),
(113,500,o),
(113,560,cs),
(113,620,o),
(142,651,o),
(187,651,cs)
);
},
{
closed = 1;
nodes = (
(90,0,l),
(180,0,l),
(584,698,l),
(494,698,l)
);
},
{
closed = 1;
nodes = (
(343,47,o),
(405,-10,o),
(489,-10,cs),
(572,-10,o),
(634,47,o),
(634,138,cs),
(634,230,o),
(572,286,o),
(489,286,cs),
(405,286,o),
(343,230,o),
(343,138,cs)
);
},
{
closed = 1;
nodes = (
(532,229,o),
(562,199,o),
(562,138,cs),
(562,78,o),
(532,48,o),
(488,48,cs),
(444,48,o),
(414,78,o),
(414,138,cs),
(414,199,o),
(444,229,o),
(488,229,cs)
);
},
{
closed = 1;
nodes = (
(672,47,o),
(736,-10,o),
(818,-10,cs),
(902,-10,o),
(964,47,o),
(964,138,cs),
(964,230,o),
(902,286,o),
(818,286,cs),
(736,286,o),
(672,230,o),
(672,138,cs)
);
},
{
closed = 1;
nodes = (
(862,229,o),
(892,199,o),
(892,138,cs),
(892,78,o),
(862,48,o),
(818,48,cs),
(773,48,o),
(745,78,o),
(745,138,cs),
(745,199,o),
(773,229,o),
(818,229,cs)
);
}
);
width = 1005;
}
);
note = perthousand;
unicode = 8240;
},
{
glyphname = guilsinglleft;
layers = (
{
layerId = m01;
shapes = (
{
closed = 1;
nodes = (
(131,295,l),
(230,470,l),
(141,470,l),
(45,295,l),
(141,120,l),
(230,120,l)
);
}
);
width = 280;
}
);
note = guilsinglleft;
unicode = 8249;
},
{
glyphname = guilsinglright;
layers = (
{
layerId = m01;
shapes = (
{
closed = 1;
nodes = (
(139,120,l),
(235,295,l),
(139,470,l),
(50,470,l),
(149,295,l),
(50,120,l)
);
}
);
width = 280;
}
);
note = guilsinglright;
unicode = 8250;
},
